<svg xmlns="http://www.w3.org/2000/svg" viewBox="0 0 876.88 258.91"><defs><style>.cls-1{fill:#f2f2f2;}.cls-2,.cls-23,.cls-24,.cls-25,.cls-26,.cls-27,.cls-29{fill:none;}.cls-2{stroke:#ff6c2f;}.cls-3,.cls-4{font-size:11.25px;}.cls-18,.cls-20,.cls-3,.cls-4{fill:#3e3a39;}.cls-18,.cls-20,.cls-3{font-family:PingFangSC-Semibold-GBpc-EUC-H, PingFang SC;}.cls-4{font-family:PingFangSC-Regular-GBpc-EUC-H, PingFang SC;}.cls-5{letter-spacing:-0.03em;}.cls-6{letter-spacing:-0.04em;}.cls-7{letter-spacing:0em;}.cls-8{letter-spacing:0.25em;}.cls-9{letter-spacing:0.14em;}.cls-10{letter-spacing:0em;}.cls-11{letter-spacing:-0.42em;}.cls-12{letter-spacing:-0.06em;}.cls-13{letter-spacing:0.16em;}.cls-14{letter-spacing:-0.37em;}.cls-15{letter-spacing:0.25em;}.cls-16{letter-spacing:0.25em;}.cls-17{letter-spacing:0.25em;}.cls-18,.cls-20{font-size:11.11px;}.cls-19,.cls-20{letter-spacing:0.13em;}.cls-21{letter-spacing:0em;}.cls-22{fill:#ec6b36;}.cls-23,.cls-24,.cls-25{stroke:#ec6b36;}.cls-23,.cls-25{stroke-miterlimit:10;}.cls-23{stroke-width:0.88px;}.cls-24,.cls-26,.cls-27{stroke-linecap:round;stroke-linejoin:round;}.cls-24,.cls-25{stroke-width:2.23px;}.cls-26,.cls-27{stroke:#f08b59;stroke-width:2.26px;}.cls-26{stroke-dasharray:0 4.41;}.cls-28{fill:#f08b59;}.cls-29{stroke:#3e3a39;stroke-width:0.28px;}</style></defs><title>资源 2</title><g id="图层_2" data-name="图层 2"><g id="图层_1-2" data-name="图层 1"><rect class="cls-1" x="372.68" y="0.5" width="322.56" height="51.62"/><rect class="cls-2" x="372.68" y="0.5" width="322.56" height="51.62"/><rect class="cls-1" x="0.5" y="153.49" width="485.38" height="104.92"/><rect class="cls-2" x="0.5" y="153.49" width="485.38" height="104.92"/><text class="cls-3" transform="translate(15.91 175.32)">样本要求：</text><text class="cls-3" transform="translate(381.02 22.06)">检测时间：</text><text class="cls-3" transform="translate(78.72 175.32)">样本类型</text><text class="cls-4" transform="translate(78.72 197.87)">外周血</text><text class="cls-4" transform="translate(163.04 197.87)">2-3ml</text><text class="cls-4" transform="translate(297.22 197.87)">E<tspan class="cls-5" x="7.17" y="0">D</tspan><tspan class="cls-6" x="14.82" y="0">T</tspan><tspan class="cls-7" x="21.29" y="0">A 抗凝管，常温</tspan><tspan class="cls-8" x="99.94" y="0">或</tspan><tspan x="114.01" y="0">4℃冷藏</tspan></text><text class="cls-4" transform="translate(297.22 220.42)">生理盐水浸泡，4℃冷藏</text><text class="cls-4" transform="translate(297.22 242.97)">常温保存，建议放在玻片盒里运输</text><text class="cls-4" transform="translate(445.78 22.07)">二代测<tspan class="cls-9" x="33.76" y="0">序</tspan><tspan class="cls-10" x="46.62" y="0">2</tspan><tspan class="cls-9" x="53.37" y="0">5</tspan><tspan x="61.73" y="0">个工作日</tspan><tspan class="cls-11" x="106.74" y="0">，</tspan><tspan x="113.22" y="0">一代测</tspan><tspan class="cls-9" x="146.98" y="0">序</tspan><tspan x="159.84" y="0">5-10 个工作日，</tspan></text><text class="cls-4" transform="translate(445.78 40.36)">ML<tspan class="cls-12" x="16.54" y="0">P</tspan><tspan x="23.15" y="0">A 检</tspan><tspan class="cls-13" x="45.54" y="0">测</tspan><tspan x="58.55" y="0">10 个工作日</tspan><tspan class="cls-14" x="118.57" y="0">，</tspan><tspan x="125.64" y="0">芯片检</tspan><tspan class="cls-13" x="159.4" y="0">测</tspan><tspan x="172.41" y="0">20 个工作日。</tspan></text><text class="cls-4" transform="translate(163.04 242.97)">10-1<tspan class="cls-15" x="22.58" y="0">5</tspan><tspan x="32.15" y="0">张</tspan></text><text class="cls-4" transform="translate(163.04 220.42)">新鲜组织，黄豆粒大小</text><text class="cls-4" transform="translate(78.72 220.42)">肿瘤组织</text><text class="cls-4" transform="translate(78.72 242.97)">蜡<tspan class="cls-16" x="11.25" y="0">块</tspan><tspan class="cls-17" x="25.3" y="0">/</tspan><tspan x="33.7" y="0">百片</tspan></text><text class="cls-3" transform="translate(162.56 175.33)">样本要求</text><text class="cls-3" transform="translate(297.22 175.33)">保存条件</text><text class="cls-18" transform="translate(27.95 98.4)"><tspan class="cls-19">预约检</tspan><tspan x="37.65" y="0">测</tspan></text><text class="cls-18" transform="translate(206.62 98.4)"><tspan class="cls-19">样本采</tspan><tspan x="37.65" y="0">集</tspan></text><text class="cls-18" transform="translate(371.98 98.4)"><tspan class="cls-19">检测分</tspan><tspan x="37.65" y="0">析</tspan></text><text class="cls-20" transform="translate(536.86 98.4)">出具检测报<tspan class="cls-21" x="62.75" y="0">告</tspan></text><text class="cls-18" transform="translate(726.43 98.4)"><tspan class="cls-19">报告解</tspan><tspan x="37.65" y="0">读</tspan></text><path class="cls-22" d="M159.36,110.76h0a.85.85,0,0,0-.85.85v5.9h4.22a.84.84,0,1,0,0-1.68H160.2v-4.22a.84.84,0,0,0-.84-.85m-26.71-.46h9.21a.93.93,0,0,1,0,1.85h-9.21a.93.93,0,0,1,0-1.85m0-5.52h13.82a.92.92,0,1,1,0,1.84H132.65a.92.92,0,1,1,0-1.84"/><path class="cls-23" d="M159.36,110.76h0a.85.85,0,0,0-.85.85v5.9h4.22a.84.84,0,1,0,0-1.68H160.2v-4.22A.84.84,0,0,0,159.36,110.76Zm-26.71-.46h9.21a.93.93,0,0,1,0,1.85h-9.21a.93.93,0,0,1,0-1.85Zm0-5.52h13.82a.92.92,0,1,1,0,1.84H132.65a.92.92,0,1,1,0-1.84Z"/><path class="cls-22" d="M165.18,121.93a8.39,8.39,0,0,1-10.66.8,8.47,8.47,0,0,1-3.6-6.9,8.43,8.43,0,0,1,16.61-2.07,8,8,0,0,1,0,4.21,5.07,5.07,0,0,1-2.33,4m-34.92-1a3.24,3.24,0,0,1-3.25-3.25V98.33h38.68v9.6a10.13,10.13,0,0,0-16.47,7.9,10,10,0,0,0,1.38,5.06Zm0-32.23h5.27v4.83a.92.92,0,1,0,1.84,0V88.66h18v4.83a.92.92,0,1,0,1.84,0V88.66h5.27a3.25,3.25,0,0,1,3.25,3.25v4.58H127V91.91a3.24,3.24,0,0,1,3.25-3.25m37.27,21.21v-18a5.09,5.09,0,0,0-5.09-5.09h-5.27V84.28a.92.92,0,0,0-1.84,0v2.54h-18V84.28a.92.92,0,1,0-1.84,0v2.54h-5.27a5.11,5.11,0,0,0-5.1,5.09v25.73a5.11,5.11,0,0,0,5.1,5.09H152a10.11,10.11,0,0,0,15.56-12.86"/><path class="cls-23" d="M165.18,121.93a8.39,8.39,0,0,1-10.66.8,8.47,8.47,0,0,1-3.6-6.9,8.43,8.43,0,0,1,16.61-2.07,8,8,0,0,1,0,4.21A5.07,5.07,0,0,1,165.18,121.93Zm-34.92-1a3.24,3.24,0,0,1-3.25-3.25V98.33h38.68v9.6a10.13,10.13,0,0,0-16.47,7.9,10,10,0,0,0,1.38,5.06Zm0-32.23h5.27v4.83a.92.92,0,1,0,1.84,0V88.66h18v4.83a.92.92,0,1,0,1.84,0V88.66h5.27a3.25,3.25,0,0,1,3.25,3.25v4.58H127V91.91A3.24,3.24,0,0,1,130.26,88.66Zm37.27,21.21v-18a5.09,5.09,0,0,0-5.09-5.09h-5.27V84.28a.92.92,0,0,0-1.84,0v2.54h-18V84.28a.92.92,0,1,0-1.84,0v2.54h-5.27a5.11,5.11,0,0,0-5.1,5.09v25.73a5.11,5.11,0,0,0,5.1,5.09H152a10.11,10.11,0,0,0,15.56-12.86Z"/><path class="cls-22" d="M330.73,102.76c0,1.34-6.64,7.33-6.64,14.21a6.83,6.83,0,0,0,6.64,7.15c3.67,0,6.64-3.38,6.64-7.15,0-6.75-6.63-12.85-6.64-14.21"/><path class="cls-24" d="M310.42,127h0a7.69,7.69,0,0,1-7.7-7.69V82.35h15.39v36.93A7.69,7.69,0,0,1,310.42,127Z"/><path class="cls-22" d="M319.76,83.3H301.08a1.16,1.16,0,1,1,0-2.31h18.68a1.16,1.16,0,1,1,0,2.31"/><line class="cls-25" x1="302.72" y1="95.99" x2="318.11" y2="95.99"/><path class="cls-22" d="M503.42,120.57a2.23,2.23,0,1,0-2.23-2.23,2.23,2.23,0,0,0,2.23,2.23"/><path class="cls-22" d="M485.55,120H490a1.68,1.68,0,0,0,0-3.35h-4.47a1.68,1.68,0,0,0,0,3.35"/><path class="cls-22" d="M497.75,97.52a1.68,1.68,0,0,0-1.43-.8h0a1.65,1.65,0,0,0-1.42.81l-3.4,5.64L488.1,92a1.76,1.76,0,0,0-1.63-1.19A1.69,1.69,0,0,0,484.88,92l-2.35,8.9h-6.47a1.68,1.68,0,0,0,0,3.35h7.77a1.66,1.66,0,0,0,1.61-1.25l1.16-4.42,2.77,9.17a1.68,1.68,0,0,0,3,.37l3.92-6.52,1.06,1.71a1.68,1.68,0,0,0,1.43.79H504a1.68,1.68,0,1,0,0-3.35h-4.21Z"/><path class="cls-22" d="M474.39,120h4.46a1.68,1.68,0,1,0,0-3.35h-4.46a1.68,1.68,0,1,0,0,3.35"/><path class="cls-22" d="M510.68,114.15v4.19a2.8,2.8,0,0,1-2.79,2.79H472.15a2.79,2.79,0,0,1-2.79-2.79v-4.19ZM514,96V91.54a6.14,6.14,0,0,0-6.14-6.14H472.15A6.14,6.14,0,0,0,466,91.54v26.8a6.14,6.14,0,0,0,6.14,6.14h35.74a6.14,6.14,0,0,0,6.14-6.14v-13.4a1.68,1.68,0,0,0-3.35,0v5.86H469.36V91.54a2.79,2.79,0,0,1,2.79-2.79h35.74a2.8,2.8,0,0,1,2.79,2.79V96A1.68,1.68,0,0,0,514,96"/><path class="cls-22" d="M655.59,109.51a1.67,1.67,0,0,1,0-3.33h18.17a1.67,1.67,0,1,1,0,3.33Zm0,8.89a1.67,1.67,0,0,1,0-3.33h18.17a1.67,1.67,0,1,1,0,3.33ZM648,87.13a2.5,2.5,0,0,0-2.68,2.26v5a.19.19,0,0,0,.2.2h25.58a.19.19,0,0,0,.2-.2V89.81a5.9,5.9,0,0,1,.49-2.38.45.45,0,0,0,0-.2.19.19,0,0,0-.17-.1Zm1.67,10.72a.19.19,0,0,0-.2.19v24.15a4.56,4.56,0,0,0,4.54,4.54h26.3a.18.18,0,0,0,.17-.1.21.21,0,0,0,0-.19,6,6,0,0,1-.49-2.39V89.81a2.68,2.68,0,0,0-5.36,0v6.34a1.77,1.77,0,0,1-1.86,1.7Zm33.85,20.45a.19.19,0,0,0-.2.2v5.58a2.68,2.68,0,1,0,5.36,0V118.5a.19.19,0,0,0-.2-.2ZM654,130.06a7.87,7.87,0,0,1-7.84-7.84V98a.19.19,0,0,0-.2-.19h-2.09a1.8,1.8,0,0,1-1.86-1.7V89.39a5.8,5.8,0,0,1,6-5.59h29.31a6,6,0,0,1,6,6v25a.19.19,0,0,0,.19.2H690a1.85,1.85,0,0,1,1.87,1.86v7.22a6,6,0,0,1-6,6Z"/><path class="cls-22" d="M847.31,80.85h-.54a22.25,22.25,0,1,0,.54,0m0,45.94a24.32,24.32,0,1,1,17.62-7.55,24.26,24.26,0,0,1-17.62,7.55"/><path class="cls-22" d="M859.49,97.35a13,13,0,0,1,1,4.79,13.23,13.23,0,0,1-18.33,12.51l-2.05,2a15.94,15.94,0,0,0,21.4-21.39Zm-24.4,10.17a13.23,13.23,0,0,1,2.64-14.17l.24-.24a13.22,13.22,0,0,1,14.39-2.86l2-2a15.92,15.92,0,0,0-7.48-1.67,16,16,0,0,0-13.88,23Zm28.85,13.59,7.22,6.88a1.78,1.78,0,1,0,2.45-2.58l-7.21-6.88c-.39.47-.78.91-1.18,1.34s-.83.84-1.28,1.24m8.45,10.08a4.48,4.48,0,0,1-3.1-1.24l-9.44-9,1.22-1a22,22,0,0,0,2.18-2,21.38,21.38,0,0,0,1.89-2.28l.91-1.27,9.44,9a4.5,4.5,0,0,1,1.39,3.15,4.51,4.51,0,0,1-4.49,4.6"/><path class="cls-22" d="M845.28,95.53l11.84-3.91.38,1.15-11.84,3.91Zm-9,16,11.84-3.91.39,1.15-11.85,3.91Z"/><rect class="cls-22" x="847.02" y="95.85" width="1.21" height="12.47" transform="translate(-5.98 117.87) rotate(-7.93)"/><line class="cls-26" x1="10.22" y1="108.73" x2="100.12" y2="108.73"/><path class="cls-27" d="M103.22,108.73h0m-99.2,0H4"/><polygon class="cls-28" points="113.48 108.73 97.21 102.81 97.21 114.65 113.48 108.73"/><line class="cls-26" x1="188.23" y1="108.73" x2="278.12" y2="108.73"/><path class="cls-27" d="M281.22,108.73h0m-99.19,0h0"/><polygon class="cls-28" points="291.49 108.73 275.22 102.81 275.22 114.66 291.49 108.73"/><line class="cls-26" x1="708.04" y1="108.73" x2="797.94" y2="108.73"/><path class="cls-27" d="M801,108.73h0m-99.2,0h0"/><polygon class="cls-28" points="811.3 108.73 795.03 102.81 795.03 114.66 811.3 108.73"/><line class="cls-26" x1="353.6" y1="108.73" x2="443.49" y2="108.73"/><path class="cls-27" d="M446.59,108.73h0m-99.19,0h0"/><polygon class="cls-28" points="456.86 108.73 440.58 102.81 440.58 114.66 456.86 108.73"/><line class="cls-26" x1="531.17" y1="108.73" x2="621.06" y2="108.73"/><path class="cls-27" d="M624.16,108.73h0m-99.19,0h0"/><polygon class="cls-28" points="634.43 108.73 618.15 102.81 618.15 114.66 634.43 108.73"/><line class="cls-2" x1="394.48" y1="52.32" x2="394.48" y2="77.57"/><line class="cls-2" x1="228.55" y1="123.95" x2="228.55" y2="152.79"/><line class="cls-29" x1="78.72" y1="180.57" x2="466.01" y2="180.57"/><line class="cls-29" x1="78.72" y1="204.86" x2="466.01" y2="204.86"/><line class="cls-29" x1="78.72" y1="228.66" x2="466.01" y2="228.66"/></g></g></svg>