<svg xmlns="http://www.w3.org/2000/svg" viewBox="0 0 727.45 882.76"><defs><style>.cls-1{fill:#ff6c2f;}.cls-2,.cls-3,.cls-32,.cls-6,.cls-77,.cls-86,.cls-91{font-size:11.57px;}.cls-2{fill:#fff;}.cls-2,.cls-32,.cls-6,.cls-77,.cls-86,.cls-91{font-family:PingFangSC-Regular-GBpc-EUC-H, PingFang SC;}.cls-3,.cls-32,.cls-6,.cls-77,.cls-86,.cls-91{fill:#3e3a39;}.cls-3{font-family:PingFangSC-Semibold-GBpc-EUC-H, PingFang SC;}.cls-4{letter-spacing:0.25em;}.cls-5{letter-spacing:0em;}.cls-7{letter-spacing:-0.03em;}.cls-8{letter-spacing:-0.04em;}.cls-9{letter-spacing:0.34em;}.cls-10{letter-spacing:0.34em;}.cls-11{letter-spacing:0em;}.cls-12,.cls-77{letter-spacing:0.25em;}.cls-13{letter-spacing:-0.03em;}.cls-14{letter-spacing:-0.01em;}.cls-15{letter-spacing:0.25em;}.cls-16{letter-spacing:-0.05em;}.cls-17{letter-spacing:0.12em;}.cls-18{letter-spacing:-0.5em;}.cls-19{letter-spacing:0.25em;}.cls-20{letter-spacing:0.06em;}.cls-21{letter-spacing:0em;}.cls-22{letter-spacing:0.25em;}.cls-23{letter-spacing:0.18em;}.cls-24{letter-spacing:-0.26em;}.cls-25{letter-spacing:-0.13em;}.cls-26{letter-spacing:0.01em;}.cls-27{letter-spacing:0.02em;}.cls-28{letter-spacing:0.02em;}.cls-29,.cls-32{letter-spacing:0.02em;}.cls-30{letter-spacing:0.02em;}.cls-31{letter-spacing:0.06em;}.cls-33,.cls-91{letter-spacing:0.01em;}.cls-34{letter-spacing:0.02em;}.cls-35{letter-spacing:0.02em;}.cls-36{letter-spacing:0.26em;}.cls-37{letter-spacing:0.02em;}.cls-38{letter-spacing:0.02em;}.cls-39{letter-spacing:0.02em;}.cls-40{letter-spacing:0em;}.cls-41{letter-spacing:0em;}.cls-42{letter-spacing:0em;}.cls-43{letter-spacing:0.01em;}.cls-44{letter-spacing:0.01em;}.cls-45{letter-spacing:0.01em;}.cls-46{letter-spacing:0.01em;}.cls-47{letter-spacing:0.25em;}.cls-48{letter-spacing:0.25em;}.cls-49{letter-spacing:0.25em;}.cls-50{letter-spacing:0.01em;}.cls-51{letter-spacing:0.01em;}.cls-52{letter-spacing:0.01em;}.cls-53{letter-spacing:-0.06em;}.cls-54{letter-spacing:0.19em;}.cls-55{letter-spacing:-0.06em;}.cls-56{letter-spacing:-0.22em;}.cls-57{letter-spacing:-0.45em;}.cls-58{letter-spacing:-0.45em;}.cls-59{letter-spacing:0.14em;}.cls-60{letter-spacing:-0.22em;}.cls-61{letter-spacing:-0.16em;}.cls-62{letter-spacing:-0.32em;}.cls-63{letter-spacing:-0.32em;}.cls-64{letter-spacing:0.17em;}.cls-65{letter-spacing:0.25em;}.cls-66{letter-spacing:-0.01em;}.cls-67{letter-spacing:-0.01em;}.cls-68{letter-spacing:0.06em;}.cls-69{letter-spacing:0.06em;}.cls-70{letter-spacing:0.02em;}.cls-71{letter-spacing:0.02em;}.cls-72{letter-spacing:0.02em;}.cls-73{letter-spacing:0.02em;}.cls-74{letter-spacing:0.25em;}.cls-75{letter-spacing:0.02em;}.cls-76{letter-spacing:0.25em;}.cls-78{letter-spacing:-0.41em;}.cls-79{letter-spacing:-0.12em;}.cls-80{letter-spacing:-0.24em;}.cls-81{letter-spacing:0em;}.cls-82{letter-spacing:-0.01em;}.cls-83,.cls-86{letter-spacing:-0.02em;}.cls-84{letter-spacing:0.23em;}.cls-85{letter-spacing:0.23em;}.cls-87{letter-spacing:-0.07em;}.cls-88{letter-spacing:0.2em;}.cls-89{letter-spacing:-0.12em;}.cls-90{letter-spacing:-0.02em;}.cls-92{letter-spacing:0.24em;}.cls-93{letter-spacing:-0.02em;}.cls-94{letter-spacing:0.01em;}.cls-95{letter-spacing:0.01em;}.cls-96,.cls-97{fill:none;stroke:#ff6c2f;stroke-miterlimit:10;}.cls-96{stroke-width:2px;}.cls-98{fill:#e16937;}</style></defs><title>资源 1</title><g id="图层_2" data-name="图层 2"><g id="图层_1-2" data-name="图层 1"><rect class="cls-1" width="726.27" height="24.18"/><text class="cls-2" transform="translate(5.03 16.49)">样本类型</text><text class="cls-2" transform="translate(126.91 15.67)">储存容器</text><text class="cls-2" transform="translate(234.68 15.67)">采样要求</text><text class="cls-2" transform="translate(526.28 15.67)">保存与运输</text><text class="cls-3" transform="translate(5.03 43.3)">DNA</text><text class="cls-3" transform="translate(5.03 131.74)">外周血</text><text class="cls-3" transform="translate(5.03 214.52)">口腔黏膜细胞</text><text class="cls-3" transform="translate(5.03 316.09)">足跟血</text><text class="cls-3" transform="translate(5.03 390.46)">流产绒毛或脐带组织</text><text class="cls-3" transform="translate(5.03 473.16)">羊水</text><text class="cls-3" transform="translate(5.03 560.54)">石蜡切片</text><text class="cls-3" transform="translate(5.03 659.77)">新<tspan class="cls-4" x="11.57" y="0">鲜/</tspan><tspan class="cls-5" x="34.71" y="0">冰冻组织样本</tspan></text><text class="cls-3" transform="translate(5.03 760.17)">血浆</text><text class="cls-3" transform="translate(5.03 832.46)">脑脊液</text><text class="cls-3" transform="translate(5.03 797.65)">尿液</text><text class="cls-6" transform="translate(126.91 43.31)">离心管</text><text class="cls-6" transform="translate(126.91 131.76)">E<tspan class="cls-7" x="7.37" y="0">D</tspan><tspan class="cls-8" x="15.24" y="0">T</tspan><tspan class="cls-9" x="21.89" y="0">A</tspan><tspan class="cls-10" x="33.38" y="0">抗凝</tspan><tspan x="64.51" y="0">管</tspan></text><text class="cls-6" transform="translate(126.91 148.29)">（紫色头盖）</text><text class="cls-6" transform="translate(126.91 214.55)">口腔黏膜采集器</text><text class="cls-6" transform="translate(126.91 316.12)">干血片</text><text class="cls-6" transform="translate(126.91 390.48)">离心管</text><text class="cls-6" transform="translate(126.91 473.18)">离心管</text><text class="cls-6" transform="translate(126.91 560.56)">保存盒</text><text class="cls-6" transform="translate(126.91 659.8)">冻存管（含</text><text class="cls-6" transform="translate(126.91 676.33)"><tspan class="cls-11">z</tspan><tspan x="5.6" y="0">ym</tspan><tspan class="cls-12" x="21.23" y="0">o</tspan><tspan class="cls-5" x="30.91" y="0">保护液）</tspan></text><text class="cls-6" transform="translate(126.91 761.36)"><tspan class="cls-13">S</tspan><tspan x="7.02" y="0">t</tspan><tspan class="cls-14" x="11.13" y="0">r</tspan><tspan x="15.24" y="0">ec</tspan><tspan class="cls-15" x="27.99" y="0">k</tspan><tspan x="36.99" y="0">管</tspan></text><text class="cls-6" transform="translate(126.91 832.48)">E<tspan class="cls-7" x="7.37" y="0">D</tspan><tspan class="cls-16" x="15.24" y="0">T</tspan><tspan class="cls-17" x="21.88" y="0">A</tspan><tspan class="cls-5" x="30.92" y="0">抗凝</tspan><tspan class="cls-18" x="54.06" y="0">管</tspan><tspan x="59.84" y="0">（紫</tspan></text><text class="cls-6" transform="translate(126.91 849.01)">色头盖）</text><text class="cls-6" transform="translate(126.91 797.68)">采集管</text><text class="cls-6" transform="translate(234.68 43.33)">总量至<tspan class="cls-12" x="34.71" y="0">少</tspan><tspan x="49.18" y="0">3μg，O</tspan><tspan class="cls-15" x="89.88" y="0">D</tspan><tspan class="cls-12" x="100.93" y="0">值</tspan><tspan x="115.4" y="0">260/28</tspan><tspan class="cls-15" x="155.89" y="0">0</tspan><tspan class="cls-19" x="165.72" y="0">为</tspan><tspan x="180.18" y="0">1.8-2.0，浓度达</tspan></text><text class="cls-6" transform="translate(234.68 59.87)"><tspan class="cls-12">到</tspan><tspan x="14.46" y="0">30n</tspan><tspan class="cls-20" x="34.82" y="0">g</tspan><tspan class="cls-21" x="42.3" y="0">/μl</tspan></text><text class="cls-6" transform="translate(234.68 131.78)">3-5ml；轻轻上下颠<tspan class="cls-12" x="102.92" y="0">倒</tspan><tspan class="cls-21" x="117.39" y="0">1</tspan><tspan class="cls-22" x="122.03" y="0">0</tspan><tspan class="cls-21" x="131.85" y="0">次，防止血凝。</tspan></text><text class="cls-6" transform="translate(234.68 148.31)">（流产物母亲外周血及新生儿外周<tspan class="cls-12" x="173.56" y="0">血</tspan><tspan x="188.03" y="0">2-3ml）</tspan></text><text class="cls-6" transform="translate(234.68 214.57)">采样<tspan class="cls-23" x="23.14" y="0">前</tspan><tspan x="36.84" y="0">3</tspan><tspan class="cls-23" x="43.78" y="0">0</tspan><tspan class="cls-21" x="52.86" y="0">分钟</tspan><tspan class="cls-24" x="76" y="0">，</tspan><tspan class="cls-21" x="84.56" y="0">请勿进食</tspan><tspan class="cls-24" x="130.84" y="0">、</tspan><tspan class="cls-21" x="139.41" y="0">饮水</tspan><tspan class="cls-24" x="162.55" y="0">、</tspan><tspan class="cls-21" x="171.11" y="0">抽烟及嚼口香</tspan><tspan class="cls-25" x="240.54" y="0">糖</tspan><tspan class="cls-21" x="250.6" y="0">；</tspan></text><text class="cls-6" transform="translate(234.68 231.1)"><tspan class="cls-26">小</tspan><tspan class="cls-27" x="11.73" y="0">心</tspan><tspan class="cls-26" x="23.48" y="0">将采样拭</tspan><tspan class="cls-27" x="70.41" y="0">子</tspan><tspan class="cls-26" x="82.15" y="0">放入</tspan><tspan class="cls-27" x="105.62" y="0">口</tspan><tspan class="cls-21" x="117.36" y="0">中</tspan><tspan class="cls-26" x="128.93" y="0">，在两颊</tspan><tspan class="cls-27" x="175.87" y="0">内</tspan><tspan class="cls-26" x="187.61" y="0">侧各</tspan><tspan class="cls-28" x="211.08" y="0">旋</tspan><tspan class="cls-26" x="222.82" y="0">转刮</tspan><tspan x="246.29" y="0">拭</tspan></text><text class="cls-6" transform="translate(234.68 247.64)">2<tspan class="cls-12" x="6.94" y="0">0</tspan><tspan class="cls-21" x="16.78" y="0">次；</tspan></text><text class="cls-6" transform="translate(234.68 264.17)">采样完毕后将拭子伸入采样管，沿折痕折断；</text><text class="cls-6" transform="translate(234.68 280.71)">拧紧采样管盖，采样完成。</text><text class="cls-6" transform="translate(234.68 316.16)"><tspan class="cls-29">将</tspan><tspan class="cls-27" x="11.76" y="0">采</tspan><tspan class="cls-29" x="23.5" y="0">血针置于</tspan><tspan class="cls-28" x="70.52" y="0">已</tspan><tspan class="cls-29" x="82.27" y="0">消毒</tspan><tspan class="cls-27" x="105.78" y="0">的</tspan><tspan class="cls-29" x="117.53" y="0">足跟</tspan><tspan x="141.04" y="0">上</tspan><tspan class="cls-29" x="152.61" y="0">，用</tspan><tspan class="cls-27" x="176.12" y="0">力</tspan><tspan class="cls-29" x="187.87" y="0">按下</tspan><tspan class="cls-27" x="211.38" y="0">按</tspan><tspan class="cls-21" x="223.12" y="0">钮</tspan><tspan class="cls-30" x="234.69" y="0">，</tspan><tspan class="cls-21" x="246.45" y="0">进</tspan></text><text class="cls-6" transform="translate(234.68 332.7)"><tspan class="cls-29">行</tspan><tspan class="cls-27" x="11.76" y="0">采</tspan><tspan class="cls-21" x="23.5" y="0">血</tspan><tspan class="cls-29" x="35.07" y="0">。将血</tspan><tspan class="cls-28" x="70.34" y="0">滴</tspan><tspan class="cls-30" x="82.08" y="0">自然</tspan><tspan class="cls-28" x="105.6" y="0">低</tspan><tspan class="cls-30" x="117.34" y="0">落到采血</tspan><tspan class="cls-27" x="164.36" y="0">卡</tspan><tspan class="cls-29" x="176.11" y="0">的三</tspan><tspan class="cls-27" x="199.62" y="0">个</tspan><tspan class="cls-29" x="211.37" y="0">圆圈</tspan><tspan x="234.88" y="0">内，</tspan></text><text class="cls-6" transform="translate(234.68 349.23)">全部填满后将干血片风<tspan class="cls-12" x="115.71" y="0">干</tspan><tspan class="cls-21" x="130.17" y="0">1</tspan><tspan class="cls-12" x="134.81" y="0">0</tspan><tspan x="144.65" y="0">分钟，采样完成。</tspan></text><text class="cls-6" transform="translate(234.68 390.54)">取绒毛、胚胎或胎儿的组织<tspan class="cls-12" x="138.85" y="0">约</tspan><tspan x="153.31" y="0">50~200</tspan><tspan class="cls-31" x="193.81" y="0"> </tspan><tspan x="198.38" y="0">mg（黄豆般</tspan></text><text class="cls-32" transform="translate(234.68 407.07)">大<tspan class="cls-33" x="11.76" y="0">小</tspan><tspan x="23.41" y="0">）</tspan><tspan class="cls-27" x="35.16" y="0">并</tspan><tspan x="46.91" y="0">用生理盐</tspan><tspan class="cls-27" x="93.93" y="0">水</tspan><tspan x="105.68" y="0">清洗</tspan><tspan class="cls-27" x="129.19" y="0">干</tspan><tspan class="cls-21" x="140.93" y="0">净</tspan><tspan class="cls-30" x="152.5" y="0">，尽可能</tspan><tspan class="cls-27" x="199.53" y="0">去</tspan><tspan x="211.27" y="0">除孕</tspan><tspan class="cls-27" x="234.79" y="0">妇</tspan><tspan class="cls-21" x="246.53" y="0">血</tspan></text><text class="cls-6" transform="translate(234.68 423.61)"><tspan class="cls-34">液</tspan><tspan class="cls-35" x="11.81" y="0">或子</tspan><tspan class="cls-36" x="35.46" y="0">宫/</tspan><tspan class="cls-37" x="58.72" y="0">生</tspan><tspan class="cls-34" x="70.55" y="0">殖</tspan><tspan class="cls-35" x="82.36" y="0">道</tspan><tspan class="cls-34" x="94.19" y="0">脱</tspan><tspan class="cls-35" x="106" y="0">落</tspan><tspan class="cls-34" x="117.83" y="0">细</tspan><tspan class="cls-35" x="129.64" y="0">胞</tspan><tspan class="cls-34" x="141.47" y="0">的</tspan><tspan class="cls-35" x="153.28" y="0">污</tspan><tspan class="cls-21" x="165.11" y="0">染</tspan><tspan class="cls-38" x="176.68" y="0">，</tspan><tspan class="cls-39" x="188.49" y="0">清</tspan><tspan class="cls-38" x="200.32" y="0">洗</tspan><tspan class="cls-39" x="212.13" y="0">后</tspan><tspan class="cls-38" x="223.96" y="0">干</tspan><tspan class="cls-39" x="235.77" y="0">净</tspan><tspan x="247.59" y="0">组</tspan></text><text class="cls-6" transform="translate(234.68 440.14)">织放入无菌<tspan class="cls-4" x="57.85" y="0">含</tspan><tspan x="72.32" y="0">1m</tspan><tspan class="cls-12" x="86.85" y="0">l</tspan><tspan class="cls-5" x="92.46" y="0">保存液</tspan><tspan class="cls-12" x="127.18" y="0">的</tspan><tspan class="cls-21" x="141.64" y="0">1.5-2m</tspan><tspan class="cls-22" x="180.11" y="0">l</tspan><tspan x="185.71" y="0">离心管中。</tspan></text><text class="cls-6" transform="translate(234.68 473.25)"><tspan class="cls-40">采</tspan><tspan class="cls-41" x="11.61" y="0">集</tspan><tspan class="cls-40" x="23.2" y="0">至</tspan><tspan class="cls-12" x="34.81" y="0">少</tspan><tspan x="49.27" y="0">5m</tspan><tspan class="cls-12" x="66.1" y="0">l</tspan><tspan class="cls-42" x="71.72" y="0">羊水样</tspan><tspan x="106.53" y="0">本</tspan><tspan class="cls-40" x="118.1" y="0">，</tspan><tspan class="cls-41" x="129.71" y="0">注</tspan><tspan class="cls-40" x="141.3" y="0">意采</tspan><tspan class="cls-41" x="164.52" y="0">集</tspan><tspan class="cls-40" x="176.11" y="0">过程中尽</tspan><tspan class="cls-41" x="222.53" y="0">可</tspan><tspan class="cls-40" x="234.13" y="0">能</tspan><tspan x="245.73" y="0">避</tspan></text><text class="cls-6" transform="translate(234.68 489.78)"><tspan class="cls-43">免</tspan><tspan class="cls-44" x="11.7" y="0">母</tspan><tspan class="cls-43" x="23.38" y="0">亲血液的</tspan><tspan class="cls-44" x="70.18" y="0">污</tspan><tspan class="cls-21" x="81.86" y="0">染</tspan><tspan class="cls-45" x="93.44" y="0">，可</tspan><tspan class="cls-46" x="116.83" y="0">将</tspan><tspan class="cls-47" x="128.52" y="0">前</tspan><tspan x="143.01" y="0">1-2m</tspan><tspan class="cls-48" x="171.48" y="0">l</tspan><tspan class="cls-43" x="177.12" y="0">羊水遗</tspan><tspan x="212.21" y="0">弃</tspan><tspan class="cls-43" x="223.78" y="0">，</tspan><tspan class="cls-46" x="235.48" y="0">收</tspan><tspan x="247.17" y="0">集</tspan></text><text class="cls-6" transform="translate(234.68 506.32)"><tspan class="cls-33">之后立</tspan><tspan class="cls-49" x="34.96" y="0">即</tspan><tspan class="cls-21" x="49.43" y="0">3000rp</tspan><tspan class="cls-48" x="88.2" y="0">m</tspan><tspan class="cls-33" x="101.01" y="0">离</tspan><tspan class="cls-47" x="112.67" y="0">心</tspan><tspan x="127.15" y="0">1</tspan><tspan class="cls-47" x="131.79" y="0">0</tspan><tspan class="cls-33" x="141.65" y="0">分</tspan><tspan x="153.3" y="0">钟</tspan><tspan class="cls-50" x="164.87" y="0">，</tspan><tspan class="cls-33" x="176.54" y="0">上</tspan><tspan class="cls-50" x="188.19" y="0">清</tspan><tspan class="cls-33" x="199.85" y="0">遗</tspan><tspan class="cls-21" x="211.5" y="0">弃</tspan><tspan class="cls-51" x="223.07" y="0">，</tspan><tspan class="cls-52" x="234.74" y="0">然</tspan><tspan x="246.39" y="0">后</tspan></text><text class="cls-6" transform="translate(234.68 522.85)">加<tspan class="cls-4" x="11.57" y="0">入</tspan><tspan x="26.03" y="0">1m</tspan><tspan class="cls-12" x="40.57" y="0">l</tspan><tspan class="cls-5" x="46.18" y="0">保存液悬浮后转移</tspan><tspan class="cls-12" x="138.75" y="0">至</tspan><tspan x="153.21" y="0">1.5-2m</tspan><tspan class="cls-22" x="191.68" y="0">l</tspan><tspan class="cls-21" x="197.28" y="0">离心管中。</tspan></text><text class="cls-6" transform="translate(234.68 560.64)">1. 石蜡块：<tspan class="cls-15" x="57.83" y="0">1</tspan><tspan x="65.35" y="0">块，至少</tspan><tspan class="cls-12" x="111.64" y="0">含</tspan><tspan class="cls-15" x="126.1" y="0">1</tspan><tspan class="cls-12" x="133.62" y="0">张</tspan><tspan x="148.08" y="0">H</tspan><tspan class="cls-12" x="156.41" y="0">E</tspan><tspan class="cls-5" x="166.68" y="0">染色切片</tspan></text><text class="cls-6" transform="translate(234.68 577.18)">2. 石蜡切<tspan class="cls-12" x="48.56" y="0">片</tspan><tspan class="cls-22" x="63.03" y="0">/</tspan><tspan x="71.69" y="0">卷片：至</tspan><tspan class="cls-12" x="117.98" y="0">少</tspan><tspan class="cls-21" x="132.44" y="0">1</tspan><tspan class="cls-22" x="137.08" y="0">0</tspan><tspan class="cls-21" x="146.9" y="0">张</tspan><tspan class="cls-53" x="158.47" y="0">，厚度不低</tspan><tspan class="cls-54" x="212.92" y="0">于</tspan><tspan class="cls-53" x="226.69" y="0">5</tspan><tspan class="cls-55" x="232.95" y="0">μ</tspan><tspan class="cls-53" x="238.73" y="0">m</tspan><tspan x="247.94" y="0">，</tspan></text><text class="cls-6" transform="translate(234.68 593.71)">至少<tspan class="cls-12" x="23.14" y="0">含</tspan><tspan class="cls-15" x="37.61" y="0">1</tspan><tspan class="cls-12" x="45.13" y="0">张</tspan><tspan x="59.59" y="0">H</tspan><tspan class="cls-12" x="67.92" y="0">E</tspan><tspan class="cls-5" x="78.18" y="0">染色切片；</tspan></text><text class="cls-6" transform="translate(234.68 610.25)">3. 穿刺石蜡贴<tspan class="cls-4" x="71.7" y="0">片</tspan><tspan class="cls-22" x="86.17" y="0">/</tspan><tspan x="94.83" y="0">卷片：15-2</tspan><tspan class="cls-15" x="155.07" y="0">0</tspan><tspan class="cls-5" x="164.9" y="0">张；至少</tspan><tspan class="cls-12" x="211.18" y="0">含</tspan><tspan class="cls-22" x="225.64" y="0">1</tspan><tspan class="cls-4" x="233.16" y="0">张</tspan><tspan x="247.63" y="0">HE</tspan></text><text class="cls-6" transform="translate(234.68 626.78)">染色切片</text><text class="cls-6" transform="translate(234.68 659.89)">1. 手术组<tspan class="cls-56" x="46.26" y="0">织：</tspan><tspan x="64.24" y="0">50m</tspan><tspan class="cls-57" x="88.02" y="0">g</tspan><tspan class="cls-21" x="89.7" y="0">（绿豆大小</tspan><tspan class="cls-57" x="147.55" y="0">）</tspan><tspan class="cls-58" x="153.96" y="0">，</tspan><tspan class="cls-21" x="160.36" y="0">肿瘤比</tspan><tspan class="cls-59" x="195.07" y="0">例</tspan><tspan x="208.24" y="0">50</tspan><tspan class="cls-59" x="222.13" y="0">%</tspan><tspan x="234.95" y="0">以</tspan><tspan class="cls-60" x="246.52" y="0">上</tspan><tspan x="255.51" y="0">；</tspan></text><text class="cls-6" transform="translate(234.68 676.42)">2. 新鲜穿刺组<tspan class="cls-61" x="71.7" y="0">织：</tspan><tspan class="cls-21" x="91.17" y="0">穿刺活</tspan><tspan class="cls-62" x="125.88" y="0">检</tspan><tspan x="133.77" y="0">（长度</tspan><tspan class="cls-62" x="168.48" y="0">）</tspan><tspan class="cls-21" x="176.38" y="0">1cm</tspan><tspan class="cls-63" x="197.24" y="0">），</tspan><tspan class="cls-64" x="213.02" y="0">2</tspan><tspan x="221.93" y="0">条以上，</tspan></text><text class="cls-6" transform="translate(234.68 692.96)">肿瘤比<tspan class="cls-12" x="34.71" y="0">例</tspan><tspan x="49.18" y="0">50</tspan><tspan class="cls-12" x="63.06" y="0">%</tspan><tspan x="77.18" y="0">以上</tspan></text><text class="cls-6" transform="translate(234.68 709.49)">3. 甲醛固定新鲜组<tspan class="cls-11" x="94.85" y="0">织：</tspan><tspan class="cls-65" x="117.92" y="0">1</tspan><tspan class="cls-21" x="125.43" y="0">块</tspan><tspan class="cls-66" x="137" y="0">，</tspan><tspan class="cls-65" x="148.5" y="0">约</tspan><tspan class="cls-21" x="162.94" y="0">25m</tspan><tspan class="cls-67" x="186.72" y="0">g</tspan><tspan class="cls-21" x="193.49" y="0">（绿豆大小）</tspan></text><text class="cls-6" transform="translate(234.68 760.3)">10m<tspan class="cls-19" x="21.48" y="0">l</tspan><tspan x="27.09" y="0">外周血</tspan></text><text class="cls-6" transform="translate(234.68 832.58)">6m<tspan class="cls-12" x="16.84" y="0">l</tspan><tspan class="cls-5" x="22.45" y="0">脑脊液（腰椎穿刺、开颅、脑部引流）</tspan></text><text class="cls-6" transform="translate(234.68 797.78)">40m<tspan class="cls-19" x="23.78" y="0">l</tspan><tspan x="29.39" y="0">晨起中段尿样</tspan></text><text class="cls-6" transform="translate(526.28 43.43)"><tspan class="cls-68">运</tspan><tspan x="12.22" y="0">输</tspan><tspan class="cls-69" x="23.79" y="0">：冰</tspan><tspan class="cls-68" x="48.2" y="0">袋或</tspan><tspan class="cls-69" x="72.64" y="0">干冰</tspan><tspan class="cls-68" x="97.06" y="0">运</tspan><tspan x="109.28" y="0">输</tspan><tspan class="cls-68" x="120.85" y="0">，</tspan><tspan class="cls-69" x="133.07" y="0">严密</tspan><tspan class="cls-68" x="157.48" y="0">包</tspan><tspan x="169.7" y="0">装，</tspan></text><text class="cls-6" transform="translate(526.28 59.97)">防止污染。</text><text class="cls-6" transform="translate(526.28 76.51)"><tspan class="cls-70">保</tspan><tspan class="cls-21" x="11.8" y="0">存：-2</tspan><tspan class="cls-71" x="48.89" y="0">0</tspan><tspan class="cls-72" x="56.05" y="0">℃保</tspan><tspan x="78.75" y="0">存</tspan><tspan class="cls-73" x="90.32" y="0">，不超</tspan><tspan class="cls-74" x="125.73" y="0">过2</tspan><tspan class="cls-21" x="150.12" y="0">年</tspan><tspan class="cls-70" x="161.69" y="0">，反</tspan><tspan x="185.3" y="0">复</tspan></text><text class="cls-6" transform="translate(526.28 93.04)">冻融不超<tspan class="cls-12" x="46.28" y="0">过</tspan><tspan class="cls-15" x="60.75" y="0">5</tspan><tspan x="70.57" y="0">次。</tspan></text><text class="cls-6" transform="translate(526.28 131.89)"><tspan class="cls-68">运</tspan><tspan x="12.22" y="0">输</tspan><tspan class="cls-69" x="23.79" y="0">：室</tspan><tspan class="cls-68" x="48.2" y="0">温或</tspan><tspan class="cls-69" x="72.64" y="0">冰袋</tspan><tspan class="cls-68" x="97.06" y="0">运</tspan><tspan x="109.28" y="0">输</tspan><tspan class="cls-68" x="120.85" y="0">，</tspan><tspan class="cls-69" x="133.07" y="0">严密</tspan><tspan class="cls-68" x="157.48" y="0">包</tspan><tspan x="169.7" y="0">装，</tspan></text><text class="cls-6" transform="translate(526.28 148.43)">防止污染。</text><text class="cls-6" transform="translate(526.28 164.96)"><tspan class="cls-75">保</tspan><tspan x="11.78" y="0">存：2-</tspan><tspan class="cls-75" x="48.86" y="0">8℃可存</tspan><tspan class="cls-76" x="90.45" y="0">放1</tspan><tspan x="112.54" y="0">周</tspan><tspan class="cls-75" x="124.11" y="0">，更长时间</tspan><tspan class="cls-21" x="183.01" y="0">采</tspan></text><text class="cls-77" transform="translate(526.28 181.5)">用<tspan class="cls-21" x="14.46" y="0">-20℃保存。</tspan></text><text class="cls-6" transform="translate(526.28 214.7)">常温保存和运输<tspan class="cls-78" x="81" y="0">，</tspan><tspan x="87.81" y="0">严密包装</tspan><tspan class="cls-78" x="134.1" y="0">，</tspan><tspan class="cls-21" x="140.91" y="0">防止污染。</tspan></text><text class="cls-6" transform="translate(526.28 316.27)">冰袋运输，严密包装，防止污染。</text><text class="cls-6" transform="translate(526.28 390.63)"><tspan class="cls-68">运</tspan><tspan x="12.22" y="0">输</tspan><tspan class="cls-69" x="23.79" y="0">：室</tspan><tspan class="cls-68" x="48.2" y="0">温或</tspan><tspan class="cls-69" x="72.64" y="0">冰袋</tspan><tspan class="cls-68" x="97.06" y="0">运</tspan><tspan x="109.28" y="0">输</tspan><tspan class="cls-68" x="120.85" y="0">，</tspan><tspan class="cls-69" x="133.07" y="0">严密</tspan><tspan class="cls-68" x="157.48" y="0">包</tspan><tspan x="169.7" y="0">装，</tspan></text><text class="cls-6" transform="translate(526.28 407.17)">防止污染。</text><text class="cls-6" transform="translate(526.28 423.7)"><tspan class="cls-75">保</tspan><tspan x="11.78" y="0">存：2-</tspan><tspan class="cls-75" x="48.86" y="0">8℃可存</tspan><tspan class="cls-76" x="90.45" y="0">放1</tspan><tspan x="112.54" y="0">周</tspan><tspan class="cls-75" x="124.11" y="0">，更长时间</tspan><tspan class="cls-21" x="183.01" y="0">采</tspan></text><text class="cls-77" transform="translate(526.28 440.24)">用<tspan class="cls-21" x="14.46" y="0">-20℃保存。</tspan></text><text class="cls-6" transform="translate(526.28 473.34)"><tspan class="cls-68">运</tspan><tspan x="12.22" y="0">输</tspan><tspan class="cls-69" x="23.79" y="0">：室</tspan><tspan class="cls-68" x="48.2" y="0">温或</tspan><tspan class="cls-69" x="72.64" y="0">冰袋</tspan><tspan class="cls-68" x="97.06" y="0">运</tspan><tspan x="109.28" y="0">输</tspan><tspan class="cls-68" x="120.85" y="0">，</tspan><tspan class="cls-69" x="133.07" y="0">严密</tspan><tspan class="cls-68" x="157.48" y="0">包</tspan><tspan x="169.7" y="0">装，</tspan></text><text class="cls-6" transform="translate(526.28 489.88)">防止污染。</text><text class="cls-6" transform="translate(526.28 506.41)"><tspan class="cls-75">保</tspan><tspan x="11.78" y="0">存：2-</tspan><tspan class="cls-75" x="48.86" y="0">8℃可存</tspan><tspan class="cls-76" x="90.45" y="0">放1</tspan><tspan x="112.54" y="0">周</tspan><tspan class="cls-75" x="124.11" y="0">，更长时间</tspan><tspan class="cls-21" x="183.01" y="0">采</tspan></text><text class="cls-77" transform="translate(526.28 522.95)">用<tspan class="cls-21" x="14.46" y="0">-20℃保存。</tspan></text><text class="cls-6" transform="translate(526.28 560.74)">运<tspan class="cls-79" x="11.57" y="0">输：</tspan><tspan class="cls-21" x="31.98" y="0">常温运</tspan><tspan class="cls-54" x="66.69" y="0">输,</tspan><tspan class="cls-21" x="85.72" y="0">严密包装</tspan><tspan class="cls-80" x="132" y="0">，</tspan><tspan class="cls-21" x="140.83" y="0">防止污染。</tspan></text><text class="cls-6" transform="translate(526.28 577.27)">保存：可存放于室温（25℃以下）</text><text class="cls-6" transform="translate(526.28 659.97)">运<tspan class="cls-79" x="11.57" y="0">输：</tspan><tspan class="cls-21" x="31.98" y="0">干冰运</tspan><tspan class="cls-54" x="66.69" y="0">输,</tspan><tspan class="cls-21" x="85.72" y="0">严密包装</tspan><tspan class="cls-80" x="132" y="0">，</tspan><tspan class="cls-21" x="140.83" y="0">防止污染。</tspan></text><text class="cls-6" transform="translate(526.28 676.5)">保<tspan class="cls-81" x="11.57" y="0">存：</tspan><tspan class="cls-21" x="34.64" y="0">可存放</tspan><tspan class="cls-65" x="69.36" y="0">于</tspan><tspan x="83.8" y="0">-20℃保存备用</tspan><tspan class="cls-82" x="161.63" y="0">，</tspan><tspan x="173.14" y="0">避免</tspan></text><text class="cls-6" transform="translate(526.28 693.04)">反复冻融</text><text class="cls-6" transform="translate(526.28 760.38)"><tspan class="cls-83">运输：常温运</tspan><tspan class="cls-84" x="68.04" y="0">输</tspan><tspan class="cls-85" x="82.26" y="0">,</tspan><tspan class="cls-83" x="87.97" y="0">严密包装，防止污</tspan><tspan x="178.69" y="0">染</tspan></text><text class="cls-86" transform="translate(526.28 832.66)">运<tspan class="cls-87" x="11.34" y="0">输：</tspan><tspan x="32.86" y="0">干冰运</tspan><tspan class="cls-88" x="66.88" y="0">输,</tspan><tspan x="86.23" y="0">严密包装</tspan><tspan class="cls-89" x="131.58" y="0">，</tspan><tspan class="cls-90" x="141.76" y="0">防止污染</tspan><tspan class="cls-21" x="187.11" y="0">。</tspan></text><text class="cls-91" transform="translate(526.28 849.2)">保<tspan class="cls-83" x="11.65" y="0">存</tspan><tspan x="22.99" y="0">：可存放</tspan><tspan class="cls-92" x="69.6" y="0">于</tspan><tspan class="cls-93" x="83.9" y="0">-2</tspan><tspan class="cls-94" x="97.4" y="0">0</tspan><tspan class="cls-95" x="104.42" y="0">℃保存备</tspan><tspan class="cls-83" x="150.12" y="0">用</tspan><tspan x="161.46" y="0">，避</tspan><tspan class="cls-21" x="184.76" y="0">免</tspan></text><text class="cls-6" transform="translate(526.28 865.73)"><tspan class="cls-83">反复冻</tspan><tspan x="34.02" y="0">融</tspan></text><text class="cls-6" transform="translate(526.28 797.87)"><tspan class="cls-83">运输：冰袋运</tspan><tspan class="cls-84" x="68.04" y="0">输</tspan><tspan class="cls-85" x="82.26" y="0">,</tspan><tspan class="cls-83" x="87.97" y="0">严密包装，防止污</tspan><tspan x="178.69" y="0">染</tspan></text><line class="cls-96" y1="106.73" x2="726.27" y2="106.73"/><line class="cls-97" y1="193.58" x2="726.27" y2="193.58"/><line class="cls-97" y1="293.97" x2="726.27" y2="293.97"/><line class="cls-96" y1="366" x2="726.27" y2="366"/><line class="cls-97" y1="452.21" x2="726.27" y2="452.21"/><line class="cls-96" y1="537.25" x2="726.27" y2="537.25"/><line class="cls-97" y1="638.82" x2="726.27" y2="638.82"/><line class="cls-97" y1="738.04" x2="726.27" y2="738.04"/><line class="cls-97" y1="774.66" x2="726.27" y2="774.66"/><line class="cls-97" y1="811.82" x2="726.27" y2="811.82"/><rect class="cls-98" x="1.17" y="879.45" width="726.27" height="3.31"/></g></g></svg>