<svg xmlns="http://www.w3.org/2000/svg" viewBox="0 0 110.95 98.81"><defs><style>.cls-1{fill:#fff0ea;}.cls-2{fill:#d9d9d9;}</style></defs><title>资源 2</title><g id="图层_2" data-name="图层 2"><g id="图层_1-2" data-name="图层 1"><path class="cls-1" d="M39.16,98.81c21.62,0,39.15-18.07,39.15-40.36S60.78,18.1,39.16,18.1,0,36.17,0,58.45,17.53,98.81,39.16,98.81"/><path class="cls-2" d="M16.62,77.71a21.27,21.27,0,0,0-.83,5.89V97.1h4V83.6a17.52,17.52,0,0,1,.67-4.78l-1.9-.55Z"/><path class="cls-2" d="M24,66.34a25.09,25.09,0,0,0-5.31,6.47l1.78,1,1.71,1a21.39,21.39,0,0,1,4.46-5.43l-1.31-1.49Z"/><path class="cls-2" d="M46.05,63.19v2.06a2.91,2.91,0,1,1-5.82,0V62.17a20.07,20.07,0,0,0,3.31.3,20.88,20.88,0,0,0,2.51-.16Zm12,1.37,1-1.8a32.4,32.4,0,0,0-6.24-2.5,20.64,20.64,0,0,0,6.83-5.48L58.06,53.5l-1.54-1.25a16.54,16.54,0,0,1-6.41,4.85,16.71,16.71,0,0,1-2,.74,15.26,15.26,0,0,1-2,.42,16.52,16.52,0,0,1-5.82-.13,15.69,15.69,0,0,1-2-.54L38,57.51a15.82,15.82,0,0,1-1.75-.74,16.67,16.67,0,0,1-9.37-15V39h.09V30.77a5.4,5.4,0,0,0,2.22-1.23,11.23,11.23,0,0,0,1.65-1.8c4.26,2.3,11.08,5.17,18.57,5.17h1.8a8.09,8.09,0,0,0,2.4-.39l-.54-2-.31-1.14-.2-.71a5.19,5.19,0,0,1-1.1.2,5.48,5.48,0,0,1-.81,0H49.39c-10.86,0-20.61-7.11-20.7-7.17L26.3,25c.07.05.45.33,1.05.72a7.9,7.9,0,0,1-.83.9,1.47,1.47,0,0,1-.94.41h0L25,26.81l-2-.61v2.89h-.11v4.7a2.42,2.42,0,0,1-.36-1.23V21.78a4.69,4.69,0,0,1,4.68-4.69h2v-2a3.53,3.53,0,0,1,3.5-3.52H54.55v-4H32.68a7.53,7.53,0,0,0-7.29,5.69,8.74,8.74,0,0,0-6.93,8.53V32.56a6.45,6.45,0,0,0,4.38,6.1v3.1A20.72,20.72,0,0,0,34.72,60.47a31.44,31.44,0,0,0-6.54,2.84l1,1.74,1,1.71a28.18,28.18,0,0,1,6-2.51v1a6.95,6.95,0,0,0,13.89,0V63.76a28.4,28.4,0,0,1,7,2.53Z"/><rect class="cls-2" x="30.67" y="82.03" width="4.01" height="15.07"/><polygon class="cls-2" points="67.01 81.21 62.99 81.21 62.99 96.31 62.99 96.33 67.01 96.33 67.99 96.33 67.99 96.32 67.01 96.31 67.01 81.21"/><polygon class="cls-2" points="88.19 96.33 88.19 96.33 92.2 96.33 92.2 96.33 92.2 81.21 88.19 81.21 88.19 96.33"/><path class="cls-2" d="M104.47,17.27v30.1A6.4,6.4,0,0,0,105,50H96.74a21.57,21.57,0,0,0,2.47-10V34.24h.1l-.06-13.59a20.08,20.08,0,0,0-1.51-7.57,3.8,3.8,0,0,0,1.85-1.84,4.66,4.66,0,0,0,.23-.81,7.37,7.37,0,0,1,4.65,6.84M59.7,20.65A16.29,16.29,0,0,1,76,4.38h3.26a16.26,16.26,0,0,1,10.3,3.69l.47.54,2.54,2.89L93,12a16.29,16.29,0,0,1,2.49,8.61V25a17.43,17.43,0,0,1-5.79-2,27.22,27.22,0,0,1-3.82-2.47A39.75,39.75,0,0,1,80,14.93a2.69,2.69,0,0,0-4.12,0c-1.77,2.12-7.66,8.48-15.21,9.87-.33.07-.66.12-1,.16V20.65ZM80.76,65.24a3.21,3.21,0,1,1-6.42,0v-3.9a19.22,19.22,0,0,0,6.42,0v3.9Zm8.06-11.46a17.61,17.61,0,0,1-4.25,2.56,15.3,15.3,0,0,1-1.9.68,17.12,17.12,0,0,1-1.91.45,17.6,17.6,0,0,1-3.19.3,18.13,18.13,0,0,1-3.23-.3A17.15,17.15,0,0,1,72.43,57a16.11,16.11,0,0,1-1.91-.69,17.88,17.88,0,0,1-10.8-16.39V28.79h0a18.53,18.53,0,0,0,2-.32c7.68-1.54,13.65-7.2,16.3-10.08a40.92,40.92,0,0,0,7.89,6.74,29,29,0,0,0,3.82,2.06,20.43,20.43,0,0,0,5.71,1.6V39.93a17.74,17.74,0,0,1-3.09,10,18.21,18.21,0,0,1-3.51,3.82m5.38,0H111V50a2.43,2.43,0,0,1-2.66-2.57V17.27A11.2,11.2,0,0,0,98.13,6.13L93.92,1.32A3.9,3.9,0,0,0,88.45,1a3.8,3.8,0,0,0-1,1.45A20,20,0,0,0,79.2.59H75.94a20.11,20.11,0,0,0-20,20.06V39.94A21.72,21.72,0,0,0,70,60.22a25.51,25.51,0,0,0-17.43,24.1V97.08H56.4V84.32a20.91,20.91,0,0,1,.41-4.14A21.56,21.56,0,0,1,70.52,64.1v1.14a7,7,0,0,0,14,0V63.79a21.57,21.57,0,0,1,15,20.53V97.1h3.81V84.32A25.4,25.4,0,0,0,85.51,60.07a21.7,21.7,0,0,0,8.69-6.29"/></g></g></svg>