<svg xmlns="http://www.w3.org/2000/svg" viewBox="0 0 86.47 101.42"><defs><style>.cls-1{fill:#fff0ea;}.cls-2{fill:#d9d9d9;}</style></defs><title>资源 3</title><g id="图层_2" data-name="图层 2"><g id="图层_1-2" data-name="图层 1"><path class="cls-1" d="M39.16,101.42c21.62,0,39.15-18.07,39.15-40.36S60.78,20.71,39.16,20.71,0,38.78,0,61.06s17.53,40.36,39.16,40.36"/><path class="cls-2" d="M67.4,69A15.16,15.16,0,0,1,52.27,53.84a2.54,2.54,0,1,1,5.08,0,10.07,10.07,0,0,0,10.05,10,2.55,2.55,0,0,1,0,5.09"/><path class="cls-2" d="M49.54,34.52a2.44,2.44,0,0,0-2.42,1.9L32.82,91.51a2.66,2.66,0,0,0,.44,2.17,2.4,2.4,0,0,0,2,.95H72.74a2.68,2.68,0,0,0,2-.95,2.43,2.43,0,0,0,.44-2.17l-2.6-10.36a2.65,2.65,0,0,1,1.2-2.86,13.76,13.76,0,0,0,7.51-12.06c0-7.75-6.43-12.52-14.18-12.64a2.53,2.53,0,0,1-2.42-1.91L60.85,36.42a2.45,2.45,0,0,0-2.42-1.9Zm23.2,65.19H35.23a7.59,7.59,0,0,1-6-2.92,7.41,7.41,0,0,1-1.4-6.48l14.3-55.16a7.57,7.57,0,0,1,7.38-5.72h9a7.61,7.61,0,0,1,7.37,5.72l3.37,13.48c9.6,1.14,17.23,7.75,17.23,17.6A18.75,18.75,0,0,1,78,81.72l2.16,8.59a7.38,7.38,0,0,1-1.4,6.48,7.7,7.7,0,0,1-6,2.92"/><path class="cls-2" d="M54,5.08A12.24,12.24,0,0,0,42.61,13a1.07,1.07,0,0,1-.26.44,8.21,8.21,0,0,0-1,2.35l-7,28.55a8,8,0,0,0,3.43,8.58l4.45-17.74a7.57,7.57,0,0,1,7.38-5.72h5.91c.19-.06.38-.13.64-.19a12.14,12.14,0,0,0,10.1-11.95A12.3,12.3,0,0,0,54,5.08M39.49,58.93a1.91,1.91,0,0,1-.63-.07A13.1,13.1,0,0,1,29.38,43.1l7.06-28.55A13.75,13.75,0,0,1,37.9,11,17.44,17.44,0,0,1,54,0,17.22,17.22,0,0,1,57.8,34a2.68,2.68,0,0,1-1.46.44H49.53a2.45,2.45,0,0,0-2.41,1.91L42,57a2.89,2.89,0,0,1-1.14,1.59,3.46,3.46,0,0,1-1.34.32"/></g></g></svg>