<svg xmlns="http://www.w3.org/2000/svg" viewBox="0 0 744.75 173.2"><defs><style>.cls-1,.cls-2,.cls-6,.cls-7,.cls-8{fill:none;stroke:#ec6b36;stroke-linejoin:round;}.cls-1,.cls-2,.cls-6,.cls-7{stroke-linecap:round;}.cls-1,.cls-2{stroke-width:0.92px;}.cls-1{stroke-dasharray:0 1.88;}.cls-3{fill:#fff;}.cls-4{font-size:23.21px;font-family:HelveticaLTStd-Comp, HelveticaLTStd Comp;}.cls-4,.cls-5{fill:#ec6b36;}.cls-6{stroke-dasharray:0 2;}.cls-9{font-size:12px;font-family:PingFangSC-Regular-GBpc-EUC-H, PingFang SC;}.cls-10,.cls-9{fill:#4d4d4d;}.cls-10{font-size:16px;font-family:PingFangSC-Semibold-GBpc-EUC-H, PingFang SC;}</style></defs><title>资源 5</title><g id="图层_2" data-name="图层 2"><g id="图层_1-2" data-name="图层 1"><path class="cls-1" d="M170.73,70.41a35.1,35.1,0,0,0,31.1-32.9"/><path class="cls-1" d="M201.67,31.62A35.09,35.09,0,0,0,168.77.52"/><path class="cls-1" d="M162.87.68a35.1,35.1,0,0,0-31.1,32.9"/><path class="cls-1" d="M131.94,39.47a35.07,35.07,0,0,0,32.89,31.1"/><path class="cls-2" d="M166.8,70.63h0M131.72,35.55h0M166.8.46h0m35.08,35.09h0"/><path class="cls-3" d="M194.4,29.6a14,14,0,1,0-14-13.95,14,14,0,0,0,14,14"/><text class="cls-4" transform="translate(189.72 23.67)">2</text><path class="cls-5" d="M178.85,43.56c0,1.59-1.77,3-3.73,3H157.35c-1.95,0-3.73-1.43-3.73-3V27.92c0-1.6,1.78-3,3.73-3h7.29V21.7h-7.29c-3.91,0-6.93,2.84-6.93,6.22V43.56c0,3.37,3,6.21,6.93,6.21h17.77c3.91,0,6.93-2.84,6.93-6.21V34.85h-3.2Z"/><path class="cls-5" d="M183.29,21.7l-13.5,13.5a12.61,12.61,0,0,1-4.62,2.85l-1.07.35.36-1.42a16.21,16.21,0,0,1,2.67-4.44l8-8,2.45,2.13.9-1-2.38-2.06L180.63,19h.18c.17,0,.17,0,.17-.17l2.31,2.3a.34.34,0,0,1,0,.54m2.31-2.49-2.31-2.31a3.44,3.44,0,0,0-5,0L164.81,30.41a15.88,15.88,0,0,0-3.37,5.86l-2,7.11,6.76-2.13a17,17,0,0,0,5.86-3.56l13.5-13.5a3.43,3.43,0,0,0,0-5"/><path class="cls-1" d="M302,70.41a35.08,35.08,0,0,0,31.1-32.9"/><path class="cls-1" d="M332.92,31.62A35.09,35.09,0,0,0,300,.52"/><path class="cls-1" d="M294.13.68A35.09,35.09,0,0,0,263,33.58"/><path class="cls-1" d="M263.19,39.47a35.08,35.08,0,0,0,32.9,31.1"/><path class="cls-2" d="M298.06,70.63h0M263,35.55h0M298.06.46h0m35.08,35.09h0"/><path class="cls-3" d="M325.66,29.6a14,14,0,1,0-14-14,14,14,0,0,0,14,14"/><text class="cls-4" transform="translate(320.98 23.67)">3</text><path class="cls-5" d="M317.5,30.22l-7.43-4.95V21.75a3.67,3.67,0,0,0-3.67-3.67H283.6a3.67,3.67,0,0,0-3.67,3.67V47a1.27,1.27,0,0,0,2.54,0V21.75a1.13,1.13,0,0,1,1.13-1.13h22.8a1.13,1.13,0,0,1,1.13,1.13v4.19A1.27,1.27,0,0,0,308.1,27l8,5.33a2.33,2.33,0,0,1,1,1.94V47a1.27,1.27,0,1,0,2.54,0V34.27a4.86,4.86,0,0,0-2.17-4.05"/><path class="cls-5" d="M308.8,50.48A3.54,3.54,0,1,1,312.33,47a3.54,3.54,0,0,1-3.53,3.53m-18,0A3.54,3.54,0,1,1,294.33,47a3.54,3.54,0,0,1-3.53,3.53m18-9.6a6.07,6.07,0,0,0-5.93,4.8h-6.13a6.07,6.07,0,1,0,0,2.54h6.13a6.07,6.07,0,1,0,5.93-7.34"/><path class="cls-5" d="M313.6,35.15h-3.53V31.62a1.27,1.27,0,0,0-2.54,0v4.8a1.27,1.27,0,0,0,1.27,1.27h4.8a1.27,1.27,0,0,0,0-2.54"/><path class="cls-5" d="M32.4,19.93h2.28v2.26A1.13,1.13,0,0,0,35,23a1.16,1.16,0,0,0,.82.35A1.2,1.2,0,0,0,37,22.19V19.93h2.26a1.17,1.17,0,1,0,0-2.33H37V15.32a1.17,1.17,0,0,0-2.33,0V17.6H32.4a1.17,1.17,0,0,0,0,2.33"/><path class="cls-5" d="M35.45,55.16c-7.65,0-16.76-1.17-16.76-6.72,0-5.2,7.68-9.6,16.76-9.6h0c9.1,0,16.77,4.39,16.77,9.61,0,5.55-9.11,6.72-16.77,6.72m-8-28.37H44.16c-.21,4.42-3.88,8.36-7.94,8.36h-.78c-4,0-7.74-3.94-7.95-8.36m0-11.85a1.88,1.88,0,0,1,1.88-1.88h13a1.88,1.88,0,0,1,1.89,1.88v4.58h0v4.94H27.45V20.28h0ZM39.69,36.79a11.44,11.44,0,0,0,6.84-10.4V20.28h0V14.94a4.23,4.23,0,0,0-4.22-4.21h-13a4.22,4.22,0,0,0-4.21,4.21v4.58h0v6.9a11.42,11.42,0,0,0,6.66,10.3c-8.89,1-15.42,5.8-15.42,11.7,0,4.13,3.31,9,19.09,9s19.1-4.92,19.1-9c0-5.77-6.26-10.46-14.86-11.63"/><path class="cls-1" d="M39.47,70.41a35.09,35.09,0,0,0,31.1-32.9"/><path class="cls-1" d="M70.41,31.62A35.09,35.09,0,0,0,37.51.52"/><path class="cls-1" d="M31.62.68A35.08,35.08,0,0,0,.52,33.58"/><path class="cls-1" d="M.68,39.47a35.08,35.08,0,0,0,32.9,31.1"/><path class="cls-2" d="M35.55,70.63h0M.46,35.55h0M35.55.46h0M70.63,35.55h0"/><path class="cls-3" d="M63.15,29.6a14,14,0,1,0-14-14,14,14,0,0,0,14,14"/><text class="cls-4" transform="translate(58.47 23.67)">1</text><path class="cls-1" d="M433.24,70.41a35.09,35.09,0,0,0,31.1-32.9"/><path class="cls-1" d="M464.18,31.62A35.08,35.08,0,0,0,431.28.52"/><path class="cls-1" d="M425.38.68a35.07,35.07,0,0,0-31.09,32.9"/><path class="cls-1" d="M394.45,39.47a35.08,35.08,0,0,0,32.9,31.1"/><path class="cls-2" d="M429.31,70.63h0M394.23,35.54h0M429.31.46h0M464.4,35.54h0"/><path class="cls-3" d="M456.91,29.6a14,14,0,1,0-14-14,14,14,0,0,0,14,14"/><text class="cls-4" transform="translate(452.23 23.67)">4</text><path class="cls-5" d="M441.19,48.08a1.79,1.79,0,1,0-1.79-1.79,1.79,1.79,0,0,0,1.79,1.79"/><path class="cls-5" d="M426.86,47.64h3.58a1.35,1.35,0,1,0,0-2.69h-3.58a1.35,1.35,0,0,0,0,2.69"/><path class="cls-5" d="M436.64,29.59A1.36,1.36,0,0,0,435.5,29h0a1.33,1.33,0,0,0-1.14.65l-2.73,4.53-2.72-9a1.41,1.41,0,0,0-1.3-1,1.34,1.34,0,0,0-1.28,1l-1.88,7.14h-5.19a1.35,1.35,0,0,0,0,2.69h6.23a1.35,1.35,0,0,0,1.29-1l.93-3.55,2.22,7.35a1.34,1.34,0,0,0,1.28.95,1.36,1.36,0,0,0,1.16-.65l3.14-5.23.86,1.38a1.32,1.32,0,0,0,1.14.63h4.13a1.35,1.35,0,1,0,0-2.69h-3.38Z"/><path class="cls-5" d="M417.9,47.64h3.59a1.35,1.35,0,0,0,0-2.69H417.9a1.35,1.35,0,0,0,0,2.69"/><path class="cls-5" d="M447,42.93v3.36a2.24,2.24,0,0,1-2.24,2.24H416.11a2.24,2.24,0,0,1-2.24-2.24V42.93Zm2.69-14.55V24.8a5,5,0,0,0-4.93-4.93H416.11a4.93,4.93,0,0,0-4.92,4.93V46.29a4.93,4.93,0,0,0,4.92,4.93h28.66a4.94,4.94,0,0,0,4.93-4.93V35.55a1.35,1.35,0,1,0-2.69,0v4.7H413.87V24.8a2.25,2.25,0,0,1,2.24-2.24h28.66A2.25,2.25,0,0,1,447,24.8v3.58a1.35,1.35,0,0,0,2.69,0"/><path class="cls-1" d="M564.5,70.41a35.1,35.1,0,0,0,31.1-32.9"/><path class="cls-1" d="M595.43,31.62A35.08,35.08,0,0,0,562.54.52"/><path class="cls-1" d="M556.64.68a35.1,35.1,0,0,0-31.1,32.9"/><path class="cls-1" d="M525.7,39.47a35.08,35.08,0,0,0,32.9,31.1"/><path class="cls-2" d="M560.57,70.63h0M525.49,35.55h0M560.57.46h0m35.08,35.09h0"/><path class="cls-3" d="M588.17,29.6a14,14,0,1,0-13.95-14,14,14,0,0,0,13.95,14"/><text class="cls-4" transform="translate(583.49 23.67)">5</text><path class="cls-5" d="M577.92,46a3.87,3.87,0,0,1-3.1,3.14H555.46c-1.31,0-2.5-1.85-2.5-3.14V20.69c0-1.28,1.19-3.14,2.5-3.14h13.71c0,2.91,0,5.7,0,5.7a4.16,4.16,0,0,0,4.4,4.42h4.35Zm-6.84,5.27c0,1.29-1.2,2.93-2.51,2.93H549.81a3.87,3.87,0,0,1-3.1-3.14V25.75a3.7,3.7,0,0,1,3-3.1l1.37,0V46a5.25,5.25,0,0,0,5,5.06h15Zm0-33.06h0l6.25,7.58h-3.75c-1.33,0-2.5-2.48-2.5-3.79Zm0-2.53-15,0a5,5,0,0,0-5,4.76l0,.3-1.44,0a5,5,0,0,0-4.81,5v25.3a5.24,5.24,0,0,0,5,5.06h18.76a5,5,0,0,0,5-4.74V51h1.25a5.25,5.25,0,0,0,5-5.06V25.78Z"/><path class="cls-5" d="M571.07,33.36H559.81a1.27,1.27,0,0,0,0,2.53h11.26a1.27,1.27,0,0,0,0-2.53"/><path class="cls-5" d="M571.07,39.68H559.81a1.27,1.27,0,0,0,0,2.53h11.26a1.27,1.27,0,0,0,0-2.53"/><path class="cls-1" d="M695.75,70.41a35.09,35.09,0,0,0,31.1-32.9"/><path class="cls-1" d="M726.69,31.62A35.09,35.09,0,0,0,693.79.52"/><path class="cls-1" d="M687.9.68a35.08,35.08,0,0,0-31.1,32.9"/><path class="cls-1" d="M657,39.47a35.08,35.08,0,0,0,32.9,31.1"/><path class="cls-2" d="M691.83,70.63h0M656.74,35.55h0M691.83.46h0m35.08,35.09h0"/><path class="cls-3" d="M719.43,29.6a14,14,0,1,0-14-14,14,14,0,0,0,14,14"/><text class="cls-4" transform="translate(714.74 23.67)">6</text><path class="cls-5" d="M686.29,35.66A6.72,6.72,0,1,1,693,29a6.72,6.72,0,0,1-6.74,6.71m4.24,1.25a9,9,0,1,0-8.43,0A12.85,12.85,0,0,0,673.49,49a1.15,1.15,0,1,0,2.3,0,10.52,10.52,0,0,1,21,0,1.16,1.16,0,0,0,2.31,0,12.87,12.87,0,0,0-8.61-12.12"/><path class="cls-5" d="M702.13,35.8h0a9,9,0,0,0-4.79-16.66,1.15,1.15,0,1,0,0,2.3,6.73,6.73,0,0,1,0,13.45,1.15,1.15,0,1,0,0,2.3,10.54,10.54,0,0,1,10.52,10.52,1.15,1.15,0,1,0,2.3,0,12.84,12.84,0,0,0-8-11.91"/><line class="cls-6" x1="94.64" y1="36.59" x2="113.46" y2="36.59"/><path class="cls-7" d="M115.56,36.59h0m-25.11,0h0"/><polyline class="cls-8" points="107.18 28.8 115.55 36.59 107.18 44.38"/><line class="cls-6" x1="226.05" y1="36.59" x2="244.87" y2="36.59"/><path class="cls-7" d="M247,36.59h0m-25.11,0h0"/><polyline class="cls-8" points="238.59 28.8 246.97 36.59 238.59 44.38"/><line class="cls-6" x1="354.07" y1="36.59" x2="372.9" y2="36.59"/><path class="cls-7" d="M375,36.59h0m-25.1,0h0"/><polyline class="cls-8" points="366.61 28.8 374.99 36.59 366.61 44.38"/><line class="cls-6" x1="483.82" y1="36.59" x2="502.65" y2="36.59"/><path class="cls-7" d="M504.74,36.59h0m-25.1,0h0"/><polyline class="cls-8" points="496.36 28.8 504.74 36.59 496.36 44.38"/><line class="cls-6" x1="619.82" y1="36.59" x2="638.64" y2="36.59"/><path class="cls-7" d="M640.73,36.59h0m-25.1,0h0"/><polyline class="cls-8" points="632.36 28.8 640.73 36.59 632.36 44.38"/><text class="cls-9" transform="translate(262.92 127.51)">3-4ml抗凝血/</text><text class="cls-9" transform="translate(266.46 145.98)">口腔黏膜细胞</text><text class="cls-10" transform="translate(11.27 101.14)">遗传咨询</text><text class="cls-10" transform="translate(116.13 101.14)">签署知情同意书</text><text class="cls-10" transform="translate(140.75 123.71)">和送检单</text><text class="cls-10" transform="translate(389.31 101.14)">实验室检验</text><text class="cls-10" transform="translate(526.26 101.14)">数据分析</text><text class="cls-10" transform="translate(534.47 123.71)">与解读</text><text class="cls-10" transform="translate(648.75 101.14)">个性化咨询和</text><text class="cls-10" transform="translate(665.17 123.71)">解读服务</text><text class="cls-10" transform="translate(267.63 101.14)">样本采集</text><text class="cls-9" transform="translate(117.83 151.94)">签署《知情同意书》</text><text class="cls-9" transform="translate(137.84 170.41)">和《送检单》</text><text class="cls-9" transform="translate(400.01 127.51)">检测周期为</text><text class="cls-9" transform="translate(394.76 145.98)">25-30工作日</text></g></g></svg>