<svg xmlns="http://www.w3.org/2000/svg" viewBox="0 0 712.31 440.61"><defs><style>.cls-1{fill:#f2f2f2;}.cls-15,.cls-18,.cls-2,.cls-3{fill:#3e3a39;}.cls-15,.cls-18,.cls-3{font-size:15.73px;font-family:PingFangSC-Regular-GBpc-EUC-H, PingFang SC;}.cls-4{letter-spacing:0.02em;}.cls-5{letter-spacing:0.01em;}.cls-6{letter-spacing:0.02em;}.cls-7{letter-spacing:0em;}.cls-8{letter-spacing:0em;}.cls-9{letter-spacing:0.02em;}.cls-10{letter-spacing:-0.03em;}.cls-11{letter-spacing:0em;}.cls-12{letter-spacing:0.03em;}.cls-13,.cls-15{letter-spacing:0.25em;}.cls-14{letter-spacing:0.25em;}.cls-16{letter-spacing:0em;}.cls-17{fill:none;stroke:#3e3a39;stroke-width:0.28px;}.cls-18{letter-spacing:-0.06em;}.cls-19{letter-spacing:-0.12em;}</style></defs><title>资源 1</title><g id="图层_2" data-name="图层 2"><g id="图层_1-2" data-name="图层 1"><rect class="cls-1" x="0.14" y="0.29" width="712.17" height="22.16"/><path class="cls-2" d="M16.43,15c-.19-.47-.51-1.14-.85-1.82v7.15H13.79V14.93a13.83,13.83,0,0,1-1.23,2.63,9.6,9.6,0,0,0-.9-1.89,14.6,14.6,0,0,0,2.13-4.93v-.4H12V8.61h1.78V5.69h1.79V8.61h1.49v1.73H15.58v.57c.49.63,1.68,2.36,2,2.81Zm9.93,1.78H22.8v3.55H20.91V16.82H17.15V15.08h3.76V13.53H18.06V11.84h2.85V10.31H17.59V8.6h1.59a11.79,11.79,0,0,0-1.09-2.28l1.67-.58A11.32,11.32,0,0,1,21,8.17l-1.13.43h2.7a15.09,15.09,0,0,0,1.16-3l1.92.58c-.36.81-.75,1.65-1.13,2.39h1.57v1.71H22.8v1.53h2.84v1.69H22.8v1.55h3.56Zm11.48-6.18a13.39,13.39,0,0,0,4.41,5.69A7.92,7.92,0,0,0,40.78,18a11.07,11.07,0,0,1-1.67-1.62v1.37H35.87v2.65h-2V17.72h-3.3v-1.4a13.81,13.81,0,0,1-1.78,1.73,8.71,8.71,0,0,0-1.37-1.53,13.55,13.55,0,0,0,4.41-5.88H28V8.74h5.9v-3h2v3H41.8v1.9Zm-4,5.17V10.64h-.11A19.22,19.22,0,0,1,31,15.81Zm4.78,0a19.71,19.71,0,0,1-2.74-5.17h-.06v5.17Zm13.66.67c1.18,1.22,3.06,1.9,5.72,2.12a5.64,5.64,0,0,0-1.15,1.76c-3-.43-5-1.42-6.29-3.24-.89,1.56-2.69,2.64-6.37,3.25a5.7,5.7,0,0,0-1-1.74c3.08-.43,4.6-1.13,5.4-2.15h-5V14.73h5.77c.08-.41.14-.83.19-1.31h2c-.05.46-.1.89-.18,1.31h6.22v1.75Zm-2.68-5.3A12,12,0,0,1,44.59,14a8.45,8.45,0,0,0-1.19-1.54,12.64,12.64,0,0,0,4.84-2.17H43.8V8.6h2.93a10.37,10.37,0,0,0-1.4-1.95L47,6a9.07,9.07,0,0,1,1.62,2.17l-1,.47h2.12V5.7h1.89V8.6h2.33l-1.2-.41a14.25,14.25,0,0,0,1.45-2.28l2,.53A26.69,26.69,0,0,1,54.34,8.6h3.14v1.71H52.72c1.73.74,3.69,1.61,4.81,2.2l-.9,1.5c-1.14-.63-3.25-1.64-5.09-2.5v1.6H49.65Zm23.76,7v1.73H59.24V18.14h6.15V16.88H60.83V15.19h4.54v-1H64.21v-3H62.76a4.79,4.79,0,0,1-2.47,3.44,8,8,0,0,0-1.22-1.31A3.44,3.44,0,0,0,61,11.18H59.4V9.53h1.77V7.87H59.93V6.24h7.14V7.87H66V9.53h1.48v1.65H66v2.75H67.3v1.26h4.55v1.69H67.3v1.26Zm-9.2-8.61V7.87H62.89V9.53ZM69.8,11.9H68.09V6.58H69.8Zm2.93.68c0,.86-.16,1.3-.76,1.57a6.44,6.44,0,0,1-2.46.3A7,7,0,0,0,69,12.8c.7,0,1.46,0,1.69,0s.3-.06.3-.27V5.86h1.78Z"/><text class="cls-3" transform="translate(11.28 196)">客户自制</text><text class="cls-3" transform="translate(11.28 219.59)">文库</text><text class="cls-3" transform="translate(11.28 243.19)"><tspan class="cls-4">(</tspan><tspan class="cls-5" x="5.49" y="0">C</tspan><tspan class="cls-6" x="17.04" y="0">u</tspan><tspan class="cls-7" x="26.1" y="0">s</tspan><tspan class="cls-8" x="33.98" y="0">t</tspan><tspan class="cls-9" x="39.6" y="0">o</tspan><tspan class="cls-4" x="49.08" y="0">m</tspan><tspan class="cls-9" x="62.79" y="0">e</tspan><tspan x="71.79" y="0">r </tspan></text><text class="cls-3" transform="translate(11.28 266.79)">lib<tspan class="cls-10" x="16.94" y="0">r</tspan><tspan class="cls-11" x="22.28" y="0">a</tspan><tspan class="cls-12" x="31.07" y="0">r</tspan><tspan class="cls-11" x="37.27" y="0">y)</tspan></text><path class="cls-2" d="M108.92,11.73c0,2.51-.22,6.36-1.53,8.8a7.12,7.12,0,0,0-1.65-1.08C106.92,17.23,107,14,107,11.73V7.5h6c-.17-.54-.39-1.09-.59-1.56l1.88-.44a21.54,21.54,0,0,1,.82,2h5.08V9.27H108.92ZM120.38,18v1.76h-11.7V18h5.82a25.62,25.62,0,0,0,3.24-8.16l2,.66a33.15,33.15,0,0,1-3.27,7.5ZM111,10.67A47.53,47.53,0,0,1,112.79,16l-1.76.74a43.78,43.78,0,0,0-1.67-5.42Zm2.72,5.07a43.52,43.52,0,0,0-1.26-5.4l1.7-.44a45.38,45.38,0,0,1,1.37,5.35Zm21.41,2.42c0,1-.22,1.51-.85,1.79a7.29,7.29,0,0,1-3,.33,6.86,6.86,0,0,0-.6-1.79c.89,0,1.92,0,2.21,0s.4-.1.4-.38V15.78H130v4.39h-1.89V15.78h-3.21a9,9,0,0,1-2,4.67,7,7,0,0,0-1.48-1.21c1.72-1.88,1.86-4.68,1.86-6.88V6.74h11.87ZM128.08,14V12.09h-3v.28c0,.5,0,1.07,0,1.65Zm-3-5.5v1.82h3V8.52Zm8.16,0H130v1.82h3.31Zm0,5.5V12.09H130V14Zm13,2.46c1.18,1.22,3.07,1.9,5.73,2.12a5.31,5.31,0,0,0-1.15,1.76c-3-.43-5-1.42-6.29-3.24-.9,1.56-2.69,2.64-6.37,3.25a5.73,5.73,0,0,0-1-1.74c3.08-.43,4.61-1.13,5.41-2.15h-5V14.73h5.77c.08-.41.14-.83.19-1.31h2a13,13,0,0,1-.17,1.31h6.21v1.75Zm-2.67-5.3A12,12,0,0,1,138.58,14a8.5,8.5,0,0,0-1.2-1.54,12.57,12.57,0,0,0,4.84-2.17h-4.43V8.6h2.92a10.3,10.3,0,0,0-1.39-1.95L141,6a9.63,9.63,0,0,1,1.62,2.17l-1,.47h2.12V5.7h1.89V8.6h2.32l-1.19-.41a15,15,0,0,0,1.45-2.28l2,.53c-.62.82-1.26,1.59-1.79,2.16h3.14v1.71h-4.76c1.73.74,3.69,1.61,4.81,2.2l-.9,1.5c-1.15-.63-3.25-1.64-5.09-2.5v1.6h-1.89Zm23.75,7v1.73H153.22V18.14h6.15V16.88h-4.56V15.19h4.55v-1h-1.17v-3h-1.44a4.84,4.84,0,0,1-2.47,3.44,8.48,8.48,0,0,0-1.23-1.31A3.49,3.49,0,0,0,155,11.18h-1.59V9.53h1.78V7.87h-1.24V6.24h7.13V7.87h-1.11V9.53h1.48v1.65h-1.48v2.75h1.35v1.26h4.54v1.69h-4.54v1.26Zm-9.2-8.61V7.87h-1.32V9.53Zm5.6,2.37h-1.71V6.58h1.71Zm2.93.68c0,.86-.16,1.3-.76,1.57a6.53,6.53,0,0,1-2.47.3,7,7,0,0,0-.55-1.65c.71,0,1.46,0,1.7,0s.3-.06.3-.27V5.86h1.78Z"/><path class="cls-2" d="M106,203.17a2,2,0,1,1,2,2.11A2,2,0,0,1,106,203.17Zm12.85-5.31a15.23,15.23,0,0,1-2.72,3,8.08,8.08,0,0,0-1-.85,13.58,13.58,0,0,0,4.18-5.44l1.18.34a18.73,18.73,0,0,1-1,1.84h8.68v.55c-.17,5.22-.33,7.05-.77,7.61a1.27,1.27,0,0,1-1,.54,11,11,0,0,1-1.83,0,3.07,3.07,0,0,0-.3-1.12,12.46,12.46,0,0,0,1.58.06.5.5,0,0,0,.52-.2c.29-.38.47-2,.59-6.32Zm7.91,9.7c1.34,0,1.56-.35,1.73-2a3.7,3.7,0,0,0,1.12.42c-.24,2.06-.71,2.64-2.83,2.64h-5.93c-2.46,0-3.18-.42-3.18-2.17v-7H124v4.64H118.8v2.37c0,.85.3,1.07,2,1.07Zm-7.94-7v2.53h4.09v-2.53Zm17.09-2.64c0-1.73.78-2.81,2.48-2.81a3.8,3.8,0,0,1,1.43.28l-.31,1.08a2.47,2.47,0,0,0-1-.22c-.82,0-1.21.59-1.21,1.69v1.35h1.81v1.16h-1.81v7.38h-1.43v-7.38h-1.17v-1.08l1.17-.08Zm7.21,10a2.34,2.34,0,0,1-.81.12c-1.07,0-1.53-.69-1.53-1.9V195.28h1.43v10.91c0,.44.21.62.41.62a1,1,0,0,0,.31,0Zm1.5-4.34c0-2.85,1.87-4.5,4-4.5s4,1.65,4,4.5-1.87,4.46-4,4.46S144.6,206.37,144.6,203.54Zm6.45,0c0-2-1-3.31-2.48-3.31s-2.47,1.34-2.47,3.31,1,3.27,2.47,3.27S151.05,205.5,151.05,203.54Zm2.65-4.28h1.46l1.27,4.94c.18.81.35,1.58.51,2.39H157c.19-.81.37-1.59.59-2.39l1.32-4.94h1.4l1.33,4.94c.21.81.4,1.58.6,2.39h.06c.19-.81.35-1.58.54-2.39l1.26-4.94h1.35l-2.3,8.54h-1.73l-1.24-4.61c-.22-.8-.38-1.59-.58-2.45h-.08c-.19.86-.36,1.66-.58,2.48l-1.2,4.58h-1.68Zm16.52,4.28a4.15,4.15,0,0,1,4.11-4.5,3.7,3.7,0,0,1,2.51,1l-.74,1a2.54,2.54,0,0,0-1.72-.77c-1.54,0-2.67,1.34-2.67,3.31s1.07,3.27,2.64,3.27a3,3,0,0,0,2-.85l.62,1a4.09,4.09,0,0,1-2.76,1.08C172,208,170.22,206.37,170.22,203.54Zm7.63,0c0-2.77,1.87-4.5,3.85-4.5,2.17,0,3.39,1.57,3.39,4a6,6,0,0,1-.06.82h-5.75a2.82,2.82,0,0,0,2.83,3,3.72,3.72,0,0,0,2.14-.67l.51.94a5,5,0,0,1-2.83.88C179.67,208,177.85,206.35,177.85,203.54Zm6-.7c0-1.73-.79-2.65-2.13-2.65a2.62,2.62,0,0,0-2.45,2.65Zm3.37,3.26V195.28h1.43v10.91c0,.44.19.62.41.62a1,1,0,0,0,.29,0l.21,1.11a2.52,2.52,0,0,1-.83.12C187.65,208,187.21,207.31,187.21,206.1Zm4.48,0V195.28h1.43v10.91c0,.44.19.62.41.62a1,1,0,0,0,.3,0l.2,1.11a2.43,2.43,0,0,1-.83.12C192.13,208,191.69,207.31,191.69,206.1ZM200,199a16.9,16.9,0,0,1,2.58,1.54l-.68.93a20.74,20.74,0,0,0-2.56-1.65Zm1.76,4.15.94.61c-.56,1.64-1.33,3.57-2,5l-1.06-.61A45.44,45.44,0,0,0,201.74,203.19Zm-1.05-8.38a16.07,16.07,0,0,1,2.53,1.63l-.71.93a14.94,14.94,0,0,0-2.51-1.73Zm5.88,2.77v5.52c0,2.09-.44,4.46-3.26,5.88a2.75,2.75,0,0,0-.55-.73c2.63-1.33,2.91-3.28,2.91-5.15v-5.52Zm2.28-2v9.74h-1v-8.84h-3.37v8.88h-.92v-9.78ZM207,205.88a16,16,0,0,1,2.17,2.48l-.74.52a18.13,18.13,0,0,0-2.15-2.56Zm4-9.83v9.34h-.92v-9.34Zm2.17-1.21v12.8c0,.66-.15.94-.53,1.12a6.18,6.18,0,0,1-2.17.18,4.56,4.56,0,0,0-.35-1c.84,0,1.56,0,1.78,0s.31-.08.31-.31V194.84Zm16.08,1.56v1.1H217.46v3.22c0,2.42-.22,6-1.56,8.33a5.35,5.35,0,0,0-1-.66c1.27-2.23,1.38-5.39,1.38-7.67V196.4h6.21c-.2-.47-.49-1.06-.72-1.5l1.11-.33a18.91,18.91,0,0,1,1,1.83Zm-.88,6,.83.37a26.27,26.27,0,0,1-2.48,3.14l-.93-.47a16.1,16.1,0,0,0,1.62-1.95h-3.38v4.14c0,.7-.17,1-.74,1.19a12.27,12.27,0,0,1-2.91.17,4.67,4.67,0,0,0-.39-1.1c1.15.05,2.2,0,2.5,0s.38-.08.38-.3v-4.12H218v-1h5.5c-1-.53-2.26-1.13-3.3-1.58l.71-.68c.71.3,1.52.64,2.29,1a12.85,12.85,0,0,0,2.52-1.71h-6.82v-1h7.84l.27-.06.75.58a15.62,15.62,0,0,1-3.55,2.66c.46.23.86.44,1.18.63l-.13.12h2.91Z"/><text class="cls-3" transform="translate(105.27 231.4)"><tspan class="cls-13">•包</tspan><tspan x="31.47" y="0">lan</tspan><tspan class="cls-14" x="52.75" y="0">e</tspan><tspan x="65.4" y="0">测序</tspan></text><text class="cls-15" transform="translate(105.27 254.99)">•<tspan class="cls-16" x="11.8" y="0">包数据量测序</tspan></text><path class="cls-2" d="M256.64,10.15a16.34,16.34,0,0,1-3.24,5.63,15.18,15.18,0,0,0,6,2.72,8.37,8.37,0,0,0-1.26,1.75,15.76,15.76,0,0,1-6.15-3.08,17.47,17.47,0,0,1-6.37,3.17,8.89,8.89,0,0,0-1.13-1.74,16.23,16.23,0,0,0,6.12-2.79,17.47,17.47,0,0,1-3.35-5.66h-2.47V8.33h6.64a12.78,12.78,0,0,0-.88-2.22l2-.58a13.21,13.21,0,0,1,1.07,2.38l-1.35.42h6.84v1.82Zm-7.5,0A13.5,13.5,0,0,0,252,14.51a12.78,12.78,0,0,0,2.57-4.36Zm25.64-1.24h-7.53l1.7.54c-.11.26-.24.53-.36.81h5.66v1.67h-6.5c-.36.66-.74,1.26-1.1,1.82h2.11v-1.3h1.85v1.3h3.1v1.67h-3.09v1.26h4.14v1.71h-4.14v2h-1.85v-2h-5.19V16.68h5.19V15.42h-2.34a3.57,3.57,0,0,0-1.58.24,14.06,14.06,0,0,0-.63-1.8c.34-.07.62-.39.93-.89a8.85,8.85,0,0,0,.58-1H264V10.26h2.53q.27-.66.48-1.35h-3.59v2.66c0,2.56-.23,6.45-1.68,8.87a7.26,7.26,0,0,0-1.59-1.07c1.31-2.22,1.4-5.49,1.4-7.8V7.17h5.94A6.81,6.81,0,0,0,267,6l1.89-.4a7.62,7.62,0,0,1,.69,1.54h5.22Zm12.7,6.75a7.34,7.34,0,0,1-1.43,2c1.54.41,2.92.85,4,1.23l-1.47,1.46c-1.15-.46-2.66-.95-4.38-1.45a20.23,20.23,0,0,1-7.07,1.51,5.3,5.3,0,0,0-.71-1.6,23.3,23.3,0,0,0,5.13-.65c-1.09-.27-2.2-.53-3.37-.77.44-.49.91-1.07,1.39-1.71h-3.38V14h4.44c.18-.3.35-.58.51-.88h-4V8.75h3.42V7.86h-4.14V6.24h13.7V7.86h-4.26v.89h3.75v4.41h-7.21l.78.19c-.11.23-.25.45-.38.69h7.63v1.62Zm-8.55-4h1.65V10.23h-1.65Zm2.86,4a6.82,6.82,0,0,1-.57.78l2.77.65a5.05,5.05,0,0,0,1.41-1.43Zm.55-6.91h1.77V7.86h-1.77Zm1.77,2.94V10.23h-1.77v1.46Zm1.77-1.46v1.46h1.88V10.23Zm19.72,1.23a38.5,38.5,0,0,1-3,3,11.48,11.48,0,0,0,3.89,2.86A8.14,8.14,0,0,0,305.11,19,12.74,12.74,0,0,1,300,13.75v4.31c0,1.12-.22,1.62-.88,1.94a7.16,7.16,0,0,1-3.07.37,7.55,7.55,0,0,0-.63-2c.95.05,1.94,0,2.25,0s.41-.09.41-.39V15.63c-1.79,1.16-3.66,2.32-5.19,3.24l-1.19-1.7c1.51-.77,4.05-2.17,6.38-3.51V9.87h-5.91V8.06h5.91V5.72H300V8.06h3.13A23.83,23.83,0,0,0,301,6.84l1.12-1.18A19.32,19.32,0,0,1,305,7.29l-.69.77H306V9.87H300v.19a14.62,14.62,0,0,0,1.59,3A22.16,22.16,0,0,0,304,10.31Zm-10.41,3a13.67,13.67,0,0,0-2.5-3l1.43-1a15,15,0,0,1,2.6,2.85Z"/><rect class="cls-17" x="0.14" y="0.29" width="711.82" height="439.83"/><line class="cls-17" x1="0.02" y1="22.45" x2="712.31" y2="22.45"/><line class="cls-17" x1="95.88" x2="95.88" y2="440.61"/><line class="cls-17" x1="235" x2="235" y2="440.61"/><text class="cls-18" transform="translate(244.44 57.19)">1.DNA文库溶解于Illumina Resuspension Buffer (RSB，10mM Tris-HCL <tspan x="0" y="24">8.0)或其他品牌建库试剂盒的对应缓冲液中；总量≥20 ng；</tspan><tspan x="0" y="48">OD260/280 =1.8-2.0；浓度≥1 ng/μL。文库片段适中，无过大或过小</tspan><tspan x="0" y="72">片段峰、不存在二聚体污染、多峰、大片段拖尾等情况</tspan><tspan x="0" y="96">2. 请客户提供以下信息，以利于针对性地采取措施，确保获得最高数</tspan><tspan x="0" y="120">据质量：</tspan><tspan x="26" y="144">• 文库类型：如全基因组文库（WGS文库）RNA-seq文库、miR</tspan><tspan x="438.61" y="144">-</tspan><tspan x="26" y="168">NA-seq文库、whole exome-seq（WES）文库、简化基因组、甲</tspan><tspan x="26" y="192">基化文库（RRBS&amp;WGBS）、Amplicon文库、16S rDNA扩增子扩</tspan><tspan x="26" y="216">增子、FFPE样本构建的WES文库等等；</tspan><tspan x="26" y="240">• 文库的混合比例(pooling ratio)；</tspan><tspan x="26" y="264">• 文库中所使用的Index序列表及Index长度,并注明i7 index是否与建</tspan><tspan x="26" y="288">库说明书上的序列反向互补；</tspan><tspan x="26" y="312">• 插入片段长度或者文库的整体长度，文库浓度，Agilent 2200 </tspan><tspan x="26" y="336">TapeStation质检图（用于检查文库的片段长度分布）；</tspan><tspan class="cls-19"><tspan x="26" y="360">• 建库所用试剂盒名称及版本（用于判断与Illumina平台的兼容性）。</tspan></tspan></text></g></g></svg>