<svg xmlns="http://www.w3.org/2000/svg" viewBox="0 0 721.18 660.86"><defs><style>.cls-1{fill:#f2f2f2;}.cls-2{font-size:23.92px;font-family:AdobeSongStd-Light-GBpc-EUC-H, Adobe Song Std;}.cls-3,.cls-66{fill:none;stroke:#3e3a39;}.cls-3{stroke-width:0.5px;}.cls-30,.cls-33,.cls-4,.cls-58,.cls-7{font-size:15.95px;}.cls-22,.cls-23,.cls-30,.cls-33,.cls-4,.cls-58,.cls-7{fill:#3e3a39;}.cls-23,.cls-33,.cls-4,.cls-58,.cls-7{font-family:PingFangSC-Regular-GBpc-EUC-H, PingFang SC;}.cls-5{letter-spacing:0.25em;}.cls-6{letter-spacing:-0.02em;}.cls-21,.cls-7{letter-spacing:-0.07em;}.cls-8{letter-spacing:-0.02em;}.cls-9{letter-spacing:-0.02em;}.cls-10{letter-spacing:0em;}.cls-11{letter-spacing:-0.03em;}.cls-12{letter-spacing:-0.01em;}.cls-13{letter-spacing:-0.01em;}.cls-14{letter-spacing:-0.02em;}.cls-15{letter-spacing:-0.01em;}.cls-16{letter-spacing:-0.02em;}.cls-17{letter-spacing:-0.05em;}.cls-18{letter-spacing:-0.01em;}.cls-19,.cls-58{letter-spacing:0.25em;}.cls-20{letter-spacing:-0.01em;}.cls-23{font-size:9.3px;}.cls-24{letter-spacing:0.05em;}.cls-25{letter-spacing:0.25em;}.cls-26{letter-spacing:-0.01em;}.cls-27{letter-spacing:0em;}.cls-28{letter-spacing:0em;}.cls-29{letter-spacing:0.05em;}.cls-30{font-family:PingFangSC-Semibold-GBpc-EUC-H, PingFang SC;}.cls-31{letter-spacing:0.06em;}.cls-32{letter-spacing:0.06em;}.cls-33,.cls-35{letter-spacing:0.28em;}.cls-34{letter-spacing:0.11em;}.cls-36{letter-spacing:0.07em;}.cls-37{letter-spacing:0.05em;}.cls-38{letter-spacing:0.11em;}.cls-39{letter-spacing:0.03em;}.cls-40{letter-spacing:0.02em;}.cls-41{letter-spacing:0.26em;}.cls-42{letter-spacing:0.03em;}.cls-43{letter-spacing:0.07em;}.cls-44{letter-spacing:0.09em;}.cls-45{letter-spacing:0.25em;}.cls-46{letter-spacing:0.01em;}.cls-47{letter-spacing:0.03em;}.cls-48{letter-spacing:-0.03em;}.cls-49{letter-spacing:0.3em;}.cls-50{letter-spacing:0.21em;}.cls-51{letter-spacing:-0.03em;}.cls-52{letter-spacing:-0.01em;}.cls-53{letter-spacing:0.04em;}.cls-54{letter-spacing:0.26em;}.cls-55{letter-spacing:0.04em;}.cls-56{letter-spacing:0.04em;}.cls-57{letter-spacing:0.07em;}.cls-59{letter-spacing:0.33em;}.cls-60{letter-spacing:0.33em;}.cls-61{letter-spacing:0.25em;}.cls-62{letter-spacing:0.31em;}.cls-63{letter-spacing:0.15em;}.cls-64{letter-spacing:0.29em;}.cls-65{letter-spacing:0.29em;}.cls-66{stroke-width:0.28px;}</style></defs><title>资源 4</title><g id="图层_2" data-name="图层 2"><g id="图层_1-2" data-name="图层 1"><rect class="cls-1" x="0.44" y="0.28" width="720.74" height="25.39"/><text class="cls-2" transform="translate(0.79 21.83)"> </text><rect class="cls-3" x="0.29" y="0.28" width="720.6" height="660.08"/><text class="cls-4" transform="translate(12.72 75.53)">gDNA</text><text class="cls-4" transform="translate(12.72 179.18)">gDN<tspan class="cls-5" x="32.15" y="0">A</tspan><tspan x="46.61" y="0">和</tspan></text><text class="cls-4" transform="translate(12.72 203.1)">FFPE gDNA</text><text class="cls-4" transform="translate(12.72 338.64)">Ampli<tspan class="cls-6" x="41.28" y="0">c</tspan><tspan x="49.64" y="0">on</tspan></text><text class="cls-7" transform="translate(12.72 470.2)">T<tspan class="cls-8" x="8.69" y="0">o</tspan><tspan class="cls-9" x="17.75" y="0">t</tspan><tspan class="cls-10" x="23.03" y="0">al RNA</tspan></text><text class="cls-7" transform="translate(12.72 589.8)">T<tspan class="cls-8" x="8.69" y="0">o</tspan><tspan class="cls-9" x="17.75" y="0">t</tspan><tspan class="cls-10" x="23.03" y="0">al RNA</tspan></text><text class="cls-4" transform="translate(122.34 66.89)">HiSeq X</text><text class="cls-4" transform="translate(122.34 90.81)">全基因组测序</text><text class="cls-4" transform="translate(122.34 166.55)">I<tspan class="cls-11" x="3.78" y="0">D</tspan><tspan x="14.62" y="0">T </tspan><tspan class="cls-12" x="29.8" y="0">x</tspan><tspan x="37.76" y="0">Gen </tspan><tspan class="cls-13" x="72.76" y="0">e</tspan><tspan class="cls-14" x="81.5" y="0">x</tspan><tspan x="89.31" y="0">ome </tspan></text><text class="cls-4" transform="translate(122.34 190.47)"><tspan class="cls-15">r</tspan><tspan x="5.66" y="0">es</tspan><tspan class="cls-16" x="22.56" y="0">e</tspan><tspan x="31.17" y="0">a</tspan><tspan class="cls-15" x="40.09" y="0">r</tspan><tspan x="45.75" y="0">ch </tspan><tspan class="cls-17" x="68.65" y="0">P</tspan><tspan class="cls-10" x="78.12" y="0">anel V2</tspan></text><text class="cls-4" transform="translate(122.34 214.39)">全外显子组测序</text><text class="cls-4" transform="translate(122.34 341.96)">扩增子测序</text><text class="cls-4" transform="translate(122.34 457.57)">• Oli<tspan class="cls-18" x="33.34" y="0">g</tspan><tspan x="42.53" y="0">o d</tspan><tspan class="cls-19" x="66.53" y="0">T</tspan><tspan x="80.38" y="0">捕获</tspan></text><text class="cls-4" transform="translate(122.34 481.49)">mRN<tspan class="cls-5" x="35.88" y="0">A</tspan><tspan x="50.34" y="0">测序</tspan></text><text class="cls-4" transform="translate(122.34 581.15)">• rRNA depl<tspan class="cls-20" x="88.42" y="0">e</tspan><tspan x="97.1" y="0">tion </tspan></text><text class="cls-4" transform="translate(122.34 605.07)"><tspan class="cls-21">T</tspan><tspan class="cls-8" x="8.69" y="0">o</tspan><tspan class="cls-9" x="17.75" y="0">t</tspan><tspan class="cls-10" x="23.03" y="0">al RN</tspan><tspan class="cls-19" x="63.24" y="0">A</tspan><tspan x="77.7" y="0">测序</tspan></text><path class="cls-22" d="M298.33,43.48a2,2,0,1,1,2,2.14A2,2,0,0,1,298.33,43.48Zm21,0a8.88,8.88,0,0,0,3.58,2.46,4.71,4.71,0,0,0-.78.9,9.68,9.68,0,0,1-4-3.36h-5A11,11,0,0,1,309,47a4.43,4.43,0,0,0-.77-.91,9.09,9.09,0,0,0,3.6-2.66h-3.44v-1h3.16V37.36H309.1v-1h2.42V34.84h1.16v1.53h5.79V34.84h1.19v1.53h2.39v1h-2.39v5.09h3.08v1ZM316.11,48h5.5v1h-12V48h5.34V46.27h-3.25v-1h3.25V44h1.18V45.3h3.33v1h-3.33Zm-3.43-10.59v1.07h5.79V37.36Zm0,3.06h5.79v-1.1h-5.79Zm0,2h5.79V41.32h-5.79Zm27.75-7v13.9h-1.15V48.6h-11v.78h-1.1V35.48Zm-1.15,12.1v-11h-11v11Zm-5.07-6.66a7.25,7.25,0,0,1-.16.81,29.16,29.16,0,0,1,4.29,4.49l-.84.71a30.42,30.42,0,0,0-3.72-4.15,6.7,6.7,0,0,1-3.81,4.3,4.33,4.33,0,0,0-.73-.94,6.2,6.2,0,0,0,3.81-5.22h-3.83V39.83h4c.08-.81.13-1.69.16-2.59h1.17c0,.9-.08,1.76-.16,2.59h4v1.09Zm16.25,2.13a5.44,5.44,0,0,0,0,1c-4.32.88-4.87,1-5.22,1.2a5.9,5.9,0,0,0-.35-1,3.37,3.37,0,0,0,1.26-1.07,25.77,25.77,0,0,0,1.79-2.2,11.64,11.64,0,0,0-2.81.49,8.62,8.62,0,0,0-.35-1.11c.29-.07.58-.43.94-1a23.51,23.51,0,0,0,2.34-4.53l1.07.51a28.89,28.89,0,0,1-2.75,4.81l2.29-.25c.37-.56.73-1.13,1.05-1.69l.94.56A33.19,33.19,0,0,1,347,43.69Zm0,3.92c-1.9.5-3.88,1-5.38,1.37l-.2-1.14c1.35-.26,3.42-.77,5.46-1.23Zm8.81,1v1.09H350.1V48h1.61V35.63h6.19V48Zm-6.42-11.25v3h3.88v-3Zm0,7.09h3.88v-3h-3.88Zm0,4.16h3.88V44.87h-3.88Zm13.3-11.47h2.93c3.58,0,5.51,2.08,5.51,5.8s-1.93,5.88-5.45,5.88h-3ZM369,47c2.76,0,4.11-1.72,4.11-4.67s-1.35-4.61-4.11-4.61h-1.32V47Zm8.15-10.47h1.53l4.26,7.36,1.24,2.41h.08c-.08-1.18-.19-2.49-.19-3.7V36.49h1.4V48.17h-1.51l-4.26-7.38-1.26-2.41h-.06c.06,1.18.17,2.43.17,3.65v6.14h-1.4ZM394,44.6H389.7l-1.13,3.57h-1.5l4-11.68h1.64l4,11.68h-1.57Zm-.37-1.18L393,41.63c-.43-1.32-.79-2.59-1.18-4h-.06c-.37,1.37-.75,2.63-1.16,4l-.58,1.79Zm21.75,4.37c0,.76-.21,1.11-.72,1.32a10.3,10.3,0,0,1-3,.19,4.77,4.77,0,0,0-.4-1.15c1.11.05,2.2,0,2.48,0s.43-.11.43-.41V44.53H409.9v4.71h-1.18V44.53h-4a9.21,9.21,0,0,1-2,4.95,3.84,3.84,0,0,0-.91-.79c1.76-2,1.91-4.78,1.91-7V36h11.61Zm-6.63-4.39V40.76h-3.81v.94c0,.52,0,1.11-.07,1.7Zm-3.81-6.31v2.55h3.81V37.09Zm9.27,0H409.9v2.55h4.28Zm0,6.31V40.76H409.9V43.4Zm9.18-6.91h6.74v1.24h-5.26V41.4h4.43v1.25h-4.43v4.26h5.43v1.26h-6.91Zm9.37,0h3.48c2.37,0,4,.79,4,2.85a2.54,2.54,0,0,1-1.72,2.53V42a2.7,2.7,0,0,1,2.39,2.79c0,2.3-1.81,3.43-4.43,3.43h-3.73Zm3.22,5c2,0,2.82-.75,2.82-1.93,0-1.37-.94-1.88-2.75-1.88h-1.81v3.81Zm.3,5.53c2,0,3.19-.72,3.19-2.3s-1.15-2.1-3.19-2.1h-2V47Zm12.92.29h-.05l-.13.89h-1.16V35.48h1.45V39l0,1.56a4.35,4.35,0,0,1,2.71-1.23c2.25,0,3.46,1.75,3.46,4.4,0,3-1.77,4.69-3.76,4.69A3.84,3.84,0,0,1,449.17,47.28Zm4.72-3.56c0-1.91-.64-3.2-2.28-3.2a3.58,3.58,0,0,0-2.33,1.19v4.55a3.32,3.32,0,0,0,2.12.9C452.84,47.16,453.89,45.87,453.89,43.72ZM457.57,45V39.51H459v5.31c0,1.61.48,2.3,1.63,2.3.89,0,1.51-.43,2.34-1.47V39.51h1.45v8.66h-1.21l-.11-1.36h-.05a3.71,3.71,0,0,1-2.87,1.57C458.39,48.38,457.57,47.2,457.57,45Zm18.75-8.34a2.52,2.52,0,0,0-1-.22c-.83,0-1.23.59-1.23,1.7v1.37H476v1.18h-1.84v7.48h-1.45V40.69h-3.62v7.48H467.6V40.69h-1.18v-1.1l1.18-.08V38.35c0-1.78.9-2.9,2.68-2.9a4.22,4.22,0,0,1,1.6.3l-.31,1.12a2.56,2.56,0,0,0-1.16-.26c-.86,0-1.36.64-1.36,1.79v1.11h3.62V38.13c0-1.76.8-2.85,2.54-2.85a3.8,3.8,0,0,1,1.43.28Zm.47,7.19c0-2.81,1.9-4.56,3.9-4.56,2.2,0,3.45,1.6,3.45,4.07a4.55,4.55,0,0,1-.07.82h-5.83a2.87,2.87,0,0,0,2.87,3,3.75,3.75,0,0,0,2.17-.68l.52.95a5.1,5.1,0,0,1-2.87.9C478.64,48.38,476.79,46.7,476.79,43.85Zm6.07-.7c0-1.75-.79-2.7-2.15-2.7s-2.31,1-2.49,2.7Zm3.42-3.64h1.19l.13,1.58h0a3,3,0,0,1,2.45-1.8,1.88,1.88,0,0,1,.93.19l-.27,1.28a2.11,2.11,0,0,0-.85-.15c-.72,0-1.61.51-2.18,2v5.56h-1.45ZM503.7,46.8c-2.44.52-5,1.08-6.88,1.5l-.23-1.2c1.72-.33,4.43-.88,7-1.42ZM509.79,40A18.76,18.76,0,0,1,507,45.54c.59,1.64,1.31,2.63,2.09,2.63.44,0,.63-.83.73-3a2.73,2.73,0,0,0,1,.67c-.21,2.72-.66,3.51-1.89,3.51s-2.15-1-2.86-2.76a14.83,14.83,0,0,1-3.37,2.74,7.21,7.21,0,0,0-.92-.91,12.62,12.62,0,0,0,3.82-3.12,35.19,35.19,0,0,1-1.11-6.81h-7.83V37.38h7.76c0-.83-.06-1.66-.08-2.5h1.25c0,.86,0,1.69,0,2.5h4.78v1.16h-4.7a32.74,32.74,0,0,0,.82,5.56,17,17,0,0,0,2.06-4.43Zm-6.69,0v4.82h-5.5V39.94Zm-1.17,1H498.7v2.76h3.23Zm7.32-3.62a11.65,11.65,0,0,0-2.7-1.73l.69-.74A12.48,12.48,0,0,1,510,36.53Zm8.4-.87h1.53l4.26,7.36,1.24,2.41h.08c-.08-1.18-.19-2.49-.19-3.7V36.49H526V48.17h-1.51l-4.26-7.38L519,38.38h-.07c.07,1.18.18,2.43.18,3.65v6.14h-1.41Zm11.52,0h6.74v1.24h-5.26v4h4.46v1.25h-4.46v5.24h-1.48Zm18.27,2.66c-.77,4.14-2.63,7.09-4.88,8.67a3.8,3.8,0,0,0-.94-.89,11.23,11.23,0,0,0,4.4-6.86h-3.89V38.89h4.3l.24,0Zm7.54-.58a35.56,35.56,0,0,1-3.56,3.59,13.17,13.17,0,0,0,5,4.51,5.52,5.52,0,0,0-.88,1.07,15.23,15.23,0,0,1-6-6.7v6.73c0,.78-.19,1.16-.66,1.37a6.74,6.74,0,0,1-2.48.26,4.91,4.91,0,0,0-.45-1.3c.91,0,1.74,0,2,0s.36-.1.36-.37V34.88h1.25V38.7a18.69,18.69,0,0,0,1.27,2.58,24.72,24.72,0,0,0,3.08-3.47ZM562.75,42a21.74,21.74,0,0,0-2.91-1.72l.64-.87A21.22,21.22,0,0,1,563.41,41Zm1.09,2.11c-.7,1.67-1.68,3.66-2.47,5.13l-1.07-.7a49.28,49.28,0,0,0,2.6-5.12Zm-.51-6.28a18,18,0,0,0-2.77-1.85l.65-.85a19.91,19.91,0,0,1,2.84,1.74Zm6.58,2.58c-.1.14-.17.3-.27.43a15.5,15.5,0,0,0,4.84,3.3,5,5,0,0,0-.55,1c-.42-.22-.88-.46-1.33-.75v5h-1.13v-.59h-4.79v.64h-1.09V44.6c-.35.22-.7.43-1.07.64a4,4,0,0,0-.76-.78,13.61,13.61,0,0,0,5-4.48Zm-1.64-1.66a13.44,13.44,0,0,1-3.12,3.09,8.52,8.52,0,0,0-.87-.78,9.81,9.81,0,0,0,2.94-2.67Zm-2.74.59h-1.09V36.65h4.4c-.2-.5-.51-1.1-.76-1.57l1.07-.33a17.1,17.1,0,0,1,1,1.9H574v2.64h-1.11V37.65h-7.38Zm6.88,5A19.71,19.71,0,0,1,569,41.59a15.25,15.25,0,0,1-3,2.67Zm-.94,3.49v-2.5h-4.79v2.5Zm-.64-9.46a30.27,30.27,0,0,1,3,2.67l-.88.71a24.6,24.6,0,0,0-3-2.81ZM584.91,48c0,.51-.1.81-.45,1a3.44,3.44,0,0,1-1.61.2,3.43,3.43,0,0,0-.32-1c.56,0,1,0,1.15,0s.23,0,.23-.22v-2.4h-1.44v2.92h-.86V45.63h-1.55a8.75,8.75,0,0,1-1.19,3.81,3.16,3.16,0,0,0-.86-.55c1.07-1.68,1.18-4,1.18-5.82V40.14c-.11.14-.24.28-.35.43a6.18,6.18,0,0,0-.86-.69,12.27,12.27,0,0,0,2.48-5.05l1.07.22c-.11.4-.24.8-.37,1.2h2.2l.18,0,.72.46a18.77,18.77,0,0,1-1,2.19h1.66Zm-4.1-10.85c-.25.57-.51,1.15-.79,1.66h2.13a11.38,11.38,0,0,0,.72-1.66Zm.8,7.5v-2.1h-1.4v.49c0,.5,0,1.06-.05,1.61Zm-1.4-3h1.4V39.79h-1.4Zm2.26,0h1.44V39.79h-1.44Zm1.44,3v-2.1h-1.44v2.1Zm4.86-8A5.28,5.28,0,0,1,585.85,41a3.41,3.41,0,0,0-.65-.82,4.28,4.28,0,0,0,2.5-3.49h-2.17v-1h6.68s0,.3,0,.46c-.12,2.62-.27,3.64-.6,4a1.12,1.12,0,0,1-.86.4,15.84,15.84,0,0,1-1.65,0,2.73,2.73,0,0,0-.28-1,13.17,13.17,0,0,0,1.43.07c.23,0,.35,0,.46-.15a7.64,7.64,0,0,0,.4-2.78Zm3.87,9.69h-2.77v3h-1.12v-3h-3.2v-1h3.2V43.36H587a7.43,7.43,0,0,1-.83,1.54,7,7,0,0,0-.9-.49,8.8,8.8,0,0,0,1.43-3.56l1,.19c-.1.45-.22.87-.35,1.3h1.37V40.82h1.12v1.52h2.37v1h-2.37V45.3h2.77Zm3,3.57a3,3,0,0,0,2-2.7,1,1,0,0,1-.29,0,1.09,1.09,0,0,1-1.19-1.14A1.13,1.13,0,0,1,597.43,45c.88,0,1.37.75,1.37,1.94A4,4,0,0,1,596,50.73Zm.46-10.67a1.2,1.2,0,1,1,1.19,1.18A1.16,1.16,0,0,1,596.14,39.24ZM612.33,48a9.1,9.1,0,0,0,1.5-3.41l1.1.22a10.06,10.06,0,0,1-1.52,3.71Zm12.26-4.91h-10v-5h2.75a12.67,12.67,0,0,0-1.61-2.68l1-.46a10.85,10.85,0,0,1,1.69,2.66l-1,.48h3.26a18.18,18.18,0,0,0,1.74-3.19l1.21.49c-.51.9-1.1,1.89-1.64,2.7h2.57Zm-1.29-3.91h-7.46V42h7.46Zm-1.39,9c.78,0,.91-.23,1-1.61A4,4,0,0,0,624,47c-.18,1.8-.56,2.24-2,2.24h-3.56c-1.88,0-2.34-.33-2.34-1.62V44.31h1.21v3.27c0,.48.19.56,1.19.56ZM619,43.21a14.29,14.29,0,0,1,2.87,2.5l-.86.77a13.65,13.65,0,0,0-2.84-2.6Zm5.55,1a12.5,12.5,0,0,1,2.25,3.47l-1,.59a13.71,13.71,0,0,0-2.2-3.54ZM645,48.06V49H630.61v-.92h6.57v-.91h-5.26V46.3h5.26v-.86H632.4v-4h10.92v4h-5v.86h5.29v.85h-5.29v.91Zm-.14-7.3H630.69v-.91h14.14Zm-2-1.53H632.69V35.35h10.18Zm-9.37,3.9h3.68v-.92H633.5Zm3.68,1.58v-.94H633.5v.94Zm4.51-8.64h-7.87V37h7.87Zm0,1.53h-7.87v.91h7.87Zm.46,4.61h-3.82v.92h3.82Zm0,1.56h-3.82v.94h3.82Zm17.26-3.38v0L650,36.55l.41-1,11.89,4.81v0L650.44,45.2l-.41-1Zm-9.35,7.2L662,42.78l.39,1-11.91,4.81ZM670,47h2.59V38.24h-2.07v-.92a7.81,7.81,0,0,0,2.43-.83H674V47h2.34v1.21H670Zm8.91-7.45h1.45v5.31c0,1.52.46,2.3,1.59,2.3.79,0,1.49-.26,2.3-1.68V39.51h1.47c0,2.35-.1,4.88-.1,7,0,.49.26.68.64.68a1.89,1.89,0,0,0,.51-.09l.19,1.1a2.16,2.16,0,0,1-1,.21c-1,0-1.45-.51-1.56-1.68h0a2.8,2.8,0,0,1-2.43,1.64,1.72,1.72,0,0,1-1.67-.82c0,1.7,0,2.47.13,3.82h-1.47Zm9.35,10.32a2.41,2.41,0,0,1,1.29-2V47.8a1.55,1.55,0,0,1-.8-1.42,2.14,2.14,0,0,1,1-1.61v-.06a3,3,0,0,1-1.13-2.33,3.09,3.09,0,0,1,3.25-3.09,3.58,3.58,0,0,1,1.21.22h3v1.12h-1.76a2.5,2.5,0,0,1,.7,1.79,3,3,0,0,1-3.16,3,2.88,2.88,0,0,1-1.29-.31,1.31,1.31,0,0,0-.56,1c0,.56.35.94,1.52.94h1.69c2,0,3,.64,3,2.06,0,1.61-1.69,3-4.37,3C689.68,52.15,688.22,51.32,688.22,49.83Zm6.55-.45c0-.8-.63-1.07-1.77-1.07h-1.5a5.27,5.27,0,0,1-1.12-.14,1.81,1.81,0,0,0-.89,1.46c0,.93.94,1.53,2.52,1.53S694.77,50.29,694.77,49.38Zm-1.14-7a1.85,1.85,0,1,0-3.68,0,1.85,1.85,0,1,0,3.68,0Zm5.09,7.53a3,3,0,0,0,2-2.7,1,1,0,0,1-.29,0,1.09,1.09,0,0,1-1.19-1.14A1.13,1.13,0,0,1,700.48,45c.87,0,1.37.75,1.37,1.94a4,4,0,0,1-2.76,3.84Zm.47-10.67A1.17,1.17,0,0,1,700.38,38a1.19,1.19,0,0,1,1.21,1.21,1.17,1.17,0,0,1-1.21,1.18A1.15,1.15,0,0,1,699.19,39.24Z"/><text class="cls-4" transform="translate(297.61 70.09)">OD</text><text class="cls-23" transform="translate(320.41 72.87)">260/280 </text><text class="cls-4" transform="translate(357.09 70.09)">=1.8-2.0；浓度<tspan class="cls-5" x="110.65" y="0">≥</tspan><tspan x="127.2" y="0">50 n</tspan><tspan class="cls-24" x="160.56" y="0">g</tspan><tspan x="170.81" y="0">/μL。</tspan></text><text class="cls-4" transform="translate(297.63 97.66)">• DN<tspan class="cls-25" x="36.01" y="0">A</tspan><tspan x="50.44" y="0">完整纯净</tspan><tspan class="cls-13" x="114.22" y="0">，</tspan><tspan x="130.06" y="0">无降解</tspan><tspan class="cls-26" x="177.9" y="0">，</tspan><tspan class="cls-27" x="193.73" y="0">无细胞凋亡</tspan><tspan class="cls-26" x="273.46" y="0">，</tspan><tspan class="cls-25" x="289.3" y="0">无</tspan><tspan x="309.2" y="0">RNA</tspan><tspan class="cls-13" x="341.92" y="0">、</tspan><tspan x="357.75" y="0">蛋白质、</tspan></text><text class="cls-4" transform="translate(297.63 119.58)">多糖、试剂成分等残留或污染。干冰或冰袋运送。</text><path class="cls-22" d="M298.35,142.47a2,2,0,1,1,2,2.14A2,2,0,0,1,298.35,142.47Zm22.6,0a8.7,8.7,0,0,0,3.58,2.45,5.09,5.09,0,0,0-.78.91,9.84,9.84,0,0,1-4.05-3.36h-5a11,11,0,0,1-4.16,3.57,4.18,4.18,0,0,0-.77-.91,9.33,9.33,0,0,0,3.6-2.66H310v-1h3.16v-5.09h-2.43v-1h2.43v-1.53h1.16v1.53h5.79v-1.53h1.19v1.53h2.39v1h-2.39v5.09h3.08v1Zm-3.25,4.49h5.49v1h-12v-1h5.34v-1.67h-3.25v-1h3.25V143h1.18v1.34H321v1H317.7Zm-3.43-10.58v1.07h5.79v-1.07Zm0,3.06h5.79v-1.1h-5.79Zm0,2h5.79V140.3h-5.79Zm26.85-7v13.9H340v-.78H329v.78h-1.1v-13.9ZM340,146.57v-11H329v11Zm-5.07-6.66c0,.28-.09.54-.16.81a29.19,29.19,0,0,1,4.29,4.49l-.85.7a30.25,30.25,0,0,0-3.71-4.14,6.73,6.73,0,0,1-3.81,4.3,4.33,4.33,0,0,0-.73-.94,6.22,6.22,0,0,0,3.81-5.22h-3.83v-1.09h4c.08-.81.13-1.69.16-2.6h1.16c0,.91-.08,1.77-.16,2.6h4v1.09ZM350.24,142a6.52,6.52,0,0,0,0,1c-4.32.88-4.86,1-5.21,1.19a7.77,7.77,0,0,0-.35-1,3.29,3.29,0,0,0,1.26-1.06,24.33,24.33,0,0,0,1.78-2.2,11.45,11.45,0,0,0-2.8.49,9.86,9.86,0,0,0-.35-1.11c.28-.07.57-.43.94-1a23.61,23.61,0,0,0,2.34-4.52l1.07.51a28.92,28.92,0,0,1-2.76,4.81l2.3-.25c.36-.56.73-1.14,1.05-1.69l.94.55a32.77,32.77,0,0,1-3.68,4.93Zm0,3.92c-1.9.5-3.87,1-5.37,1.37l-.21-1.15c1.36-.25,3.43-.76,5.47-1.22Zm8.81,1V148h-9.16V147h1.61V134.61h6.18V147Zm-6.42-11.25v3h3.89v-3Zm0,7.09h3.89v-3h-3.89Zm0,4.16h3.89v-3.09h-3.89Zm13.08-11.48h2.93c3.59,0,5.51,2.09,5.51,5.81s-1.92,5.88-5.45,5.88h-3Zm2.8,10.48c2.76,0,4.11-1.73,4.11-4.67s-1.35-4.61-4.11-4.61h-1.32V146Zm8.15-10.48h1.53l4.26,7.37,1.24,2.4h.08c-.08-1.18-.19-2.48-.19-3.69v-6.08H385v11.69h-1.51l-4.26-7.38L378,137.37h-.06c.06,1.18.18,2.42.18,3.65v6.14h-1.41Zm16.87,8.12h-4.27l-1.13,3.57h-1.5l4-11.69h1.64l4,11.69h-1.56Zm-.37-1.18-.55-1.79c-.43-1.32-.8-2.6-1.18-4h-.07c-.36,1.37-.75,2.63-1.16,4l-.57,1.79Zm21.52,4.36c0,.77-.2,1.12-.71,1.33a10.77,10.77,0,0,1-3,.19,4.77,4.77,0,0,0-.4-1.15c1.12.05,2.2,0,2.49,0s.43-.11.43-.41v-3.24h-4.29v4.7h-1.18v-4.7h-4a9.15,9.15,0,0,1-2,4.94,4.23,4.23,0,0,0-.91-.78c1.75-2,1.91-4.78,1.91-7V135h11.6Zm-6.63-4.38v-2.64h-3.81v.94c0,.52,0,1.11-.06,1.7Zm-3.81-6.31v2.55h3.81v-2.55Zm9.28,0h-4.29v2.55h4.29Zm0,6.31v-2.64h-4.29v2.64Zm9-6.92h6.74v1.25H424v3.66h4.43v1.26H424v4.26h5.43v1.26h-6.91Zm9.37,0h3.48c2.37,0,4,.8,4,2.86a2.54,2.54,0,0,1-1.72,2.53v.08a2.7,2.7,0,0,1,2.39,2.79c0,2.3-1.81,3.43-4.43,3.43h-3.73Zm3.22,5c2,0,2.82-.75,2.82-1.93,0-1.37-.94-1.88-2.75-1.88h-1.8v3.81Zm.31,5.53c2,0,3.18-.72,3.18-2.3s-1.14-2.1-3.18-2.1h-2V146Zm12.91.28h0l-.12.9h-1.17V134.47h1.45v3.47l-.05,1.57a4.38,4.38,0,0,1,2.71-1.23c2.25,0,3.46,1.75,3.46,4.4,0,3-1.77,4.68-3.76,4.68A3.79,3.79,0,0,1,448.28,146.26Zm4.72-3.55c0-1.91-.64-3.2-2.28-3.2a3.58,3.58,0,0,0-2.33,1.19v4.54a3.34,3.34,0,0,0,2.12.91C452,146.15,453,144.86,453,142.71Zm3.69,1.28V138.5h1.45v5.31c0,1.61.47,2.29,1.62,2.29.89,0,1.52-.43,2.34-1.46V138.5h1.45v8.66h-1.21l-.11-1.36h-.05a3.7,3.7,0,0,1-2.86,1.56C457.5,147.36,456.69,146.18,456.69,144Zm18.74-8.34a2.52,2.52,0,0,0-1-.22c-.83,0-1.23.59-1.23,1.7v1.37h1.84v1.18h-1.84v7.48h-1.45v-7.48h-3.61v7.48h-1.45v-7.48h-1.18v-1.1l1.18-.08v-1.16c0-1.79.89-2.9,2.67-2.9a4.22,4.22,0,0,1,1.6.3l-.31,1.12a2.56,2.56,0,0,0-1.16-.26c-.86,0-1.35.64-1.35,1.79v1.11h3.61v-1.38c0-1.76.8-2.86,2.54-2.86a3.61,3.61,0,0,1,1.43.29Zm.47,7.19c0-2.81,1.9-4.56,3.91-4.56,2.19,0,3.44,1.59,3.44,4.06a4.59,4.59,0,0,1-.07.83h-5.83a2.87,2.87,0,0,0,2.87,3,3.75,3.75,0,0,0,2.17-.68l.52.95a5.09,5.09,0,0,1-2.87.89C477.75,147.36,475.9,145.69,475.9,142.84Zm6.07-.7c0-1.76-.79-2.7-2.15-2.7s-2.31,1-2.48,2.7Zm3.42-3.64h1.19l.13,1.58h.05a3,3,0,0,1,2.45-1.8,1.88,1.88,0,0,1,.93.19l-.27,1.28a2,2,0,0,0-.85-.15c-.72,0-1.61.51-2.18,2v5.57h-1.45Zm17.2,7.29-6.89,1.49-.22-1.19c1.72-.34,4.43-.88,7-1.42Zm6.08-6.84a18.41,18.41,0,0,1-2.82,5.58c.59,1.64,1.31,2.63,2.09,2.63.45,0,.64-.83.73-2.95a2.81,2.81,0,0,0,1,.67c-.21,2.72-.65,3.5-1.88,3.5s-2.15-1-2.87-2.75a14.78,14.78,0,0,1-3.36,2.74,7.3,7.3,0,0,0-.93-.91,12.66,12.66,0,0,0,3.83-3.12,34.39,34.39,0,0,1-1.12-6.81h-7.82v-1.16h7.76c-.05-.83-.06-1.66-.08-2.51h1.24c0,.87,0,1.69,0,2.51h4.78v1.16h-4.7a32.82,32.82,0,0,0,.83,5.56,17,17,0,0,0,2.05-4.43Zm-6.69,0v4.82h-5.5v-4.82Zm-1.16,1h-3.24v2.76h3.24Zm7.31-3.62a12.15,12.15,0,0,0-2.69-1.74l.68-.73a12.33,12.33,0,0,1,2.75,1.64Zm8.18-.88h1.53l4.26,7.37,1.24,2.4h.08c-.08-1.18-.19-2.48-.19-3.69v-6.08h1.4v11.69h-1.51l-4.26-7.38-1.25-2.41h-.07c.07,1.18.18,2.42.18,3.65v6.14h-1.41Zm11.52,0h6.74v1.25h-5.26v3.95h4.46v1.24h-4.46v5.25h-1.48Zm18,2.67c-.76,4.14-2.63,7.09-4.88,8.67a4,4,0,0,0-.94-.9,11.09,11.09,0,0,0,4.4-6.85h-3.89v-1.18h4.31l.24,0Zm7.54-.58a36.57,36.57,0,0,1-3.55,3.59,13.08,13.08,0,0,0,5,4.51,5.15,5.15,0,0,0-.87,1.07,15.25,15.25,0,0,1-6-6.7v6.73c0,.78-.19,1.16-.65,1.37a6.89,6.89,0,0,1-2.49.25,4.42,4.42,0,0,0-.45-1.29c.91,0,1.74,0,2,0s.37-.09.37-.36v-12.9H548v3.83a17.69,17.69,0,0,0,1.28,2.58,25.21,25.21,0,0,0,3.07-3.47Zm6.88,3.38a21.49,21.49,0,0,0-2.92-1.72l.64-.88a19.68,19.68,0,0,1,2.93,1.6Zm1.08,2.1c-.7,1.68-1.67,3.67-2.47,5.14l-1.07-.7a49.28,49.28,0,0,0,2.6-5.12Zm-.51-6.27a17.28,17.28,0,0,0-2.77-1.85l.65-.85a18.54,18.54,0,0,1,2.84,1.74Zm6.58,2.58c-.09.14-.17.3-.27.43a15.43,15.43,0,0,0,4.85,3.3,4.63,4.63,0,0,0-.56,1,15.07,15.07,0,0,1-1.32-.75v5H569v-.59h-4.79v.63h-1.09v-4.79c-.35.22-.7.43-1.06.63a4.72,4.72,0,0,0-.77-.78,13.48,13.48,0,0,0,5-4.48Zm-1.64-1.66a13.25,13.25,0,0,1-3.12,3.09,9.55,9.55,0,0,0-.86-.78,9.92,9.92,0,0,0,2.93-2.68Zm-2.74.59H562v-2.65h4.39a17.29,17.29,0,0,0-.76-1.56l1.07-.33a16.2,16.2,0,0,1,1,1.89h3.9v2.65h-1.11v-1.64h-7.38Zm6.88,5a18.83,18.83,0,0,1-3.37-2.68,15.33,15.33,0,0,1-3,2.68Zm-.94,3.49v-2.5h-4.79v2.5Zm-.63-9.46a29,29,0,0,1,3,2.67l-.88.7a23.86,23.86,0,0,0-3-2.8ZM581.54,147c0,.51-.1.81-.45,1a3.41,3.41,0,0,1-1.61.21,3.35,3.35,0,0,0-.32-1c.56,0,1,0,1.15,0s.22-.05.22-.23v-2.39H579.1v2.92h-.86v-2.92h-1.55a8.93,8.93,0,0,1-1.19,3.81,3.45,3.45,0,0,0-.86-.56c1.07-1.67,1.18-4,1.18-5.81v-2.94c-.11.15-.24.29-.35.43a7,7,0,0,0-.86-.68,12.27,12.27,0,0,0,2.48-5.05l1.07.22c-.11.4-.24.8-.37,1.2H580l.18-.05.72.46a20.43,20.43,0,0,1-1,2.18h1.66Zm-4.1-10.85c-.25.57-.51,1.14-.79,1.65h2.13a11.25,11.25,0,0,0,.72-1.65Zm.8,7.5v-2.1h-1.4v.49c0,.5,0,1.05-.05,1.61Zm-1.4-3h1.4v-1.92h-1.4Zm2.26,0h1.43v-1.92H579.1Zm1.43,3v-2.1H579.1v2.1Zm4.87-8.05a5.29,5.29,0,0,1-2.92,4.32,3.66,3.66,0,0,0-.65-.83,4.25,4.25,0,0,0,2.5-3.49h-2.17v-1h6.68s0,.3,0,.46c-.13,2.62-.27,3.64-.6,4a1.19,1.19,0,0,1-.86.4,15.84,15.84,0,0,1-1.65,0,2.67,2.67,0,0,0-.28-1,13.07,13.07,0,0,0,1.43.07c.23,0,.35,0,.46-.15a7.66,7.66,0,0,0,.4-2.79Zm3.87,9.69H586.5v3.05h-1.12v-3.05h-3.2v-1h3.2v-1.95h-1.74a7.52,7.52,0,0,1-.83,1.55,7,7,0,0,0-.9-.49,8.94,8.94,0,0,0,1.43-3.56l1,.19c-.1.45-.22.86-.35,1.29h1.37v-1.51h1.12v1.51h2.37v1H586.5v1.95h2.77Zm3,3.57a3,3,0,0,0,2-2.69,1,1,0,0,1-.29,0,1.1,1.1,0,0,1-1.19-1.15,1.13,1.13,0,0,1,1.21-1.14c.88,0,1.37.75,1.37,1.94a4,4,0,0,1-2.76,3.84Zm.46-10.66a1.2,1.2,0,1,1,1.19,1.18A1.16,1.16,0,0,1,592.77,138.23ZM608.06,147a9.07,9.07,0,0,0,1.5-3.42l1.1.23a10.06,10.06,0,0,1-1.52,3.71Zm12.26-4.91h-10v-5h2.74a11.66,11.66,0,0,0-1.61-2.68l1-.46a11.16,11.16,0,0,1,1.69,2.66l-1,.48h3.26a18.18,18.18,0,0,0,1.74-3.19l1.21.49c-.51.9-1.1,1.88-1.64,2.7h2.57Zm-1.3-3.91h-7.45v2.79H619Zm-1.38,9c.78,0,.91-.22,1-1.6a4,4,0,0,0,1.12.43c-.18,1.8-.56,2.24-2,2.24h-3.55c-1.88,0-2.34-.33-2.34-1.62V143.3h1.21v3.27c0,.48.19.55,1.19.55Zm-2.92-4.92a14.29,14.29,0,0,1,2.87,2.5l-.86.77a13.65,13.65,0,0,0-2.84-2.6Zm5.55,1a12.63,12.63,0,0,1,2.24,3.48l-1,.59a13.55,13.55,0,0,0-2.2-3.54Zm19.53,3.85V148H625.44v-.92H632v-.91h-5.26v-.85H632v-.86h-4.78v-4h10.91v4h-5v.86h5.3v.85h-5.3v.91Zm-.14-7.3H625.52v-.91h14.14Zm-2-1.53H627.51v-3.88H637.7Zm-9.37,3.9H632v-.92h-3.68ZM632,143.7v-.94h-3.68v.94Zm4.51-8.64h-7.88V136h7.88Zm0,1.53h-7.88v.91h7.88Zm.46,4.61h-3.83v.92H637Zm0,1.56h-3.83v.94H637Zm9.41-.56a14.93,14.93,0,0,1,2.34-8.08l.91.41a15.44,15.44,0,0,0,0,15.34l-.91.43A15,15,0,0,1,646.39,142.2Zm15.08,7.63a5.15,5.15,0,0,1-1.67.26,4.4,4.4,0,0,1-4.29-2.77c-2.55-.35-4.27-2.62-4.27-6,0-3.75,2-6,5-6s5,2.28,5,6c0,3.36-1.65,5.59-4.12,6a3,3,0,0,0,2.86,1.56,4.21,4.21,0,0,0,1.23-.17Zm-5.24-3.68c2.08,0,3.47-1.89,3.47-4.87s-1.39-4.74-3.47-4.74-3.48,1.8-3.48,4.74S654.12,146.15,656.23,146.15ZM663.5,144V138.5H665v5.31c0,1.61.48,2.29,1.63,2.29.89,0,1.51-.43,2.34-1.46V138.5h1.45v8.66h-1.21l-.11-1.36h0a3.73,3.73,0,0,1-2.87,1.56C664.31,147.36,663.5,146.18,663.5,144Zm11.13,2.27h0l-.13.9h-1.16V134.47h1.45v3.47l0,1.57a4.35,4.35,0,0,1,2.71-1.23c2.25,0,3.46,1.75,3.46,4.4,0,3-1.77,4.68-3.76,4.68A3.77,3.77,0,0,1,674.63,146.26Zm4.72-3.55c0-1.91-.64-3.2-2.28-3.2a3.56,3.56,0,0,0-2.33,1.19v4.54a3.34,3.34,0,0,0,2.12.91C678.29,146.15,679.35,144.86,679.35,142.71Zm3.52-6.93a1,1,0,0,1,2,0,1,1,0,0,1-2,0Zm.27,2.72h1.46v8.66h-1.46Zm4.64,6v-4.8h-1.29v-1.1l1.36-.08.17-2.42h1.22v2.42h2.34v1.18h-2.34v4.83c0,1.07.33,1.67,1.33,1.67a3,3,0,0,0,1-.22l.29,1.09a5.82,5.82,0,0,1-1.59.31C688.41,147.36,687.78,146.22,687.78,144.48Zm10-6.2a18.17,18.17,0,0,1,2.61,1.56l-.68.94a22.22,22.22,0,0,0-2.6-1.67Zm1.78,4.21,1,.62c-.58,1.66-1.36,3.62-2,5.07l-1.06-.62A48.93,48.93,0,0,0,699.53,142.49Zm-1.07-8.5a16.58,16.58,0,0,1,2.57,1.66l-.72.94a14.45,14.45,0,0,0-2.55-1.75Zm6,2.81v5.59c0,2.12-.44,4.53-3.29,6a3.3,3.3,0,0,0-.56-.73c2.66-1.36,2.95-3.33,2.95-5.23V136.8Zm2.32-2v9.86h-1v-9h-3.41v9h-.94v-9.91Zm-1.85,10.45a17.55,17.55,0,0,1,2.2,2.52l-.75.53a18.11,18.11,0,0,0-2.19-2.6Zm4.06-10v9.47H708v-9.47Zm2.2-1.23v13c0,.67-.16.95-.54,1.13a6.28,6.28,0,0,1-2.2.19,4.71,4.71,0,0,0-.35-1c.84,0,1.58,0,1.8,0s.32-.08.32-.32V134Z"/><text class="cls-4" transform="translate(297.63 169.08)"><tspan class="cls-19">定)≥</tspan><tspan x="45.78" y="0">0.5μg1；OD</tspan></text><text class="cls-23" transform="translate(435.57 171.87)">260/280 </text><text class="cls-4" transform="translate(472.28 169.09)">=1.8-2.0；浓度<tspan class="cls-5" x="110.65" y="0">≥</tspan><tspan x="127.2" y="0">20</tspan><tspan class="cls-28" x="146.34" y="0"> </tspan><tspan x="151.69" y="0">n</tspan><tspan class="cls-29" x="160.61" y="0">g</tspan><tspan class="cls-27" x="170.88" y="0">/μL。干冰</tspan></text><text class="cls-4" transform="translate(297.63 191.02)">或冰袋运送。</text><text class="cls-30" transform="translate(297.63 218.59)">注<tspan class="cls-31" x="15.95" y="0" xml:space="preserve">  </tspan><tspan x="28.45" y="0">意：</tspan></text><text class="cls-4" transform="translate(354.6 218.59)">FFPE<tspan class="cls-32" x="38.8" y="0"> </tspan><tspan x="45.03" y="0">gDN</tspan><tspan class="cls-19" x="77.18" y="0">A</tspan><tspan x="91.64" y="0">根据降解程度判定建库策略，并在质检</tspan></text><text class="cls-4" transform="translate(297.63 240.51)">后与客户沟<tspan class="cls-19" x="79.73" y="0">通;</tspan><tspan x="107.86" y="0">若样本来源为非人源物种，请特别指明。 </tspan></text><path class="cls-22" d="M298.35,263.4a2,2,0,1,1,2,2.14A2,2,0,0,1,298.35,263.4Zm11-7h3.33c2.63,0,4.38.87,4.38,3.42s-1.75,3.62-4.3,3.62h-1.93v4.64h-1.48Zm3.22,5.84c2,0,3-.74,3-2.42s-1-2.23-3.1-2.23h-1.67v4.65Zm6.19,0c0-3.77,2.21-6.07,5.18-6.07a4.32,4.32,0,0,1,3.2,1.45l-.8,1a3.19,3.19,0,0,0-2.39-1.12c-2.21,0-3.68,1.82-3.68,4.74s1.4,4.79,3.63,4.79a3.55,3.55,0,0,0,2.71-1.3l.82.92a4.53,4.53,0,0,1-3.59,1.67C321,268.29,318.79,266.05,318.79,262.25Zm17.26,5.84-2.83-5h-2.11v5h-1.48V256.41h3.67c2.37,0,4.08.84,4.08,3.28a3.17,3.17,0,0,1-2.65,3.28l3,5.12Zm-4.94-6.15h2c1.83,0,2.84-.74,2.84-2.25s-1-2.09-2.84-2.09h-2Zm26.2-.08H345.82v1.05c0,1.88-.29,4.64-1.64,6.52a6.69,6.69,0,0,0-1-.83,9.88,9.88,0,0,0,1.4-5.72v-2.17h7.62a17.85,17.85,0,0,0,1.29-2.68l1.27.42c-.43.76-.92,1.59-1.37,2.26h3.89Zm-.41-4.05H344.37v-1.13h6a8.11,8.11,0,0,0-1-1.61l1.16-.34a8.86,8.86,0,0,1,1.2,1.91l-.08,0h5.26Zm-8.77,2.85a11.45,11.45,0,0,0-1.34-2.29l1-.42a11.44,11.44,0,0,1,1.4,2.23Zm16.73,2.85v5.8h-1.1v-5.45l-2.63.82-.32-1.13c.82-.23,1.84-.5,2.95-.85v-3.55h-1.45a12.51,12.51,0,0,1-.7,2.36,4.81,4.81,0,0,0-.91-.53,18.48,18.48,0,0,0,1.1-5.31l1,.18c-.08.71-.19,1.45-.3,2.15h1.22v-3.24h1.1V258h1.64v1.15h-1.64v3.25l1.85-.58.16,1.06Zm10.43-6.08s0,.44,0,.58c-.35,7.22-.7,9.69-1.34,10.49a1.36,1.36,0,0,1-1.1.61,9.93,9.93,0,0,1-1.82,0,2.49,2.49,0,0,0-.33-1.17c.72.07,1.35.08,1.67.08a.66.66,0,0,0,.59-.27c.51-.56.86-2.91,1.18-9.23h-.76c-.8,4.18-2.55,8.42-5.2,10.52a3.54,3.54,0,0,0-1-.71c2.62-1.88,4.34-5.8,5.17-9.81H371c-.72,2.73-2.18,5.71-3.92,7.22a4,4,0,0,0-.94-.68c1.69-1.32,3.11-4,3.84-6.54h-1.37a12.94,12.94,0,0,1-1.82,3,8,8,0,0,0-.91-.68,13.56,13.56,0,0,0,2.79-6.12l1.09.22a19.43,19.43,0,0,1-.72,2.46h5.1v0Zm16.62,10.27c0,.77-.21,1.12-.72,1.33a10.65,10.65,0,0,1-3,.19,4.77,4.77,0,0,0-.4-1.15c1.11.05,2.2,0,2.48,0s.44-.11.44-.41v-3.24h-4.29v4.71h-1.18v-4.71h-4a9.07,9.07,0,0,1-2,4.94,4,4,0,0,0-.91-.78c1.76-2,1.92-4.78,1.92-7v-5.74h11.6Zm-6.63-4.38v-2.64h-3.81v.94c0,.52,0,1.11-.06,1.7ZM381.47,257v2.55h3.81V257Zm9.28,0h-4.29v2.55h4.29Zm0,6.31v-2.64h-4.29v2.64Zm11.45-5.67h-3.53v-1.24h8.55v1.24h-3.53v10.44H402.2Zm7.12-1.24h6.74v1.24H410.8v3.66h4.43v1.26H410.8v4.26h5.43v1.26h-6.91Zm15.34,10.78h-.05l-.13.9h-1.16V255.4h1.45v3.48l0,1.56a4.33,4.33,0,0,1,2.71-1.23c2.25,0,3.46,1.75,3.46,4.4,0,3-1.77,4.68-3.76,4.68A3.77,3.77,0,0,1,424.66,267.19Zm4.71-3.55c0-1.91-.63-3.2-2.28-3.2a3.56,3.56,0,0,0-2.32,1.19v4.54a3.3,3.3,0,0,0,2.12.91C428.32,267.08,429.37,265.79,429.37,263.64Zm3.69,1.28v-5.49h1.45v5.31c0,1.61.48,2.3,1.63,2.3.89,0,1.51-.43,2.34-1.47v-6.14h1.45v8.66h-1.21l-.11-1.36h-.05a3.72,3.72,0,0,1-2.87,1.56C433.87,268.29,433.06,267.12,433.06,264.92Zm18.75-8.34a2.52,2.52,0,0,0-1-.22c-.83,0-1.23.59-1.23,1.7v1.37h1.83v1.18h-1.83v7.48h-1.45v-7.48h-3.62v7.48h-1.45v-7.48h-1.18v-1.1l1.18-.08v-1.16c0-1.79.89-2.9,2.68-2.9a4.21,4.21,0,0,1,1.59.3l-.3,1.12a2.6,2.6,0,0,0-1.17-.26c-.86,0-1.35.64-1.35,1.79v1.11h3.62v-1.38c0-1.76.79-2.86,2.53-2.86a3.85,3.85,0,0,1,1.44.29Zm.47,7.19c0-2.81,1.89-4.56,3.9-4.56,2.2,0,3.44,1.59,3.44,4.06a5.92,5.92,0,0,1-.06.83h-5.83a2.86,2.86,0,0,0,2.86,3,3.73,3.73,0,0,0,2.17-.68l.53.95a5.12,5.12,0,0,1-2.87.89C454.12,268.29,452.28,266.62,452.28,263.77Zm6.07-.7c0-1.76-.8-2.7-2.15-2.7a2.66,2.66,0,0,0-2.49,2.7Zm3.41-3.64H463l.13,1.58h0a3,3,0,0,1,2.46-1.8,1.87,1.87,0,0,1,.92.19l-.27,1.28a1.91,1.91,0,0,0-.84-.15c-.72,0-1.61.51-2.19,2v5.56h-1.45ZM479,266.72l-6.88,1.49-.22-1.19c1.72-.34,4.43-.88,7-1.42Zm6.09-6.84a18.3,18.3,0,0,1-2.82,5.58c.59,1.64,1.31,2.63,2.09,2.63.45,0,.64-.83.73-2.95a2.73,2.73,0,0,0,1,.67c-.21,2.72-.66,3.5-1.88,3.5s-2.15-1-2.87-2.75a15,15,0,0,1-3.36,2.74,8,8,0,0,0-.93-.91,12.78,12.78,0,0,0,3.83-3.12,34.39,34.39,0,0,1-1.12-6.81H472V257.3h7.76c0-.83-.07-1.66-.08-2.5h1.24c0,.86,0,1.68.05,2.5h4.78v1.16h-4.7a32.82,32.82,0,0,0,.83,5.56,17,17,0,0,0,2.05-4.43Zm-6.69,0v4.82h-5.5v-4.82Zm-1.17,1H474v2.76h3.23Zm7.32-3.62a12.15,12.15,0,0,0-2.69-1.74l.68-.73a12.48,12.48,0,0,1,2.74,1.64Zm8.26-.87h6.74v1.24h-5.26v3.66h4.43v1.26h-4.43v4.26h5.43v1.26h-6.91Zm9.37,0h3.48c2.37,0,4,.79,4,2.85a2.54,2.54,0,0,1-1.72,2.53v.08a2.7,2.7,0,0,1,2.39,2.79c0,2.3-1.81,3.43-4.43,3.43h-3.73Zm3.22,5c2,0,2.82-.75,2.82-1.93,0-1.37-.94-1.88-2.75-1.88h-1.81v3.81Zm.3,5.53c2,0,3.19-.72,3.19-2.3s-1.15-2.1-3.19-2.1h-2v4.4Zm12.92.28h0l-.13.9h-1.16V255.4h1.45v3.48l0,1.56a4.35,4.35,0,0,1,2.71-1.23c2.25,0,3.46,1.75,3.46,4.4,0,3-1.77,4.68-3.76,4.68A3.79,3.79,0,0,1,518.65,267.19Zm4.72-3.55c0-1.91-.64-3.2-2.28-3.2a3.58,3.58,0,0,0-2.33,1.19v4.54a3.34,3.34,0,0,0,2.12.91C522.32,267.08,523.37,265.79,523.37,263.64Zm3.68,1.28v-5.49h1.45v5.31c0,1.61.48,2.3,1.63,2.3.89,0,1.51-.43,2.34-1.47v-6.14h1.45v8.66h-1.21l-.11-1.36h-.05a3.7,3.7,0,0,1-2.87,1.56C527.87,268.29,527.05,267.12,527.05,264.92Zm18.75-8.34a2.52,2.52,0,0,0-1-.22c-.83,0-1.23.59-1.23,1.7v1.37h1.84v1.18H543.6v7.48h-1.45v-7.48h-3.62v7.48h-1.45v-7.48h-1.17v-1.1l1.17-.08v-1.16c0-1.79.9-2.9,2.68-2.9a4.22,4.22,0,0,1,1.6.3l-.31,1.12a2.56,2.56,0,0,0-1.16-.26c-.86,0-1.36.64-1.36,1.79v1.11h3.62v-1.38c0-1.76.8-2.86,2.54-2.86a3.8,3.8,0,0,1,1.43.29Zm.47,7.19c0-2.81,1.9-4.56,3.91-4.56,2.2,0,3.44,1.59,3.44,4.06a5.92,5.92,0,0,1-.06.83h-5.84a2.87,2.87,0,0,0,2.87,3,3.73,3.73,0,0,0,2.17-.68l.52.95a5.09,5.09,0,0,1-2.86.89C548.12,268.29,546.27,266.62,546.27,263.77Zm6.07-.7c0-1.76-.79-2.7-2.15-2.7a2.66,2.66,0,0,0-2.48,2.7Zm3.42-3.64H557l.13,1.58h0a3,3,0,0,1,2.45-1.8,1.88,1.88,0,0,1,.93.19l-.27,1.28a2,2,0,0,0-.85-.15c-.71,0-1.61.51-2.18,2v5.56h-1.45ZM573,266.72c-2.44.52-5,1.08-6.88,1.49l-.23-1.19c1.72-.34,4.43-.88,7-1.42Zm6.09-6.84a18.76,18.76,0,0,1-2.82,5.58c.59,1.64,1.3,2.63,2.09,2.63.44,0,.63-.83.73-2.95a2.77,2.77,0,0,0,1,.67c-.2,2.72-.65,3.5-1.88,3.5s-2.15-1-2.87-2.75A14.56,14.56,0,0,1,572,269.3a7.21,7.21,0,0,0-.92-.91,12.62,12.62,0,0,0,3.82-3.12,33.72,33.72,0,0,1-1.11-6.81H566V257.3h7.76c0-.83-.06-1.66-.08-2.5h1.25c0,.86,0,1.68,0,2.5h4.79v1.16h-4.71a32.82,32.82,0,0,0,.83,5.56,17,17,0,0,0,2.06-4.43Zm-6.7,0v4.82h-5.49v-4.82Zm-1.16,1H568v2.76h3.23Zm7.32-3.62a12,12,0,0,0-2.7-1.74l.69-.73a12.48,12.48,0,0,1,2.74,1.64Zm8.25-.87h1.53l4.26,7.36,1.24,2.4h.08c-.08-1.17-.19-2.48-.19-3.69v-6.07h1.4v11.68h-1.51l-4.26-7.38-1.26-2.41h-.06c.06,1.18.17,2.42.17,3.65v6.14h-1.4Zm11.52,0h6.74v1.24h-5.26v4h4.46v1.24h-4.46v5.25h-1.48Zm18.11,2.66c-.76,4.14-2.63,7.09-4.87,8.67a4.47,4.47,0,0,0-.94-.9A11.12,11.12,0,0,0,615,260h-3.88v-1.18h4.3l.24-.05Zm7.54-.58a36.57,36.57,0,0,1-3.55,3.59,13,13,0,0,0,5,4.51,5.18,5.18,0,0,0-.88,1.07,15.25,15.25,0,0,1-6-6.7v6.73c0,.78-.19,1.16-.65,1.37a6.89,6.89,0,0,1-2.49.25A4.7,4.7,0,0,0,615,268c.9,0,1.73,0,2,0s.37-.1.37-.37V254.8h1.24v3.82a17.69,17.69,0,0,0,1.28,2.58,25.21,25.21,0,0,0,3.07-3.47Zm7.17,3.38a21.49,21.49,0,0,0-2.92-1.72l.64-.88a20.63,20.63,0,0,1,2.93,1.6Zm1.08,2.11c-.7,1.67-1.67,3.66-2.47,5.13l-1.06-.7a49.37,49.37,0,0,0,2.59-5.12Zm-.51-6.28a16.42,16.42,0,0,0-2.77-1.85l.66-.85a18.41,18.41,0,0,1,2.83,1.74Zm6.59,2.58c-.1.14-.18.3-.27.43a15.28,15.28,0,0,0,4.84,3.3,4.63,4.63,0,0,0-.56,1.05c-.41-.22-.87-.46-1.32-.75v5h-1.13v-.59h-4.8v.63H634v-4.79c-.35.22-.7.43-1.07.63a5.05,5.05,0,0,0-.76-.78,13.51,13.51,0,0,0,5-4.47Zm-1.64-1.66a13.48,13.48,0,0,1-3.13,3.09,7.43,7.43,0,0,0-.86-.78,9.8,9.8,0,0,0,2.93-2.68Zm-2.75.59h-1.08v-2.65h4.4a17.37,17.37,0,0,0-.77-1.56l1.07-.33a16.2,16.2,0,0,1,1,1.89h3.91v2.65h-1.12v-1.64h-7.38Zm6.89,5a19.71,19.71,0,0,1-3.38-2.67,15.55,15.55,0,0,1-3,2.67Zm-.94,3.49v-2.5h-4.8v2.5Zm-.64-9.46a29,29,0,0,1,3,2.67l-.87.7a25.38,25.38,0,0,0-2.95-2.8ZM652.72,268c0,.51-.1.81-.45,1a3.28,3.28,0,0,1-1.61.21,3.65,3.65,0,0,0-.32-1c.56,0,1,0,1.15,0s.22-.05.22-.23v-2.39h-1.43v2.92h-.86v-2.92h-1.55a8.93,8.93,0,0,1-1.19,3.81,3.45,3.45,0,0,0-.86-.56c1.06-1.67,1.18-4,1.18-5.81v-2.94l-.36.44a5.64,5.64,0,0,0-.86-.69,12.16,12.16,0,0,0,2.49-5.05l1.07.22c-.11.4-.24.8-.37,1.2h2.2l.18-.05.71.46a18.56,18.56,0,0,1-1,2.18h1.66Zm-4.1-10.85a18,18,0,0,1-.8,1.65H650a12.43,12.43,0,0,0,.72-1.65Zm.8,7.5v-2.1H648V263c0,.5,0,1.06,0,1.61Zm-1.4-3h1.4V259.7H648Zm2.26,0h1.43V259.7h-1.43Zm1.43,3v-2.1h-1.43v2.1Zm4.86-8.05a5.25,5.25,0,0,1-2.91,4.32,3.45,3.45,0,0,0-.66-.83,4.26,4.26,0,0,0,2.51-3.49h-2.17v-1H660s0,.3,0,.46c-.13,2.62-.27,3.64-.61,4a1.12,1.12,0,0,1-.86.4,15.66,15.66,0,0,1-1.64,0,2.67,2.67,0,0,0-.28-1,13.07,13.07,0,0,0,1.43.07c.22,0,.35,0,.46-.15a7.66,7.66,0,0,0,.4-2.79Zm3.88,9.69h-2.78v3.05h-1.11v-3.05h-3.21v-1h3.21v-2h-1.74a7.52,7.52,0,0,1-.83,1.55,7.11,7.11,0,0,0-.91-.49,8.81,8.81,0,0,0,1.44-3.56l1,.19c-.1.45-.23.86-.35,1.29h1.37v-1.51h1.11v1.51h2.38v1h-2.38v2h2.78Zm3,3.57a3,3,0,0,0,2-2.69,1,1,0,0,1-.29,0A1.09,1.09,0,0,1,664,266a1.13,1.13,0,0,1,1.21-1.15c.87,0,1.37.75,1.37,1.94a4,4,0,0,1-2.76,3.84Zm.47-10.66a1.17,1.17,0,0,1,1.19-1.21,1.19,1.19,0,0,1,1.21,1.21,1.17,1.17,0,0,1-1.21,1.18A1.15,1.15,0,0,1,664,259.16Zm15.58,8.74a9.1,9.1,0,0,0,1.5-3.41l1.1.22a10.22,10.22,0,0,1-1.51,3.71ZM691.79,263h-10v-5h2.74a12.42,12.42,0,0,0-1.61-2.68l1-.46a10.85,10.85,0,0,1,1.69,2.66l-1,.48h3.27a18.79,18.79,0,0,0,1.73-3.19l1.21.49c-.51.9-1.1,1.88-1.64,2.7h2.57Zm-1.29-3.91H683v2.79h7.46Zm-1.39,9c.78,0,.91-.23,1-1.61a3.89,3.89,0,0,0,1.11.43c-.17,1.8-.56,2.24-2,2.24h-3.56c-1.88,0-2.34-.33-2.34-1.62v-3.27h1.21v3.27c0,.48.19.56,1.2.56Zm-2.92-4.93a14,14,0,0,1,2.87,2.5l-.86.77a13.83,13.83,0,0,0-2.83-2.6Zm5.55,1a12.69,12.69,0,0,1,2.25,3.48l-1,.59a13.55,13.55,0,0,0-2.2-3.54ZM711.57,268v.92H697.21V268h6.56v-.91h-5.26v-.85h5.26v-.86H699v-4h10.92v4h-5v.86h5.29v.85h-5.29V268Zm-.15-7.3H697.29v-.91h14.13Zm-2-1.53H699.28v-3.88h10.18Zm-9.37,3.9h3.68v-.92h-3.68Zm3.68,1.58v-.94h-3.68v.94Zm4.51-8.64h-7.87v.89h7.87Zm0,1.53h-7.87v.91h7.87Zm.46,4.61h-3.82v.92h3.82Zm0,1.56h-3.82v.94h3.82Z"/><text class="cls-33" transform="translate(297.63 290.01)">≥<tspan class="cls-10" x="16.98" y="0">0.5μg1；OD</tspan></text><text class="cls-23" transform="translate(406.7 292.81)">260/280 </text><text class="cls-4" transform="translate(444.08 290.02)">=1.8-2.0<tspan class="cls-34" x="62.81" y="0">；浓度</tspan><tspan class="cls-35" x="115.96" y="0">≥</tspan><tspan class="cls-10" x="132.94" y="0">25</tspan><tspan class="cls-36" x="152.08" y="0"> </tspan><tspan x="158.55" y="0">n</tspan><tspan class="cls-37" x="167.46" y="0">g</tspan><tspan x="177.73" y="0">/μL</tspan><tspan class="cls-38" x="204.01" y="0">（此为</tspan><tspan class="cls-27" x="257.16" y="0">通</tspan></text><text class="cls-4" transform="translate(297.63 311.95)"><tspan class="cls-39">用浓</tspan><tspan class="cls-40" x="32.88" y="0">度</tspan><tspan x="49.07" y="0">）</tspan><tspan class="cls-39" x="65.01" y="0">，具体浓度需要根</tspan><tspan class="cls-41" x="196.54" y="0">据</tspan><tspan x="216.58" y="0">PC</tspan><tspan class="cls-41" x="238.43" y="0">R</tspan><tspan class="cls-42" x="253.3" y="0">产物复杂度计</tspan><tspan x="351.95" y="0">算</tspan><tspan class="cls-39" x="367.89" y="0">；干</tspan><tspan x="400.77" y="0">冰</tspan></text><text class="cls-4" transform="translate(297.63 333.87)">或冰袋运送。</text><text class="cls-30" transform="translate(297.63 361.45)">注<tspan class="cls-43" x="15.95" y="0"> </tspan><tspan class="cls-44" x="22.44" y="0"> </tspan><tspan x="29.15" y="0">意：</tspan></text><text class="cls-4" transform="translate(355.31 361.45)">PC<tspan class="cls-45" x="21.85" y="0">R</tspan><tspan class="cls-46" x="36.66" y="0">产物须经适当纯</tspan><tspan x="149.85" y="0">化</tspan><tspan class="cls-46" x="165.79" y="0">，不含有非特异性条</tspan><tspan x="311.32" y="0">带</tspan><tspan class="cls-46" x="327.26" y="0">、</tspan><tspan x="343.43" y="0">残</tspan></text><text class="cls-4" transform="translate(297.63 383.37)"><tspan class="cls-47">留的引物或引物二聚</tspan><tspan class="cls-27" x="147.68" y="0">体</tspan><tspan class="cls-47" x="163.62" y="0">。扩增子文库的数据量</tspan><tspan class="cls-41" x="327.71" y="0">受</tspan><tspan x="347.75" y="0">PC</tspan><tspan class="cls-41" x="369.6" y="0">R</tspan><tspan class="cls-47" x="384.48" y="0">产</tspan><tspan x="400.89" y="0">物</tspan></text><text class="cls-4" transform="translate(297.63 405.3)">本身复杂度影响。</text><text class="cls-4" transform="translate(297.63 432.87)">• <tspan class="cls-19" x="13.28" y="0">总</tspan><tspan x="33.22" y="0">RN</tspan><tspan class="cls-5" x="55.46" y="0">A</tspan><tspan class="cls-27" x="69.92" y="0">溶解</tspan><tspan class="cls-19" x="101.82" y="0">于</tspan><tspan class="cls-10" x="121.75" y="0">DEP</tspan><tspan class="cls-48" x="153.4" y="0">C</tspan><tspan class="cls-5" x="164.55" y="0">-</tspan><tspan class="cls-27" x="178.18" y="0">水或</tspan><tspan class="cls-19" x="210.07" y="0">者</tspan><tspan x="230.01" y="0">N</tspan><tspan class="cls-5" x="241.47" y="0">F</tspan><tspan x="254.66" y="0">水。</tspan></text><text class="cls-4" transform="translate(297.63 460.44)"><tspan class="cls-49">•</tspan><tspan class="cls-50" x="12.8" y="0">总量</tspan><tspan class="cls-49" x="51.46" y="0">≥</tspan><tspan x="68.86" y="0">1ug；OD</tspan></text><text class="cls-23" transform="translate(433.55 463.24)">260/280</text><text class="cls-4" transform="translate(472.98 460.45)"><tspan class="cls-49">在</tspan><tspan x="20.78" y="0">1.8-2.1</tspan><tspan class="cls-50" x="70.77" y="0">；完整</tspan><tspan class="cls-49" x="128.75" y="0">性</tspan><tspan x="149.53" y="0">RI</tspan><tspan class="cls-49" x="164.08" y="0">N≥</tspan><tspan class="cls-27" x="197.78" y="0">7.0；</tspan></text><text class="cls-4" transform="translate(297.62 482.38)">rRNA<tspan class="cls-36" x="38.54" y="0"> </tspan><tspan class="cls-51" x="45.02" y="0">r</tspan><tspan class="cls-52" x="50.42" y="0">a</tspan><tspan x="59.11" y="0">tio（28S：18S&gt;1.5）</tspan><tspan class="cls-53" x="211.11" y="0">；浓度</tspan><tspan class="cls-54" x="261" y="0">≥</tspan><tspan class="cls-10" x="277.72" y="0">40n</tspan><tspan class="cls-29" x="305.76" y="0">g</tspan><tspan class="cls-27" x="316.03" y="0">/μL。-8</tspan><tspan class="cls-55" x="377.47" y="0">0℃</tspan><tspan class="cls-27" x="403.12" y="0">超</tspan></text><text class="cls-4" transform="translate(297.62 504.31)">低温冰箱或液氮保存，干冰运送。</text><text class="cls-4" transform="translate(297.62 531.88)">• <tspan class="cls-19" x="13.28" y="0">总</tspan><tspan x="33.22" y="0">RN</tspan><tspan class="cls-5" x="55.46" y="0">A</tspan><tspan class="cls-27" x="69.92" y="0">溶解</tspan><tspan class="cls-19" x="101.82" y="0">于</tspan><tspan class="cls-10" x="121.75" y="0">DEP</tspan><tspan class="cls-48" x="153.4" y="0">C</tspan><tspan class="cls-5" x="164.55" y="0">-</tspan><tspan class="cls-27" x="178.18" y="0">水或</tspan><tspan class="cls-19" x="210.07" y="0">者</tspan><tspan x="230.01" y="0">N</tspan><tspan class="cls-5" x="241.47" y="0">F</tspan><tspan x="254.66" y="0">水。</tspan></text><text class="cls-4" transform="translate(297.62 559.45)"><tspan class="cls-56">总量</tspan><tspan class="cls-54" x="33.23" y="0">≥</tspan><tspan x="49.94" y="0">1μg；</tspan><tspan class="cls-57" x="90.64" y="0"> </tspan><tspan class="cls-10" x="97.11" y="0">OD</tspan></text><text class="cls-23" transform="translate(422.31 562.24)">260/280</text><text class="cls-4" transform="translate(461.07 559.46)"><tspan class="cls-54">在</tspan><tspan x="20.09" y="0">1.8-2.1</tspan><tspan class="cls-56" x="70.08" y="0">；浓度</tspan><tspan class="cls-54" x="119.93" y="0">≥</tspan><tspan x="136.64" y="0">40n</tspan><tspan class="cls-37" x="164.69" y="0">g</tspan><tspan x="174.96" y="0">/μL</tspan><tspan class="cls-56" x="201.24" y="0">。完</tspan><tspan x="234.47" y="0">整</tspan></text><text class="cls-58" transform="translate(297.62 581.39)">性<tspan class="cls-10" x="19.93" y="0">RI</tspan><tspan x="34.49" y="0">N≥</tspan><tspan class="cls-10" x="66.5" y="0">3.0；</tspan></text><text class="cls-30" transform="translate(297.62 608.96)">注<tspan class="cls-43" x="15.95" y="0"> </tspan><tspan class="cls-59" x="22.44" y="0"> </tspan><tspan x="32.98" y="0">意：</tspan></text><text class="cls-4" transform="translate(359.13 608.96)">rRNA<tspan class="cls-36" x="38.54" y="0"> </tspan><tspan x="45.02" y="0">depl</tspan><tspan class="cls-15" x="76.3" y="0">e</tspan><tspan x="84.99" y="0">tion</tspan><tspan class="cls-60" x="112.99" y="0"> </tspan><tspan class="cls-61" x="123.52" y="0">法适用于</tspan><tspan class="cls-62" x="203.44" y="0">低</tspan><tspan x="224.38" y="0">RI</tspan><tspan class="cls-62" x="238.94" y="0">N</tspan><tspan class="cls-27" x="255.39" y="0">值</tspan><tspan class="cls-36" x="271.34" y="0"> </tspan><tspan class="cls-10" x="277.81" y="0">RNA</tspan><tspan class="cls-62" x="310.53" y="0">(</tspan><tspan class="cls-61" x="320.83" y="0">降</tspan><tspan x="340.82" y="0">解</tspan></text><text class="cls-4" transform="translate(297.62 630.88)">RNA<tspan class="cls-63" x="32.72" y="0">）测</tspan><tspan x="69.52" y="0">序、FFP</tspan><tspan class="cls-64" x="130.06" y="0">E</tspan><tspan class="cls-63" x="144.81" y="0">组织中提</tspan><tspan class="cls-64" x="218.41" y="0">取</tspan><tspan x="238.95" y="0">RN</tspan><tspan class="cls-64" x="261.2" y="0">A</tspan><tspan class="cls-63" x="276.27" y="0">测</tspan><tspan x="294.67" y="0">序、lncRN</tspan><tspan class="cls-65" x="370.19" y="0">A</tspan><tspan class="cls-63" x="385.26" y="0">测</tspan><tspan x="403.66" y="0">序</tspan></text><text class="cls-4" transform="translate(297.62 652.81)">等。-80℃超低温冰箱或液氮保存，干冰运送。</text><line class="cls-66" x1="283.78" x2="283.78" y2="660.86"/><line class="cls-66" x1="103.97" x2="103.97" y2="660.86"/><line class="cls-3" y1="125.22" x2="721.18" y2="125.22"/><line class="cls-3" y1="249.49" x2="721.18" y2="249.49"/><line class="cls-3" y1="413.29" x2="721.18" y2="413.29"/><line class="cls-3" y1="513.57" x2="721.18" y2="513.57"/><line class="cls-66" y1="25.67" x2="721.18" y2="25.67"/><text class="cls-30" transform="translate(12.72 19.45)">样本类型</text><text class="cls-30" transform="translate(122.34 19.45)">应用类型</text><text class="cls-30" transform="translate(297.61 19.45)">样本要求（DNA、RN<tspan class="cls-19" x="152.44" y="0">A</tspan><tspan x="167.26" y="0">样本）</tspan></text></g></g></svg>