<svg xmlns="http://www.w3.org/2000/svg" viewBox="0 0 709.51 451.66"><defs><style>.cls-1{fill:#f2f2f2;}.cls-2{font-size:23.34px;font-family:AdobeSongStd-Light-GBpc-EUC-H, Adobe Song Std;}.cls-3,.cls-40{fill:none;stroke:#3e3a39;}.cls-3{stroke-width:0.5px;}.cls-19,.cls-4{font-size:15.56px;}.cls-19,.cls-4,.cls-6,.cls-7{fill:#3e3a39;}.cls-19,.cls-4,.cls-7{font-family:PingFangSC-Regular-GBpc-EUC-H, PingFang SC;}.cls-5{letter-spacing:0.25em;}.cls-7{font-size:9.07px;}.cls-8{letter-spacing:0.05em;}.cls-9{letter-spacing:0em;}.cls-10{letter-spacing:0.25em;}.cls-11{letter-spacing:0em;}.cls-12{letter-spacing:0.05em;}.cls-13{letter-spacing:0.07em;}.cls-14{letter-spacing:0.26em;}.cls-15{letter-spacing:0.03em;}.cls-16{letter-spacing:0.26em;}.cls-17{letter-spacing:-0.03em;}.cls-18{letter-spacing:-0.04em;}.cls-19,.cls-36{letter-spacing:-0.02em;}.cls-20{letter-spacing:0.19em;}.cls-21{letter-spacing:-0.02em;}.cls-22{letter-spacing:-0.02em;}.cls-23{letter-spacing:0.19em;}.cls-24{letter-spacing:-0.02em;}.cls-25{letter-spacing:-0.18em;}.cls-26{letter-spacing:0.08em;}.cls-27{letter-spacing:0em;}.cls-28{letter-spacing:0.02em;}.cls-29{letter-spacing:0.02em;}.cls-30{letter-spacing:0.04em;}.cls-31{letter-spacing:0.26em;}.cls-32{letter-spacing:0.07em;}.cls-33{letter-spacing:0.26em;}.cls-34{letter-spacing:0.25em;}.cls-35{letter-spacing:0.16em;}.cls-37{letter-spacing:-0.36em;}.cls-38{letter-spacing:-0.36em;}.cls-39{letter-spacing:0.14em;}.cls-40{stroke-width:0.28px;}</style></defs><title>资源 4</title><g id="图层_2" data-name="图层 2"><g id="图层_1-2" data-name="图层 1"><rect class="cls-1" x="0.28" y="0.28" width="703.44" height="22.01"/><text class="cls-2" transform="translate(0.77 21.3)"> </text><rect class="cls-3" x="0.28" y="0.28" width="703.16" height="451.13"/><text class="cls-4" transform="translate(13.79 41.48)">DN<tspan class="cls-5" x="22.17" y="0">A</tspan><tspan x="36.29" y="0">样本</tspan></text><text class="cls-4" transform="translate(13.79 146.52)">外周血</text><text class="cls-4" transform="translate(13.79 232.1)">新鲜冷冻组织</text><text class="cls-4" transform="translate(13.79 383.81)">石蜡包埋组织</text><path class="cls-6" d="M137.84,36.91A2,2,0,1,1,139.78,39,2,2,0,0,1,137.84,36.91Zm20.16,0a8.58,8.58,0,0,0,3.5,2.4,4.49,4.49,0,0,0-.76.88,9.45,9.45,0,0,1-4-3.28h-4.87a10.59,10.59,0,0,1-4.06,3.48,3.9,3.9,0,0,0-.75-.88,9.2,9.2,0,0,0,3.52-2.6h-3.36v-1h3.08v-5H148V30h2.36v-1.5h1.13V30h5.65v-1.5h1.17V30h2.33v1H158.3v5h3v1Zm-3.17,4.39h5.36v1H148.47v-1h5.21V39.63H150.5v-1h3.18v-1.3h1.15v1.3h3.25v1h-3.25Zm-3.35-10.33v1h5.65v-1Zm0,3h5.65V32.85h-5.65Zm0,2h5.65V34.8h-5.65Zm25.66-6.8V42.67H176V41.9H165.29v.77h-1.07V29.1ZM176,40.91V30.16H165.29V40.91Zm-4.94-6.5c-.05.28-.09.53-.16.79a27.88,27.88,0,0,1,4.19,4.39l-.83.68a28.87,28.87,0,0,0-3.62-4,6.58,6.58,0,0,1-3.72,4.2,4.19,4.19,0,0,0-.71-.92,6.05,6.05,0,0,0,3.71-5.1h-3.73V33.35h3.87c.08-.79.13-1.65.16-2.53h1.13c0,.88-.07,1.72-.15,2.53h3.89v1.06Zm14.43,2.08a7.83,7.83,0,0,0,0,1c-4.21.85-4.74,1-5.08,1.16a6.62,6.62,0,0,0-.35-1,3.38,3.38,0,0,0,1.23-1,24.34,24.34,0,0,0,1.74-2.15,10.74,10.74,0,0,0-2.73.48,8.42,8.42,0,0,0-.35-1.09c.28-.06.56-.42.92-.95a23,23,0,0,0,2.29-4.41l1,.49a27.6,27.6,0,0,1-2.69,4.7l2.24-.25c.36-.54.71-1.1,1-1.65l.91.55a31.59,31.59,0,0,1-3.59,4.8Zm0,3.83c-1.85.48-3.78,1-5.24,1.33l-.2-1.11c1.32-.25,3.34-.75,5.33-1.2Zm8.6,1v1.06h-8.94V41.28h1.57v-12h6v12Zm-6.27-11v2.89h3.8V30.3Zm0,6.92h3.8v-3h-3.8Zm0,4.06h3.8v-3h-3.8Zm12.63-11.2h2.86c3.5,0,5.38,2,5.38,5.67s-1.88,5.73-5.32,5.73h-2.92Zm2.74,10.22c2.69,0,4-1.68,4-4.55s-1.32-4.5-4-4.5h-1.3v9Zm7.95-10.22h1.49l4.15,7.19L218,39.62h.07c-.07-1.15-.18-2.43-.18-3.61V30.08h1.37v11.4H217.8l-4.15-7.2-1.23-2.34h-.06c.06,1.15.17,2.36.17,3.56v6h-1.37ZM227.62,38h-4.17l-1.1,3.48h-1.47l3.88-11.4h1.6l3.87,11.4h-1.52Zm-.36-1.15-.54-1.74c-.42-1.29-.78-2.54-1.15-3.86h-.07c-.35,1.34-.73,2.57-1.13,3.86l-.56,1.74Zm20.86,4.26c0,.75-.2,1.09-.7,1.29a10.18,10.18,0,0,1-2.89.19,4.53,4.53,0,0,0-.39-1.12c1.09,0,2.15,0,2.43,0s.42-.11.42-.4V37.94H242.8v4.59h-1.15V37.94h-3.88a9,9,0,0,1-2,4.82,3.81,3.81,0,0,0-.89-.76c1.72-1.93,1.87-4.67,1.87-6.83v-5.6h11.32Zm-6.47-4.28V34.25h-3.71v.92c0,.51,0,1.09-.07,1.66Zm-3.71-6.15v2.48h3.71V30.68Zm9.05,0H242.8v2.48H247Zm0,6.15V34.25H242.8v2.58Zm8.59-6.75h6.58V31.3H257v3.57h4.32V36.1H257v4.16h5.3v1.22h-6.75Zm9.15,0h3.39c2.32,0,3.92.78,3.92,2.79a2.47,2.47,0,0,1-1.68,2.47v.08a2.63,2.63,0,0,1,2.34,2.72c0,2.24-1.78,3.34-4.33,3.34h-3.64Zm3.15,4.86c1.95,0,2.75-.73,2.75-1.89,0-1.33-.92-1.83-2.69-1.83h-1.76v3.72Zm.29,5.39c2,0,3.11-.7,3.11-2.24S270.16,36,268.17,36h-2v4.29Zm12.61.28h0l-.13.87h-1.13V29.1h1.41v3.39l0,1.53a4.24,4.24,0,0,1,2.64-1.2c2.19,0,3.38,1.71,3.38,4.29,0,2.91-1.73,4.58-3.67,4.58A3.7,3.7,0,0,1,280.78,40.61Zm4.6-3.47c0-1.86-.62-3.12-2.22-3.12a3.47,3.47,0,0,0-2.28,1.17v4.43a3.26,3.26,0,0,0,2.07.88C284.35,40.5,285.38,39.24,285.38,37.14Zm3.6,1.25V33h1.41v5.18c0,1.57.47,2.24,1.59,2.24.87,0,1.48-.42,2.28-1.43V33h1.42v8.44H294.5l-.11-1.32h-.05a3.61,3.61,0,0,1-2.8,1.53C289.77,41.69,289,40.54,289,38.39Zm18.29-8.13a2.39,2.39,0,0,0-.95-.22c-.81,0-1.2.57-1.2,1.66V33h1.79v1.15h-1.79v7.29h-1.41V34.19h-3.53v7.29h-1.42V34.19h-1.15V33.12l1.15-.08V31.9c0-1.74.87-2.83,2.62-2.83a4,4,0,0,1,1.55.3l-.29,1.09a2.63,2.63,0,0,0-1.14-.25c-.84,0-1.32.62-1.32,1.74V33h3.53V31.69c0-1.71.78-2.79,2.47-2.79a3.64,3.64,0,0,1,1.4.28Zm.46,7c0-2.74,1.85-4.45,3.81-4.45,2.14,0,3.36,1.56,3.36,4a4.52,4.52,0,0,1-.07.81h-5.69a2.8,2.8,0,0,0,2.8,2.95,3.66,3.66,0,0,0,2.12-.67l.51.94a5.06,5.06,0,0,1-2.8.87C309.53,41.69,307.73,40.05,307.73,37.27Zm5.92-.68c0-1.72-.78-2.63-2.1-2.63a2.59,2.59,0,0,0-2.42,2.63ZM317,33h1.16l.13,1.54h0a2.93,2.93,0,0,1,2.4-1.76,1.79,1.79,0,0,1,.9.19l-.26,1.24a2,2,0,0,0-.83-.14c-.7,0-1.57.5-2.13,2v5.42H317Zm16.64,7.11c-2.38.51-4.91,1.05-6.72,1.46l-.21-1.17c1.67-.32,4.32-.85,6.84-1.38Zm5.94-6.68a18,18,0,0,1-2.75,5.45c.57,1.6,1.27,2.56,2,2.56.43,0,.62-.8.71-2.87a2.86,2.86,0,0,0,1,.65c-.2,2.66-.63,3.42-1.83,3.42s-2.1-1-2.8-2.69a14.58,14.58,0,0,1-3.28,2.68,6.4,6.4,0,0,0-.91-.89,12.21,12.21,0,0,0,3.74-3.05,32.82,32.82,0,0,1-1.09-6.64h-7.64V31h7.58c-.05-.81-.07-1.62-.08-2.45h1.21c0,.84,0,1.65,0,2.45h4.66v1.13h-4.58a32.69,32.69,0,0,0,.8,5.43,16.9,16.9,0,0,0,2-4.33Zm-6.53,0v4.7h-5.37v-4.7Zm-1.14,1h-3.15v2.69h3.15ZM339,30.94a11.61,11.61,0,0,0-2.63-1.7l.67-.71a12.16,12.16,0,0,1,2.68,1.6Zm7.85-.86h1.5l4.15,7.19,1.21,2.35h.08c-.08-1.15-.19-2.43-.19-3.61V30.08H355v11.4h-1.48l-4.15-7.2-1.23-2.34h-.06c.06,1.15.17,2.36.17,3.56v6h-1.37Zm11.24,0h6.58V31.3h-5.14v3.85h4.36v1.22h-4.36v5.11h-1.44Zm17.47,2.6c-.75,4-2.56,6.92-4.76,8.46a4.19,4.19,0,0,0-.91-.87,10.9,10.9,0,0,0,4.29-6.69h-3.8V32.43h4.2l.23,0Zm7.36-.56a35.91,35.91,0,0,1-3.47,3.5,12.79,12.79,0,0,0,4.87,4.4,5.18,5.18,0,0,0-.86,1,14.78,14.78,0,0,1-5.83-6.53V41.1c0,.76-.19,1.13-.64,1.33a6.49,6.49,0,0,1-2.42.25,4.51,4.51,0,0,0-.44-1.26c.89,0,1.7,0,1.93,0s.36-.09.36-.35V28.51h1.21v3.74a18.38,18.38,0,0,0,1.24,2.52,24.73,24.73,0,0,0,3-3.39Zm6.17,3.3a20.91,20.91,0,0,0-2.84-1.68l.62-.86a20.2,20.2,0,0,1,2.86,1.56Zm1.06,2c-.69,1.63-1.63,3.58-2.41,5l-1-.69a46.83,46.83,0,0,0,2.53-5Zm-.5-6.13a17.43,17.43,0,0,0-2.71-1.8l.64-.82a17.63,17.63,0,0,1,2.77,1.69Zm6.42,2.52c-.09.14-.17.3-.26.42a15,15,0,0,0,4.73,3.22,4.46,4.46,0,0,0-.55,1c-.4-.22-.85-.45-1.29-.73v4.83h-1.1v-.57H393v.62H391.9V38c-.34.22-.69.42-1,.62a4.48,4.48,0,0,0-.75-.76A13.24,13.24,0,0,0,395,33.49Zm-1.6-1.61a12.81,12.81,0,0,1-3.05,3,9.24,9.24,0,0,0-.84-.76,9.73,9.73,0,0,0,2.87-2.61Zm-2.67.57h-1.06V30.24h4.29c-.2-.48-.5-1.07-.74-1.52l1-.33a16.29,16.29,0,0,1,.95,1.85h3.81v2.58H399v-1.6h-7.2Zm6.72,4.85a18.44,18.44,0,0,1-3.3-2.61,15.13,15.13,0,0,1-2.89,2.61Zm-.92,3.41V38.64H393v2.44ZM397,31.84A29.78,29.78,0,0,1,400,34.45l-.86.69a24.19,24.19,0,0,0-2.88-2.74Zm12.31,9.52c0,.5-.09.79-.43,1a3.29,3.29,0,0,1-1.57.2,3.78,3.78,0,0,0-.31-1h1.11c.18,0,.22-.05.22-.22V39H407v2.85h-.84V39H404.6a8.7,8.7,0,0,1-1.16,3.72,3.48,3.48,0,0,0-.84-.55c1-1.63,1.15-3.93,1.15-5.67V33.65l-.34.42a5.74,5.74,0,0,0-.84-.67A11.94,11.94,0,0,0,405,28.47l1.05.21c-.11.39-.24.78-.36,1.17h2.14l.17-.05.7.46a18.49,18.49,0,0,1-1,2.13h1.62Zm-4-10.59c-.25.56-.5,1.12-.78,1.62h2.08a11.3,11.3,0,0,0,.7-1.62Zm.77,7.32V36h-1.37v.48c0,.48,0,1,0,1.57Zm-1.37-2.92h1.37V33.3h-1.37Zm2.21,0h1.4V33.3H407Zm1.4,2.92V36H407v2.05Zm4.75-7.85a5.16,5.16,0,0,1-2.85,4.21,3,3,0,0,0-.64-.8,4.17,4.17,0,0,0,2.44-3.41h-2.11v-1h6.52s0,.3,0,.45c-.12,2.55-.26,3.55-.59,3.92A1.1,1.1,0,0,1,415,34a14.88,14.88,0,0,1-1.6,0,2.72,2.72,0,0,0-.28-1c.6.06,1.19.06,1.4.06A.44.44,0,0,0,415,33a7.76,7.76,0,0,0,.39-2.72Zm3.77,9.46h-2.7v3h-1.09v-3H410v-1h3.13V36.79h-1.69a7.91,7.91,0,0,1-.81,1.51,7.56,7.56,0,0,0-.89-.49,8.52,8.52,0,0,0,1.4-3.46l1,.18c-.1.44-.22.84-.35,1.26h1.34V34.31h1.09v1.48h2.32v1h-2.32v1.89h2.7Zm3,3.48a2.89,2.89,0,0,0,2-2.63.86.86,0,0,1-.28,0,1.07,1.07,0,0,1-1.16-1.12,1.1,1.1,0,0,1,1.18-1.12c.85,0,1.34.73,1.34,1.9A3.89,3.89,0,0,1,420.2,44Zm.45-10.41a1.15,1.15,0,0,1,1.17-1.18,1.17,1.17,0,1,1,0,2.34A1.14,1.14,0,0,1,420.29,32.77Zm14.38,8.53A8.75,8.75,0,0,0,436.14,38l1.07.22a10,10,0,0,1-1.48,3.62Zm12-4.79h-9.75v-4.9h2.68A12,12,0,0,0,438,29l1-.46a10.84,10.84,0,0,1,1.65,2.6l-.95.47h3.18a17.3,17.3,0,0,0,1.7-3.11l1.18.48c-.5.87-1.07,1.84-1.6,2.63h2.5Zm-1.26-3.81H438.1v2.72h7.27ZM444,41.45c.76,0,.89-.22,1-1.57a3.58,3.58,0,0,0,1.09.42c-.17,1.76-.55,2.19-2,2.19h-3.46c-1.84,0-2.29-.32-2.29-1.58V37.72h1.18v3.19c0,.46.19.54,1.17.54Zm-2.85-4.8a13.57,13.57,0,0,1,2.8,2.44l-.84.75a12.91,12.91,0,0,0-2.76-2.54Zm5.42,1A12.34,12.34,0,0,1,448.78,41l-.93.57a13.6,13.6,0,0,0-2.15-3.45Zm18.52,3.74v.91h-14v-.91h6.4v-.88h-5.13v-.83h5.13v-.84h-4.66V35h10.65v3.87h-4.87v.84h5.17v.83h-5.17v.88ZM465,34.25h-13.8v-.88H465Zm-1.91-1.49h-9.94V29h9.94Zm-9.15,3.81h3.59v-.9h-3.59Zm3.59,1.54v-.92h-3.59v.92Zm4.41-8.43h-7.69v.87h7.69Zm0,1.49h-7.69v.89h7.69Zm.45,4.5h-3.74v.9h3.74Zm0,1.52h-3.74v.92h3.74Zm15.42-3.3v0l-9.16-3.7.41-1,11.6,4.7v0L469,38.59l-.41-1Zm-9.13,7,11.62-4.69.37.93L469,41.86Zm19.07-.62h2.53V31.8h-2v-.91a7,7,0,0,0,2.36-.81h1.09V40.3H494v1.18h-6.25ZM496.41,33h1.42v5.18c0,1.48.45,2.24,1.55,2.24.77,0,1.45-.25,2.24-1.64V33h1.43c0,2.29-.09,4.76-.09,6.8,0,.48.25.66.62.66a1.77,1.77,0,0,0,.5-.09l.19,1.07a2.07,2.07,0,0,1-1,.21c-1,0-1.41-.5-1.52-1.64h0a2.73,2.73,0,0,1-2.37,1.6,1.68,1.68,0,0,1-1.63-.8c0,1.66,0,2.41.12,3.73h-1.43Zm9.12,10.06a2.4,2.4,0,0,1,1.26-1.91v-.06a1.55,1.55,0,0,1-.78-1.39,2.07,2.07,0,0,1,.95-1.57v-.06a3,3,0,0,1-1.1-2.27,3,3,0,0,1,3.17-3,3.4,3.4,0,0,1,1.18.22h2.94v1.09h-1.72a2.43,2.43,0,0,1,.68,1.74,3,3,0,0,1-4.34,2.64,1.27,1.27,0,0,0-.54,1c0,.55.34.92,1.48.92h1.64c2,0,2.94.62,2.94,2,0,1.57-1.65,2.92-4.26,2.92C507,45.37,505.53,44.56,505.53,43.1Zm6.39-.43c0-.78-.6-1.05-1.72-1.05h-1.46a4.4,4.4,0,0,1-1.09-.14,1.79,1.79,0,0,0-.87,1.43c0,.91.91,1.5,2.45,1.5S511.92,43.55,511.92,42.67Zm-1.1-6.83a1.8,1.8,0,1,0-3.59,0,1.81,1.81,0,1,0,3.59,0Zm5,7.34a2.9,2.9,0,0,0,2-2.63.89.89,0,0,1-.28,0,1.06,1.06,0,0,1-1.16-1.12,1.1,1.1,0,0,1,1.18-1.12c.85,0,1.33.73,1.33,1.9A3.87,3.87,0,0,1,516.14,44Zm.45-10.41a1.15,1.15,0,0,1,1.16-1.18,1.17,1.17,0,1,1,0,2.34A1.14,1.14,0,0,1,516.24,32.77Zm13.74,3c0-3.66,2-5.88,4.87-5.88s4.86,2.22,4.86,5.88-2,5.94-4.86,5.94S530,39.4,530,35.75Zm8.26,0c0-2.87-1.36-4.62-3.39-4.62s-3.39,1.75-3.39,4.62,1.33,4.68,3.39,4.68S538.24,38.59,538.24,35.75Zm3.94-5.67H545c3.5,0,5.38,2,5.38,5.67s-1.88,5.73-5.32,5.73h-2.92Zm2.73,10.22c2.69,0,4-1.68,4-4.55s-1.33-4.5-4-4.5h-1.29v9Z"/><text class="cls-7" transform="translate(551.32 44.2)">260/280 </text><text class="cls-4" transform="translate(587.78 41.48)">=1.8-2.0<tspan class="cls-8" x="61.29" y="0">；浓</tspan><tspan class="cls-9" x="94.03" y="0">度</tspan></text><text class="cls-4" transform="translate(137.14 64.82)"><tspan class="cls-10">≥</tspan><tspan class="cls-11" x="16.15" y="0">50 n</tspan><tspan class="cls-12" x="48.7" y="0">g</tspan><tspan x="58.72" y="0">/μL。</tspan></text><text class="cls-4" transform="translate(137.14 93.67)">•<tspan class="cls-13" x="7.78" y="0"> </tspan><tspan class="cls-11" x="14.1" y="0">DN</tspan><tspan class="cls-14" x="36.27" y="0">A</tspan><tspan class="cls-15" x="50.48" y="0">完整纯</tspan><tspan x="98.37" y="0">净</tspan><tspan class="cls-15" x="113.93" y="0">，无降</tspan><tspan x="161.83" y="0">解</tspan><tspan class="cls-15" x="177.39" y="0">，无细胞凋</tspan><tspan x="257.21" y="0">亡</tspan><tspan class="cls-15" x="272.77" y="0">，</tspan><tspan class="cls-16" x="288.74" y="0">无</tspan><tspan x="308.28" y="0">RNA</tspan><tspan class="cls-15" x="340.21" y="0">、蛋白</tspan><tspan x="388.1" y="0">质</tspan><tspan class="cls-15" x="403.66" y="0">、多</tspan><tspan class="cls-9" x="435.59" y="0">糖</tspan><tspan class="cls-15" x="451.15" y="0">、试剂成分等</tspan><tspan x="546.94" y="0">残</tspan></text><text class="cls-4" transform="translate(137.14 117.01)">留或污染。冰袋或干冰运输。</text><text class="cls-4" transform="translate(137.14 145.86)">• 抗凝剂：可用枸橼酸钠<tspan class="cls-5" x="168.56" y="0">或</tspan><tspan x="188.01" y="0">E</tspan><tspan class="cls-17" x="197.93" y="0">D</tspan><tspan class="cls-18" x="208.51" y="0">T</tspan><tspan class="cls-9" x="217.45" y="0">A，不建议用肝素。</tspan></text><text class="cls-4" transform="translate(137.14 174.71)">• 外周血总量：≥ 2 mL。</text><text class="cls-19" transform="translate(137.14 203.56)">样本直接保存<tspan class="cls-20" x="91.49" y="0">于</tspan><tspan class="cls-21" x="110.01" y="0">-</tspan><tspan class="cls-22" x="119.13" y="0">20℃</tspan><tspan class="cls-23" x="151.21" y="0">或</tspan><tspan class="cls-24" x="169.73" y="0">-</tspan><tspan x="178.85" y="0">80℃或液氮中</tspan><tspan class="cls-25" x="271.93" y="0">，</tspan><tspan x="284.75" y="0">冰袋或干冰运输</tspan><tspan class="cls-25" x="391.5" y="0">，</tspan><tspan x="404.32" y="0">注意样本不要反复冻融</tspan><tspan class="cls-9" x="556.81" y="0">。</tspan></text><text class="cls-4" transform="translate(137.14 232.41)">•<tspan class="cls-26" x="7.78" y="0"> </tspan><tspan class="cls-27" x="14.16" y="0">优先选用新鲜采集的样品送</tspan><tspan x="201.44" y="0">样</tspan><tspan class="cls-27" x="217" y="0">，其次才是冻存的样</tspan><tspan x="357.47" y="0">品</tspan><tspan class="cls-27" x="373.03" y="0">。采集样品时应选取核酸</tspan><tspan class="cls-11" x="544.7" y="0">含</tspan></text><text class="cls-4" transform="translate(137.14 255.75)">量较多的部位（如：动物的肝脏等组织）。 </text><text class="cls-4" transform="translate(137.14 284.6)">•<tspan class="cls-26" x="7.78" y="0"> </tspan><tspan class="cls-27" x="14.16" y="0">动物样品采集时建议活体取材后用生理盐水进行漂</tspan><tspan x="357.51" y="0">洗</tspan><tspan class="cls-27" x="373.07" y="0">，以去除血渍和污</tspan><tspan x="497.93" y="0">物</tspan><tspan class="cls-27" x="513.49" y="0">，并</tspan><tspan class="cls-11" x="544.7" y="0">剔</tspan></text><text class="cls-4" transform="translate(137.14 307.94)"><tspan class="cls-28">除结缔组织和毛发等非研究组</tspan><tspan class="cls-9" x="206.73" y="0">织</tspan><tspan class="cls-29" x="222.29" y="0">，样品分割和处理时应尽量在冰上进</tspan><tspan x="476.74" y="0">行</tspan><tspan class="cls-28" x="492.3" y="0">，防止</tspan><tspan class="cls-9" x="540" y="0">样</tspan></text><text class="cls-4" transform="translate(137.14 331.28)"><tspan class="cls-30">本降</tspan><tspan x="32.21" y="0">解</tspan><tspan class="cls-30" x="47.77" y="0">。将样品分割</tspan><tspan class="cls-31" x="144.4" y="0">成</tspan><tspan x="163.97" y="0">50-100</tspan><tspan class="cls-32" x="216.97" y="0"> </tspan><tspan x="223.3" y="0">m</tspan><tspan class="cls-33" x="236.61" y="0">g</tspan><tspan class="cls-30" x="249.82" y="0">左右的小</tspan><tspan x="314.24" y="0">块</tspan><tspan class="cls-30" x="329.8" y="0">，液氮速冻后放入预冷螺纹</tspan><tspan class="cls-33" x="523.06" y="0">的</tspan><tspan x="542.63" y="0">EP </tspan></text><text class="cls-4" transform="translate(137.14 354.62)">管中，-80℃保存，干冰寄送。</text><text class="cls-4" transform="translate(137.14 383.47)"><tspan class="cls-5">•</tspan><tspan x="11.67" y="0">载玻</tspan><tspan class="cls-5" x="42.79" y="0">片</tspan><tspan x="62.24" y="0">8-1</tspan><tspan class="cls-5" x="87.23" y="0">0</tspan><tspan x="100.46" y="0">片</tspan></text><text class="cls-4" transform="translate(137.14 412.32)"><tspan class="cls-5">•</tspan><tspan x="11.67" y="0">载玻片上组织块大小直</tspan><tspan class="cls-10" x="167.27" y="0">径</tspan><tspan x="186.72" y="0">10 mm</tspan><tspan class="cls-10" x="234.09" y="0">,</tspan><tspan x="242.09" y="0">面</tspan><tspan class="cls-10" x="257.65" y="0">积</tspan><tspan x="277.1" y="0">100mm</tspan></text><text class="cls-4" transform="translate(465.76 407.13) scale(0.58)">2</text><text class="cls-4" transform="translate(471.2 412.32)"><tspan class="cls-34">,</tspan><tspan x="7.98" y="0">厚</tspan><tspan class="cls-5" x="23.54" y="0">度</tspan><tspan class="cls-9" x="42.99" y="0">10-20um</tspan></text><text class="cls-4" transform="translate(137.14 441.16)"><tspan class="cls-35">•</tspan><tspan class="cls-36" x="10.33" y="0">包埋组织不要进行任何前期处理</tspan><tspan class="cls-37" x="223.82" y="0">，</tspan><tspan class="cls-36" x="233.73" y="0">不进行染色处理</tspan><tspan class="cls-38" x="340.47" y="0">，</tspan><tspan class="cls-36" x="350.39" y="0">不进行</tspan><tspan class="cls-39" x="396.13" y="0">高</tspan><tspan class="cls-22" x="413.93" y="0">pH</tspan><tspan class="cls-37" x="433.63" y="0">、</tspan><tspan class="cls-36" x="443.55" y="0">重金属离子染色</tspan><tspan x="550.29" y="0">。</tspan></text><line class="cls-40" x1="120.88" x2="120.88" y2="450.92"/><line class="cls-40" y1="127.15" x2="703.73" y2="127.15"/><line class="cls-40" y1="213.65" x2="703.73" y2="213.65"/><line class="cls-40" y1="363.95" x2="703.73" y2="363.95"/><line class="cls-40" y1="22.29" x2="703.73" y2="22.29"/><path class="cls-6" d="M18.88,13.69c-.19-.47-.5-1.14-.84-1.81V19H16.26V13.58a13.11,13.11,0,0,1-1.21,2.59,9.57,9.57,0,0,0-.88-1.86,14.64,14.64,0,0,0,2.09-4.89V9H14.51V7.32h1.75V4.43H18V7.32h1.48V9H18V9.6c.48.62,1.66,2.33,1.93,2.78Zm9.83,1.75H25.18V19H23.31V15.44H19.59V13.72h3.72V12.19H20.5V10.51h2.81V9H20V7.31H21.6a12.43,12.43,0,0,0-1.07-2.26l1.64-.57a10.71,10.71,0,0,1,1.25,2.41l-1.12.42H25a15.43,15.43,0,0,0,1.15-2.94L28,5c-.36.8-.74,1.63-1.12,2.36h1.56V9H25.18v1.51H28v1.68H25.18v1.53h3.53ZM40.05,9.33A13.24,13.24,0,0,0,44.42,15,7.52,7.52,0,0,0,43,16.58,11.28,11.28,0,0,1,41.31,15v1.35h-3.2V19h-2V16.33H32.88V15a13.43,13.43,0,0,1-1.75,1.71,8.19,8.19,0,0,0-1.36-1.51,13.47,13.47,0,0,0,4.36-5.82H30.32V7.45h5.83v-3h2v3H44V9.33Zm-3.9,5.12V9.33H36a19,19,0,0,1-2.75,5.12Zm4.73,0a19.19,19.19,0,0,1-2.71-5.12h-.06v5.12Zm13.5.65c1.17,1.21,3,1.88,5.66,2.1a5.44,5.44,0,0,0-1.13,1.74c-3-.42-4.91-1.4-6.22-3.2C51.8,17.28,50,18.35,46.39,19a5.66,5.66,0,0,0-1-1.73c3.05-.42,4.56-1.12,5.35-2.13h-5V13.37h5.71c.08-.4.14-.82.19-1.29h1.94a13,13,0,0,1-.17,1.29h6.14V15.1ZM51.74,9.86a11.81,11.81,0,0,1-5,2.81,7.85,7.85,0,0,0-1.18-1.52A12.38,12.38,0,0,0,50.34,9H46V7.31h2.9a10.06,10.06,0,0,0-1.39-1.93l1.62-.68a9.31,9.31,0,0,1,1.6,2.14l-1,.47h2.1V4.45h1.87V7.31h2.3L54.73,6.9a13.69,13.69,0,0,0,1.43-2.25l2,.53a25.87,25.87,0,0,1-1.78,2.13h3.11V9H54.77c1.71.74,3.66,1.59,4.76,2.18l-.89,1.48c-1.13-.62-3.21-1.62-5-2.47v1.58H51.74Zm23.49,6.89v1.71h-14V16.75H67.3V15.5H62.79V13.83h4.49v-1H66.13v-3H64.7a4.77,4.77,0,0,1-2.44,3.41A7.47,7.47,0,0,0,61.05,12,3.45,3.45,0,0,0,63,9.86H61.38V8.23h1.75V6.59H61.9V5H69V6.59h-1.1V8.23h1.46V9.86H67.86v2.72H69.2v1.25h4.49V15.5H69.2v1.25Zm-9.1-8.52V6.59h-1.3V8.23Zm5.54,2.35H70V5.32h1.69Zm2.89.66c0,.86-.15,1.29-.74,1.56a6.44,6.44,0,0,1-2.45.29,6.5,6.5,0,0,0-.54-1.63c.7,0,1.45,0,1.68,0s.3-.07.3-.27V4.6h1.75Z"/><path class="cls-6" d="M142.22,13.69a18.8,18.8,0,0,0-.84-1.81V19h-1.77V13.58a13.7,13.7,0,0,1-1.21,2.59,9.61,9.61,0,0,0-.89-1.86,14.45,14.45,0,0,0,2.1-4.89V9h-1.76V7.32h1.76V4.43h1.77V7.32h1.48V9h-1.48V9.6c.49.62,1.67,2.33,1.93,2.78Zm9.83,1.75h-3.53V19h-1.86V15.44h-3.72V13.72h3.72V12.19h-2.82V10.51h2.82V9h-3.29V7.31H145a12.5,12.5,0,0,0-1.08-2.26l1.65-.57a11.6,11.6,0,0,1,1.25,2.41l-1.12.42h2.67a15.43,15.43,0,0,0,1.15-2.94l1.9.58c-.36.8-.75,1.63-1.12,2.36h1.55V9h-3.28v1.51h2.82v1.68h-2.82v1.53h3.53ZM163.4,9.33A13.24,13.24,0,0,0,167.77,15a7.27,7.27,0,0,0-1.46,1.62,10.81,10.81,0,0,1-1.65-1.6v1.35h-3.21V19h-2V16.33h-3.26V15a14.16,14.16,0,0,1-1.76,1.71,8.14,8.14,0,0,0-1.35-1.51,13.45,13.45,0,0,0,4.35-5.82h-3.81V7.45h5.83v-3h2v3h5.87V9.33Zm-3.91,5.12V9.33h-.1a19.3,19.3,0,0,1-2.76,5.12Zm4.73,0a19.46,19.46,0,0,1-2.7-5.12h-.07v5.12Zm15.92-.16a7,7,0,0,1-1.41,2c1.52.41,2.89.84,4,1.21l-1.47,1.45c-1.13-.45-2.62-.93-4.32-1.43a20.12,20.12,0,0,1-7,1.49,4.94,4.94,0,0,0-.7-1.58,23.38,23.38,0,0,0,5.07-.64c-1.07-.27-2.17-.53-3.32-.76.43-.49.9-1.06,1.36-1.7H169v-1.6h4.4c.17-.3.34-.58.5-.87h-3.95V7.46h3.37V6.58h-4.09V5h13.55v1.6h-4.22v.88h3.72v4.36h-7.14l.78.19c-.11.23-.25.45-.37.68h7.54v1.6Zm-8.46-3.92h1.63V8.93h-1.63Zm2.83,3.92a8.24,8.24,0,0,1-.56.78c.92.2,1.85.42,2.74.64a5.12,5.12,0,0,0,1.4-1.42Zm.55-6.83h1.75V6.58h-1.75Zm1.75,2.91V8.93h-1.75v1.44Zm1.74-1.44v1.44h1.87V8.93Zm19.51,1.21a37.64,37.64,0,0,1-2.95,3A11.44,11.44,0,0,0,199,15.94a8.13,8.13,0,0,0-1.37,1.66,12.57,12.57,0,0,1-5.07-5.19v4.26c0,1.11-.21,1.6-.87,1.91a7.11,7.11,0,0,1-3,.38A7.71,7.71,0,0,0,188,17c.93,0,1.91,0,2.22,0s.41-.09.41-.38v-2.4c-1.78,1.15-3.63,2.3-5.14,3.2l-1.18-1.68c1.49-.76,4-2.14,6.32-3.46V8.57h-5.85V6.78h5.85V4.46h1.89V6.78h3.1a23.24,23.24,0,0,0-2.1-1.21l1.1-1.17A18.93,18.93,0,0,1,197.49,6l-.68.76h1.69V8.57h-6v.19a15.07,15.07,0,0,0,1.57,3A21,21,0,0,0,196.43,9Zm-10.29,2.94a13.7,13.7,0,0,0-2.47-3l1.41-1A14.7,14.7,0,0,1,189.28,12Zm14.57-1.39a10.25,10.25,0,0,1,3.06-7.46l1.48.65a9.72,9.72,0,0,0,0,13.63l-1.48.65A10.26,10.26,0,0,1,202.34,11.69ZM209,6.1h3.16c3.51,0,5.69,1.82,5.69,5.7s-2.18,5.8-5.57,5.8H209Zm3,9.65c2.14,0,3.48-1.15,3.48-3.95S214.16,7.93,212,7.93h-.72v7.82Zm8.09-9.65h2.35l3.34,6.12L227,14.71H227c-.12-1.2-.29-2.72-.29-4V6.1h2.17V17.6h-2.33l-3.33-6.15L222.09,9H222c.11,1.25.28,2.69.28,4V17.6h-2.18Zm17,8.55h-3.73l-.81,3h-2.33L234,6.1h2.71l3.7,11.5H238Zm-.5-1.79-.34-1.26c-.35-1.2-.67-2.52-1-3.76h-.06c-.3,1.26-.64,2.56-1,3.76l-.34,1.26Zm7.63,5.82A30.3,30.3,0,0,0,241,15.24l1.61-1.4A26.56,26.56,0,0,1,246,17.25Zm11.92-1.08-2.36-4.35h-1.6V17.6H250V6.1h4c2.41,0,4.32.84,4.32,3.48a3.29,3.29,0,0,1-2.19,3.31l2.69,4.71Zm-4-6.17h1.49c1.48,0,2.29-.62,2.29-1.85s-.81-1.66-2.29-1.66h-1.49Zm8.31-5.33h2.35l3.34,6.12,1.15,2.49h.08c-.12-1.2-.3-2.72-.3-4V6.1h2.18V17.6H267l-3.33-6.15L262.53,9h-.07c.11,1.25.28,2.69.28,4V17.6h-2.18Zm17.05,8.55h-3.73l-.81,3h-2.33l3.68-11.5h2.71l3.7,11.5h-2.41Zm-.5-1.79-.34-1.26c-.36-1.2-.67-2.52-1-3.76h-.06c-.3,1.26-.64,2.56-1,3.76l-.34,1.26Zm10.8.83c-.19-.47-.5-1.14-.84-1.81V19H285.3V13.58a13.68,13.68,0,0,1-1.22,2.59,9.57,9.57,0,0,0-.88-1.86,14.65,14.65,0,0,0,2.1-4.89V9h-1.76V7.32h1.76V4.43h1.77V7.32h1.48V9h-1.48V9.6c.48.62,1.66,2.33,1.93,2.78Zm9.83,1.75h-3.53V19h-1.87V15.44h-3.71V13.72h3.71V12.19h-2.81V10.51h2.81V9h-3.28V7.31h1.57a12.43,12.43,0,0,0-1.07-2.26l1.65-.57a11.07,11.07,0,0,1,1.24,2.41l-1.12.42H294a16.12,16.12,0,0,0,1.15-2.94l1.89.58c-.35.8-.74,1.63-1.11,2.36h1.55V9h-3.28v1.51H297v1.68h-2.81v1.53h3.53Zm11.34-6.11A13.32,13.32,0,0,0,313.45,15,7.52,7.52,0,0,0,312,16.58a11.28,11.28,0,0,1-1.65-1.6v1.35h-3.2V19h-2V16.33h-3.26V15a14.16,14.16,0,0,1-1.76,1.71,8.51,8.51,0,0,0-1.35-1.51,13.45,13.45,0,0,0,4.35-5.82h-3.81V7.45h5.83v-3h2v3H313V9.33Zm-3.9,5.12V9.33h-.11a19,19,0,0,1-2.75,5.12Zm4.73,0a19.48,19.48,0,0,1-2.71-5.12h-.06v5.12Zm9.28-2.76a10.26,10.26,0,0,1-3.07,7.47l-1.47-.65a9.74,9.74,0,0,0,0-13.63l1.47-.65A10.25,10.25,0,0,1,319.19,11.69Z"/></g></g></svg>