<svg xmlns="http://www.w3.org/2000/svg" viewBox="0 0 710.63 123.95"><defs><style>.cls-1{fill:#f2f2f2;}.cls-2{font-size:23.58px;font-family:AdobeSongStd-Light-GBpc-EUC-H, Adobe Song Std;}.cls-13,.cls-3{fill:none;stroke:#3e3a39;}.cls-3{stroke-width:0.5px;}.cls-4,.cls-7{font-size:15.72px;fill:#3e3a39;}.cls-4{font-family:PingFangSC-Regular-GBpc-EUC-H, PingFang SC;}.cls-5{letter-spacing:-0.01em;}.cls-6{letter-spacing:-0.02em;}.cls-7{font-family:PingFangSC-Semibold-GBpc-EUC-H, PingFang SC;}.cls-8{letter-spacing:0.25em;}.cls-9{letter-spacing:0.25em;}.cls-10{letter-spacing:0.25em;}.cls-11{letter-spacing:0em;}.cls-12{letter-spacing:0em;}.cls-13{stroke-width:0.28px;}</style></defs><title>资源 7</title><g id="图层_2" data-name="图层 2"><g id="图层_1-2" data-name="图层 1"><rect class="cls-1" x="0.28" y="0.25" width="710.15" height="26.24"/><text class="cls-2" transform="translate(0.77 21.49)"> </text><rect class="cls-3" x="0.28" y="0.25" width="710.1" height="123.21"/><text class="cls-4" transform="translate(361.1 46.22)">Illumina HiSeq PE150</text><text class="cls-4" transform="translate(549.55 46.22)">10-30M <tspan class="cls-5" x="63.22" y="0">R</tspan><tspan class="cls-6" x="73.67" y="0">e</tspan><tspan x="82.16" y="0">ads</tspan></text><text class="cls-7" transform="translate(361.1 19.29)">测序策略</text><text class="cls-7" transform="translate(549.55 19.29)">测序数据</text><text class="cls-7" transform="translate(15.93 19.29)">样本要求</text><text class="cls-4" transform="translate(15.93 42.87)">富<tspan class="cls-8" x="15.72" y="0">集</tspan><tspan x="35.37" y="0">DNA：大</tspan><tspan class="cls-8" x="99.55" y="0">于</tspan><tspan x="119.2" y="0">3ng, 主带</tspan><tspan class="cls-9" x="187.54" y="0">在</tspan><tspan x="207.18" y="0">150-750bp </tspan></text><text class="cls-4" transform="translate(15.93 66.46)">细胞样本：大<tspan class="cls-10" x="94.33" y="0">于</tspan><tspan class="cls-11" x="113.98" y="0">1x10*</tspan><tspan class="cls-8" x="151.98" y="0">7</tspan><tspan x="164.51" y="0">个</tspan></text><text class="cls-4" transform="translate(15.93 90.04)">动物组织：低脂肪组织，大<tspan class="cls-8" x="188.66" y="0">于</tspan><tspan x="208.31" y="0">100mg </tspan></text><text class="cls-4" transform="translate(15.93 113.62)">植物组织：新鲜组<tspan class="cls-8" x="125.77" y="0">织(</tspan><tspan x="154.59" y="0">叶片</tspan><tspan class="cls-8" x="186.03" y="0">等</tspan><tspan class="cls-11" x="205.69" y="0">)，大</tspan><tspan class="cls-8" x="242.36" y="0">于</tspan><tspan class="cls-12" x="262.02" y="0">3g</tspan></text><line class="cls-13" y1="26.49" x2="710.43" y2="26.49"/><line class="cls-13" x1="337.57" y1="0.74" x2="337.57" y2="123.95"/><line class="cls-13" x1="536.03" y1="0.74" x2="536.03" y2="123.95"/></g></g></svg>