<svg xmlns="http://www.w3.org/2000/svg" viewBox="0 0 713.66 284.4"><defs><style>.cls-1{fill:#f2f2f2;}.cls-2{font-size:23.67px;font-family:AdobeSongStd-Light-GBpc-EUC-H, Adobe Song Std;}.cls-16,.cls-3{fill:none;stroke:#3e3a39;}.cls-3{stroke-width:0.5px;}.cls-17,.cls-4{font-size:15.78px;}.cls-11,.cls-14,.cls-17,.cls-18,.cls-4{fill:#3e3a39;}.cls-11,.cls-18,.cls-4{font-family:PingFangSC-Regular-GBpc-EUC-H, PingFang SC;}.cls-5{letter-spacing:0.25em;}.cls-6{letter-spacing:0.25em;}.cls-7{letter-spacing:0em;}.cls-8{letter-spacing:-0.05em;}.cls-9{letter-spacing:0.01em;}.cls-10{letter-spacing:0.25em;}.cls-11{font-size:9.2px;}.cls-12{letter-spacing:0.05em;}.cls-13{letter-spacing:0em;}.cls-15{letter-spacing:0.25em;}.cls-16{stroke-width:0.28px;}.cls-17{font-family:PingFangSC-Semibold-GBpc-EUC-H, PingFang SC;}.cls-18{font-size:13.81px;}</style></defs><title>资源 3</title><g id="图层_2" data-name="图层 2"><g id="图层_1-2" data-name="图层 1"><rect class="cls-1" x="0.29" y="0.45" width="713.38" height="22.33"/><text class="cls-2" transform="translate(0.78 21.77)"> </text><rect class="cls-3" x="0.29" y="0.45" width="713.09" height="283.71"/><text class="cls-4" transform="translate(16.78 42.24)">DN<tspan class="cls-5" x="22.49" y="0">A</tspan><tspan x="36.8" y="0">样品</tspan></text><text class="cls-4" transform="translate(16.78 138.89)">PC<tspan class="cls-6" x="21.62" y="0">R</tspan><tspan x="36.23" y="0">产物</tspan></text><text class="cls-4" transform="translate(16.78 209.9)">粪便样本</text><text class="cls-4" transform="translate(150.61 42.24)">基因<tspan class="cls-5" x="31.56" y="0">组</tspan><tspan class="cls-7" x="51.29" y="0">DN</tspan><tspan class="cls-6" x="73.77" y="0">A用</tspan><tspan x="107.81" y="0">10mM </tspan><tspan class="cls-8" x="156.27" y="0">T</tspan><tspan x="165.22" y="0">ri</tspan><tspan class="cls-9" x="175.01" y="0">s</tspan><tspan x="183.14" y="0">-HCL(PH8.0</tspan><tspan class="cls-10" x="274.66" y="0">)</tspan><tspan class="cls-5" x="283.85" y="0">或</tspan><tspan x="303.57" y="0">N</tspan><tspan class="cls-5" x="314.92" y="0">F</tspan><tspan x="327.97" y="0">水溶解；总量</tspan><tspan class="cls-5" x="422.65" y="0">≥</tspan><tspan x="439.03" y="0" xml:space="preserve">500ng；    </tspan></text><text class="cls-4" transform="translate(150.61 63.93)">OD</text><text class="cls-11" transform="translate(173.16 66.69)">260/280 </text><text class="cls-4" transform="translate(209.46 63.93)">=1.8-2.0；浓度<tspan class="cls-5" x="109.5" y="0">≥</tspan><tspan x="125.88" y="0">20 n</tspan><tspan class="cls-12" x="158.89" y="0">g</tspan><tspan class="cls-13" x="169.03" y="0">/μL。</tspan></text><text class="cls-4" transform="translate(150.62 91.22)">DN<tspan class="cls-5" x="22.49" y="0">A</tspan><tspan x="36.8" y="0">完整纯净，无降解，无细胞凋亡，</tspan><tspan class="cls-5" x="273.5" y="0">无</tspan><tspan class="cls-7" x="293.22" y="0">RNA、蛋白质、多糖、试剂成分等残</tspan></text><text class="cls-4" transform="translate(150.62 112.92)">留或污染。干冰或冰袋运送。</text><path class="cls-14" d="M152.19,128.64h3.3c2.6,0,4.34.87,4.34,3.39s-1.74,3.58-4.26,3.58h-1.91v4.59h-1.47Zm3.19,5.79c2,0,3-.75,3-2.4s-1-2.21-3.06-2.21h-1.66v4.61Zm6.12,0c0-3.74,2.2-6,5.13-6a4.28,4.28,0,0,1,3.17,1.43l-.79,1a3.15,3.15,0,0,0-2.37-1.11c-2.19,0-3.64,1.8-3.64,4.69s1.39,4.75,3.6,4.75a3.5,3.5,0,0,0,2.68-1.3l.8.92a4.48,4.48,0,0,1-3.55,1.65C163.66,140.4,161.5,138.18,161.5,134.43Zm17.09,5.77-2.81-4.91H173.7v4.91h-1.47V128.64h3.63c2.35,0,4,.83,4,3.25a3.14,3.14,0,0,1-2.62,3.25l3,5.06Zm-4.89-6.09h1.94c1.81,0,2.81-.73,2.81-2.22s-1-2.07-2.81-2.07H173.7Zm25.38-.08H187.71v1c0,1.86-.29,4.59-1.63,6.45a6.14,6.14,0,0,0-1-.82,9.73,9.73,0,0,0,1.39-5.66V132.9h7.54a18.44,18.44,0,0,0,1.28-2.65l1.26.41c-.43.75-.92,1.57-1.36,2.24h3.85Zm-.41-4h-12.4v-1.12h5.9a8,8,0,0,0-1-1.6l1.15-.33a8.62,8.62,0,0,1,1.18,1.89l-.08,0h5.21ZM190,132.85a11.18,11.18,0,0,0-1.32-2.27l1-.41a11,11,0,0,1,1.39,2.21Zm14.9,2.82v5.74H203.8V136l-2.6.8-.31-1.12c.8-.22,1.81-.49,2.91-.83v-3.52h-1.43a12,12,0,0,1-.7,2.33,5.94,5.94,0,0,0-.89-.52,18.76,18.76,0,0,0,1.08-5.25l1,.18c-.08.71-.19,1.43-.3,2.12h1.21V127h1.09v3.2h1.63v1.14h-1.63v3.22l1.83-.57.16,1Zm10.32-6s0,.44,0,.58c-.35,7.15-.69,9.59-1.32,10.38a1.37,1.37,0,0,1-1.09.6,10.69,10.69,0,0,1-1.8,0,2.63,2.63,0,0,0-.33-1.15c.71.06,1.34.08,1.65.08a.69.69,0,0,0,.59-.27c.5-.56.85-2.89,1.16-9.13h-.75c-.79,4.13-2.53,8.32-5.14,10.4a3.69,3.69,0,0,0-1-.71c2.58-1.86,4.29-5.74,5.11-9.69H211c-.71,2.69-2.17,5.64-3.88,7.14a4,4,0,0,0-.94-.68c1.68-1.31,3.08-3.94,3.81-6.46h-1.36a12.82,12.82,0,0,1-1.8,3,7.85,7.85,0,0,0-.9-.68,13.36,13.36,0,0,0,2.76-6.05l1.07.22a19.41,19.41,0,0,1-.7,2.43h5v0ZM230,139.82c0,.76-.2,1.1-.71,1.31a10.43,10.43,0,0,1-2.93.19,5.13,5.13,0,0,0-.39-1.14c1.1,0,2.17,0,2.46,0s.42-.11.42-.41v-3.2H224.6v4.65h-1.17V136.6h-3.94a9.07,9.07,0,0,1-2,4.89,3.87,3.87,0,0,0-.9-.77c1.73-2,1.89-4.73,1.89-6.93v-5.67H230Zm-6.56-4.34v-2.62h-3.77v.93c0,.53,0,1.11-.06,1.69Zm-3.77-6.24v2.52h3.77v-2.52Zm9.18,0H224.6v2.52h4.24Zm0,6.24v-2.62H224.6v2.62Zm10.79-5.61h-3.5v-1.23h8.47v1.23h-3.5V140.2h-1.47Zm7-1.23h6.67v1.23h-5.2v3.63h4.38v1.24h-4.38V139h5.38v1.25h-6.85Zm14,10.67h0l-.13.89h-1.15V127.64h1.43v3.44l0,1.55a4.29,4.29,0,0,1,2.68-1.22c2.22,0,3.42,1.74,3.42,4.36,0,2.95-1.75,4.63-3.72,4.63A3.78,3.78,0,0,1,260.68,139.31Zm4.67-3.51c0-1.89-.63-3.17-2.25-3.17a3.55,3.55,0,0,0-2.31,1.18v4.5a3.29,3.29,0,0,0,2.1.89C264.31,139.2,265.35,137.93,265.35,135.8Zm3.65,1.26v-5.43h1.44v5.26c0,1.59.47,2.27,1.61,2.27.88,0,1.49-.43,2.31-1.45v-6.08h1.44v8.57h-1.2l-.11-1.34h-.05a3.65,3.65,0,0,1-2.84,1.54C269.81,140.4,269,139.24,269,137.06Zm18.55-8.25a2.43,2.43,0,0,0-1-.22c-.82,0-1.21.58-1.21,1.69v1.35h1.81v1.17h-1.81v7.4h-1.44v-7.4h-3.58v7.4h-1.43v-7.4h-1.17v-1.09l1.17-.08v-1.15c0-1.76.88-2.87,2.65-2.87a4.11,4.11,0,0,1,1.57.3l-.3,1.11a2.49,2.49,0,0,0-1.15-.26c-.85,0-1.34.63-1.34,1.77v1.1h3.58v-1.37c0-1.73.79-2.82,2.51-2.82a3.78,3.78,0,0,1,1.42.28Zm.47,7.11c0-2.77,1.87-4.51,3.86-4.51,2.18,0,3.41,1.58,3.41,4a4.64,4.64,0,0,1-.07.82h-5.77a2.84,2.84,0,0,0,2.84,3,3.69,3.69,0,0,0,2.15-.68l.52,1a5.12,5.12,0,0,1-2.84.88C289.85,140.4,288,138.75,288,135.92Zm6-.69c0-1.73-.79-2.67-2.13-2.67a2.63,2.63,0,0,0-2.46,2.67Zm3.38-3.6h1.18l.12,1.57h.05a3,3,0,0,1,2.43-1.79,1.87,1.87,0,0,1,.92.19l-.27,1.26a2.06,2.06,0,0,0-.84-.14c-.71,0-1.59.51-2.16,2v5.51h-1.43ZM314,138.84c-2.41.52-5,1.07-6.81,1.48l-.22-1.18c1.7-.33,4.38-.87,6.94-1.4Zm6-6.76a18.14,18.14,0,0,1-2.79,5.52c.59,1.62,1.3,2.6,2.07,2.6.44,0,.63-.82.72-2.92a2.87,2.87,0,0,0,1,.66c-.21,2.7-.65,3.47-1.86,3.47s-2.13-1-2.84-2.73A14.28,14.28,0,0,1,313,141.4a6.46,6.46,0,0,0-.91-.9,12.49,12.49,0,0,0,3.78-3.09,33.73,33.73,0,0,1-1.1-6.74H307v-1.15h7.69c-.05-.82-.07-1.64-.08-2.48h1.23c0,.86,0,1.68,0,2.48h4.74v1.15H316a33.44,33.44,0,0,0,.82,5.51,17.37,17.37,0,0,0,2-4.39Zm-6.62,0v4.76h-5.44v-4.76Zm-1.15,1H309v2.72h3.2Zm7.24-3.58a11.09,11.09,0,0,0-2.67-1.72l.68-.73a11.84,11.84,0,0,1,2.71,1.63Zm7.43,9.49h2.57v-8.63h-2.05v-.91a7.38,7.38,0,0,0,2.4-.82h1.1V139h2.32v1.2h-6.34Zm8.15-4.62c0-4,1.4-6,3.61-6s3.59,2,3.59,6-1.4,6-3.59,6S335,138.4,335,134.38Zm5.8,0c0-3.38-.88-4.8-2.19-4.8s-2.21,1.42-2.21,4.8.88,4.87,2.21,4.87S340.82,137.79,340.82,134.38Zm3.63-2.75h1.18l.13,1.25h.05a3.76,3.76,0,0,1,2.66-1.47,2.26,2.26,0,0,1,2.37,1.64,4,4,0,0,1,2.82-1.64c1.77,0,2.6,1.17,2.6,3.36v5.43h-1.43V135c0-1.61-.51-2.28-1.59-2.28a3.13,3.13,0,0,0-2.16,1.3v6.22h-1.44V135c0-1.61-.5-2.28-1.59-2.28a3.15,3.15,0,0,0-2.16,1.3v6.22h-1.44Zm14.74-3H361l2.22,6.18c.27.8.54,1.61.82,2.41h.08c.27-.8.52-1.61.79-2.41l2.21-6.18h1.76V140.2h-1.37v-6.41c0-1,.11-2.39.19-3.4h-.06l-.92,2.63-2.19,6h-1l-2.19-6-.92-2.63h-.06c.06,1,.17,2.41.17,3.4v6.41h-1.32ZM378,129.87h-3.5v-1.23h8.47v1.23h-3.5V140.2H378Zm6.09,1.76h1.19l.12,1.57h0a3,3,0,0,1,2.43-1.79,1.8,1.8,0,0,1,.91.19l-.26,1.26a2.06,2.06,0,0,0-.84-.14c-.71,0-1.59.51-2.16,2v5.51H384Zm5.86-2.69a1,1,0,0,1,2,0,1,1,0,0,1-2,0Zm.27,2.69h1.43v8.57h-1.43Zm3.37,7.59.71-.95a3.89,3.89,0,0,0,2.54,1c1.14,0,1.69-.6,1.69-1.34s-1-1.26-2-1.62c-1.19-.44-2.55-1-2.55-2.48s1.09-2.43,2.95-2.43a4.4,4.4,0,0,1,2.66,1l-.69.93a3.18,3.18,0,0,0-2-.76c-1.07,0-1.56.57-1.56,1.23,0,.82.93,1.12,1.89,1.48,1.25.47,2.62,1,2.62,2.6,0,1.39-1.11,2.54-3.13,2.54A5.16,5.16,0,0,1,393.54,139.22Zm7.8-4h4v1.1h-4Zm6.32-6.59h1.47v4.84h5.39v-4.84H416V140.2h-1.46v-5.46h-5.39v5.46h-1.47Zm10.83,5.79c0-3.74,2.19-6,5.13-6a4.3,4.3,0,0,1,3.17,1.43l-.79,1a3.17,3.17,0,0,0-2.37-1.11c-2.19,0-3.64,1.8-3.64,4.69s1.39,4.75,3.59,4.75a3.49,3.49,0,0,0,2.68-1.3l.81.92a4.49,4.49,0,0,1-3.55,1.65C420.65,140.4,418.49,138.18,418.49,134.43Zm10.73-5.79h1.47V139h5v1.25h-6.51Zm8.43,6.65a14.71,14.71,0,0,1,2.31-8l.9.41a15.32,15.32,0,0,0,0,15.17l-.9.43A14.82,14.82,0,0,1,437.65,135.29Zm5.46-6.65h3.29c2.6,0,4.34.87,4.34,3.39s-1.74,3.58-4.26,3.58h-1.91v4.59h-1.46Zm3.18,5.79c2,0,3-.75,3-2.4s-1-2.21-3.06-2.21h-1.66v4.61Zm6.79-5.79h1.47v4.84h5.39v-4.84h1.45V140.2h-1.45v-5.46h-5.39v5.46h-1.47Zm10.62,8.69a3.7,3.7,0,0,1,2.13-3.19v-.08a3.21,3.21,0,0,1-1.56-2.66,3.18,3.18,0,0,1,6.34.11,3.79,3.79,0,0,1-1.55,2.79v.08a3.37,3.37,0,0,1,2,3c0,1.68-1.45,3-3.63,3S463.7,139.11,463.7,137.33Zm5.95,0c0-1.55-1.42-2.13-3.06-2.8A3.16,3.16,0,0,0,465,137.2a2.21,2.21,0,0,0,2.41,2.13A2,2,0,0,0,469.65,137.38Zm-.27-5.79a1.93,1.93,0,0,0-2-2.07,1.78,1.78,0,0,0-1.83,1.88c0,1.39,1.24,2,2.6,2.52A3.09,3.09,0,0,0,469.38,131.59Zm3.52,7.72a1,1,0,1,1,2.08,0,1,1,0,1,1-2.08,0Zm4-4.93c0-4,1.4-6,3.61-6s3.59,2,3.59,6-1.4,6-3.59,6S476.91,138.4,476.91,134.38Zm5.8,0c0-3.38-.88-4.8-2.19-4.8s-2.21,1.42-2.21,4.8.88,4.87,2.21,4.87S482.71,137.79,482.71,134.38Zm2.86,8.5a15.25,15.25,0,0,0,0-15.17l.88-.41a14.86,14.86,0,0,1,0,16Zm16.53-4c-2.42.52-5,1.07-6.82,1.48l-.22-1.18c1.71-.33,4.39-.87,6.94-1.4Zm6-6.76a18.6,18.6,0,0,1-2.79,5.52c.58,1.62,1.29,2.6,2.07,2.6.44,0,.63-.82.72-2.92a2.87,2.87,0,0,0,1,.66c-.21,2.7-.65,3.47-1.86,3.47s-2.13-1-2.84-2.73a14.28,14.28,0,0,1-3.33,2.72,7,7,0,0,0-.91-.9,12.49,12.49,0,0,0,3.78-3.09,33.73,33.73,0,0,1-1.1-6.74h-7.75v-1.15h7.68c0-.82-.06-1.64-.08-2.48H504c0,.86,0,1.68,0,2.48h4.73v1.15H504.1a33.44,33.44,0,0,0,.82,5.51,17.37,17.37,0,0,0,2-4.39Zm-6.62,0v4.76h-5.44v-4.76Zm-1.15,1h-3.2v2.72h3.2Zm7.24-3.58a11.51,11.51,0,0,0-2.67-1.72l.68-.73a11.84,11.84,0,0,1,2.71,1.63Zm7.62-.87h1.51l4.21,7.28,1.23,2.39h.08c-.08-1.17-.19-2.46-.19-3.66v-6h1.39V140.2h-1.5l-4.21-7.3-1.24-2.39h-.07c.07,1.17.18,2.4.18,3.62v6.07h-1.39Zm11.39,0h6.67v1.23h-5.2v3.91h4.42V135h-4.42v5.19H526.6ZM544,131.27c-.76,4.1-2.61,7-4.83,8.58a4.11,4.11,0,0,0-.93-.88,11.08,11.08,0,0,0,4.35-6.78h-3.85V131H543l.24-.05Zm7.45-.57a35.76,35.76,0,0,1-3.51,3.55,13.07,13.07,0,0,0,4.93,4.47,5.31,5.31,0,0,0-.86,1.05,15,15,0,0,1-5.92-6.62v6.65c0,.78-.19,1.16-.64,1.36a6.77,6.77,0,0,1-2.46.25,4.61,4.61,0,0,0-.45-1.27c.9,0,1.72,0,2,0s.36-.1.36-.37V127h1.23v3.79a19.47,19.47,0,0,0,1.26,2.55,24.21,24.21,0,0,0,3-3.43Zm5.44,3.35a21,21,0,0,0-2.89-1.71l.63-.86a20.39,20.39,0,0,1,2.91,1.57Zm1.07,2.08c-.69,1.66-1.65,3.63-2.44,5.08l-1.06-.7a48.12,48.12,0,0,0,2.57-5.06Zm-.5-6.21a17.24,17.24,0,0,0-2.75-1.83l.65-.84a18.15,18.15,0,0,1,2.81,1.72Zm6.51,2.55c-.09.14-.17.3-.27.43a15.39,15.39,0,0,0,4.8,3.26,4.57,4.57,0,0,0-.56,1c-.41-.22-.86-.46-1.3-.74v4.91h-1.12v-.59h-4.75v.63h-1.07v-4.74c-.35.22-.7.42-1.06.63a4.28,4.28,0,0,0-.76-.78,13.36,13.36,0,0,0,5-4.43Zm-1.62-1.64a13.23,13.23,0,0,1-3.1,3.06,7.25,7.25,0,0,0-.85-.77,9.73,9.73,0,0,0,2.9-2.65Zm-2.72.58h-1.07V128.8h4.35a17,17,0,0,0-.75-1.55l1.05-.33a16.89,16.89,0,0,1,1,1.88H568v2.61h-1.1v-1.62h-7.31Zm6.82,4.92a18.91,18.91,0,0,1-3.35-2.65,14.94,14.94,0,0,1-2.93,2.65Zm-.93,3.46v-2.48h-4.75v2.48Zm-.64-9.37a28.48,28.48,0,0,1,3,2.65l-.87.69a23.34,23.34,0,0,0-2.92-2.77Zm11.67,9.65c0,.51-.1.81-.44,1a3.55,3.55,0,0,1-1.6.2,3.35,3.35,0,0,0-.31-1c.55,0,1,0,1.13,0s.23-.05.23-.22v-2.37h-1.42v2.89h-.86v-2.89h-1.53a8.66,8.66,0,0,1-1.18,3.77,3.11,3.11,0,0,0-.85-.55c1.06-1.66,1.17-4,1.17-5.76v-2.9c-.11.14-.24.28-.35.43a5.89,5.89,0,0,0-.85-.68,12.22,12.22,0,0,0,2.46-5l1.06.22c-.12.39-.24.79-.37,1.18H575l.17-.05.71.46a19.13,19.13,0,0,1-1,2.16h1.64Zm-4-10.74c-.26.57-.51,1.14-.79,1.64h2.11a12.27,12.27,0,0,0,.71-1.64Zm.78,7.43v-2.08h-1.38v.49c0,.49,0,1,0,1.59Zm-1.38-3h1.38V131.9h-1.38Zm2.24,0h1.42V131.9h-1.42Zm1.42,3v-2.08h-1.42v2.08Zm4.81-8a5.25,5.25,0,0,1-2.89,4.27,3.41,3.41,0,0,0-.65-.82,4.22,4.22,0,0,0,2.48-3.45h-2.15v-1h6.61s0,.3,0,.46c-.13,2.59-.27,3.6-.6,4a1.12,1.12,0,0,1-.85.4,15.45,15.45,0,0,1-1.63,0,2.82,2.82,0,0,0-.28-1,12.82,12.82,0,0,0,1.42.07c.22,0,.34,0,.45-.14a7.64,7.64,0,0,0,.4-2.76Zm3.83,9.58h-2.75v3h-1.1v-3h-3.17v-1h3.17v-1.92h-1.72a7.24,7.24,0,0,1-.82,1.52,6.94,6.94,0,0,0-.9-.48,8.67,8.67,0,0,0,1.42-3.52l1,.19c-.09.44-.22.85-.35,1.28h1.36v-1.5h1.1v1.5h2.35v1h-2.35v1.92h2.75Zm2.74,3.54a2.93,2.93,0,0,0,2-2.67.89.89,0,0,1-.28,0,1.08,1.08,0,0,1-1.18-1.13,1.11,1.11,0,0,1,1.19-1.14c.87,0,1.36.74,1.36,1.93a3.93,3.93,0,0,1-2.73,3.8Zm.46-10.55a1.16,1.16,0,0,1,1.18-1.2,1.18,1.18,0,0,1,1.2,1.2,1.16,1.16,0,0,1-1.2,1.16A1.14,1.14,0,0,1,587.39,131.37Zm13.5,8.64a9.09,9.09,0,0,0,1.48-3.38l1.09.22a10.06,10.06,0,0,1-1.5,3.68ZM613,135.15h-9.88v-5h2.71a12.8,12.8,0,0,0-1.59-2.65l1-.45a10.6,10.6,0,0,1,1.67,2.63l-1,.47h3.23A18.4,18.4,0,0,0,610.9,127l1.2.49c-.51.88-1.09,1.86-1.62,2.66H613Zm-1.27-3.86h-7.38v2.76h7.38Zm-1.38,8.88c.78,0,.9-.22,1-1.6a3.41,3.41,0,0,0,1.1.43c-.17,1.78-.55,2.22-2,2.22h-3.52c-1.86,0-2.32-.33-2.32-1.61v-3.23h1.2v3.23c0,.48.19.56,1.19.56Zm-2.88-4.88a14.28,14.28,0,0,1,2.84,2.48l-.85.76a13.59,13.59,0,0,0-2.81-2.57Zm5.49,1a12.57,12.57,0,0,1,2.22,3.43l-1,.59a13.21,13.21,0,0,0-2.17-3.5Zm17.95,3.8V141H616.71v-.91h6.5v-.9H618v-.84h5.2v-.85h-4.73v-3.93h10.8v3.93h-4.93v.85h5.23v.84h-5.23v.9Zm-.14-7.23h-14V132h14Zm-1.94-1.51H618.76v-3.83h10.08Zm-9.27,3.86h3.64v-.91h-3.64Zm3.64,1.57v-.93h-3.64v.93Zm4.46-8.55h-7.79v.88h7.79Zm0,1.51h-7.79v.9h7.79Zm.46,4.56h-3.78v.91h3.78Zm0,1.55h-3.78v.93h3.78ZM643,132.5v-.05l-9.29-3.75.41-1,11.77,4.76v.05l-11.77,4.76-.41-1Zm-9.26,7.13,11.78-4.76.38.94-11.78,4.77Zm18.38-5.25c0-4,1.41-6,3.61-6s3.6,2,3.6,6-1.4,6-3.6,6S652.07,138.4,652.07,134.38Zm5.81,0c0-3.38-.89-4.8-2.2-4.8s-2.2,1.42-2.2,4.8.88,4.87,2.2,4.87S657.88,137.79,657.88,134.38Zm3.33,4.93a1,1,0,1,1,2.08,0,1,1,0,1,1-2.08,0Zm3.68-.44.7-.94a3.82,3.82,0,0,0,2.84,1.27,2.49,2.49,0,0,0,2.46-2.72,2.34,2.34,0,0,0-2.39-2.64,3.18,3.18,0,0,0-1.93.68l-.77-.47.36-5.41h5.63v1.23h-4.37l-.28,3.34a3.39,3.39,0,0,1,1.72-.46,3.31,3.31,0,0,1,3.49,3.68,3.75,3.75,0,0,1-3.79,4A4.87,4.87,0,0,1,664.89,138.87Zm9.76-7.24h1.44v5.26c0,1.49.45,2.27,1.57,2.27.78,0,1.47-.26,2.28-1.66v-5.87h1.45c0,2.32-.1,4.83-.1,6.9,0,.49.25.67.63.67a1.89,1.89,0,0,0,.51-.09l.19,1.09a2.28,2.28,0,0,1-1,.2c-1,0-1.44-.5-1.55-1.65h0a2.77,2.77,0,0,1-2.4,1.62,1.69,1.69,0,0,1-1.65-.82c0,1.69,0,2.45.12,3.79h-1.45Zm9.25,10.21a2.41,2.41,0,0,1,1.28-1.94v-.06a1.56,1.56,0,0,1-.79-1.41,2.08,2.08,0,0,1,1-1.59v-.06a3,3,0,0,1-1.12-2.31,3.05,3.05,0,0,1,3.22-3.06,3.57,3.57,0,0,1,1.2.22h3v1.11h-1.75a2.42,2.42,0,0,1,.69,1.76,3.08,3.08,0,0,1-4.4,2.69,1.27,1.27,0,0,0-.55,1c0,.55.35.93,1.5.93h1.67c2,0,3,.63,3,2,0,1.59-1.67,3-4.32,3C685.35,144.14,683.9,143.32,683.9,141.84Zm6.48-.44c0-.79-.61-1.06-1.75-1.06h-1.48a5.11,5.11,0,0,1-1.11-.14,1.8,1.8,0,0,0-.88,1.45c0,.91.93,1.51,2.49,1.51S690.38,142.3,690.38,141.4Zm-1.12-6.93a1.83,1.83,0,1,0-3.64,0,1.83,1.83,0,1,0,3.64,0Zm4.77,7.45a3,3,0,0,0,2-2.67,1,1,0,0,1-.29,0,1.09,1.09,0,0,1-1.18-1.13,1.12,1.12,0,0,1,1.2-1.14c.87,0,1.36.74,1.36,1.93a3.93,3.93,0,0,1-2.73,3.8Zm.46-10.55a1.19,1.19,0,1,1,1.18,1.16A1.14,1.14,0,0,1,694.49,131.37Z"/><text class="cls-4" transform="translate(150.62 161.9)">OD</text><text class="cls-11" transform="translate(173.16 164.66)">260/280 </text><text class="cls-4" transform="translate(209.46 161.91)">=1.8-2.0；浓度<tspan class="cls-5" x="109.5" y="0">≥</tspan><tspan x="125.88" y="0">20 n</tspan><tspan class="cls-12" x="158.89" y="0">g</tspan><tspan class="cls-13" x="169.03" y="0">/μL，片段大小 &lt; 450bp；条带单一，无降解，</tspan></text><text class="cls-4" transform="translate(150.62 183.6)">无引物二聚体，干冰或冰袋运送。</text><text class="cls-4" transform="translate(150.62 210.89)">清晨采集新鲜粪便样品，放于无菌离心管中（样本覆盖不超<tspan class="cls-5" x="410.28" y="0">过</tspan><tspan x="430.01" y="0">2m</tspan><tspan class="cls-6" x="452.97" y="0">l</tspan><tspan class="cls-13" x="460.62" y="0">无菌离心管底</tspan></text><text class="cls-4" transform="translate(150.62 232.59)">部<tspan class="cls-5" x="15.78" y="0">起</tspan><tspan class="cls-7" x="35.51" y="0">1/4-1/</tspan><tspan class="cls-5" x="82.95" y="0">3</tspan><tspan x="96.37" y="0">即可，</tspan><tspan class="cls-6" x="143.71" y="0">约</tspan><tspan x="163.43" y="0">100-200mg），液氮速</tspan><tspan class="cls-15" x="328.36" y="0">冻</tspan><tspan class="cls-13" x="348.07" y="0">3-5min，-80℃长期保存。干</tspan></text><text class="cls-4" transform="translate(150.62 254.28)">冰或冰袋运输；如无条件液氮速冻，尽量在完成取样后，冻<tspan class="cls-5" x="410.28" y="0">入</tspan><tspan class="cls-7" x="430.01" y="0">-80℃冰箱保存或</tspan></text><text class="cls-4" transform="translate(150.62 275.98)">直接干冰运输。</text><line class="cls-16" x1="122.59" x2="122.59" y2="283.66"/><line class="cls-16" y1="22.77" x2="713.66" y2="22.77"/><line class="cls-16" y1="119.78" x2="713.66" y2="119.78"/><line class="cls-16" y1="187.58" x2="713.66" y2="187.58"/><text class="cls-17" transform="translate(16.78 18.02)">样本类型</text><text class="cls-17" transform="translate(387.33 18.02)">样本要求</text><text class="cls-18" transform="translate(138.08 40.1)">• </text><text class="cls-18" transform="translate(138.08 138.34)">• </text><text class="cls-18" transform="translate(138.08 89.16)">• </text><text class="cls-18" transform="translate(138.08 207.84)">• </text></g></g></svg>