<svg xmlns="http://www.w3.org/2000/svg" viewBox="0 0 713.96 568.15"><defs><style>.cls-1{fill:#f2f2f2;}.cls-2{font-size:23.68px;font-family:AdobeSongStd-Light-GBpc-EUC-H, Adobe Song Std;}.cls-3,.cls-36{fill:none;stroke:#3e3a39;}.cls-3{stroke-width:0.5px;}.cls-10,.cls-4,.cls-5,.cls-53{font-size:15.79px;}.cls-10,.cls-37,.cls-4,.cls-47,.cls-48,.cls-5,.cls-53{fill:#3e3a39;}.cls-10,.cls-37,.cls-4,.cls-48,.cls-5{font-family:PingFangSC-Regular-GBpc-EUC-H, PingFang SC;}.cls-5{letter-spacing:-0.01em;}.cls-6{letter-spacing:-0.02em;}.cls-7{letter-spacing:0.23em;}.cls-8{letter-spacing:-0.02em;}.cls-9{letter-spacing:0em;}.cls-10,.cls-51{letter-spacing:0.01em;}.cls-11{letter-spacing:0.24em;}.cls-12{letter-spacing:-0.03em;}.cls-13{letter-spacing:0.24em;}.cls-14{letter-spacing:0em;}.cls-15{letter-spacing:0.24em;}.cls-16{letter-spacing:0.02em;}.cls-17{letter-spacing:0.24em;}.cls-18{letter-spacing:-0.02em;}.cls-19{letter-spacing:-0.02em;}.cls-20{letter-spacing:0em;}.cls-21{letter-spacing:0.02em;}.cls-22{letter-spacing:0.02em;}.cls-23{letter-spacing:0.25em;}.cls-24{letter-spacing:0.25em;}.cls-25{letter-spacing:0.02em;}.cls-26{letter-spacing:0.25em;}.cls-27{letter-spacing:0.02em;}.cls-28{letter-spacing:0.25em;}.cls-29{letter-spacing:0.25em;}.cls-30{letter-spacing:0em;}.cls-31{letter-spacing:0.01em;}.cls-32{letter-spacing:0.25em;}.cls-33{letter-spacing:0.25em;}.cls-34{letter-spacing:0.01em;}.cls-35{letter-spacing:-0.02em;}.cls-36{stroke-width:0.28px;}.cls-37{font-size:13.81px;}.cls-38{letter-spacing:0.03em;}.cls-39{letter-spacing:0.26em;}.cls-40{letter-spacing:0.03em;}.cls-41{letter-spacing:0.22em;}.cls-42{letter-spacing:-0.13em;}.cls-43{letter-spacing:0.22em;}.cls-44{letter-spacing:-0.13em;}.cls-45{letter-spacing:0.01em;}.cls-46{letter-spacing:0.25em;}.cls-48{font-size:9.2px;}.cls-49{letter-spacing:0em;}.cls-50{letter-spacing:0.05em;}.cls-52{letter-spacing:0.05em;}.cls-53{font-family:PingFangSC-Semibold-GBpc-EUC-H, PingFang SC;}</style></defs><title>资源 4</title><g id="图层_2" data-name="图层 2"><g id="图层_1-2" data-name="图层 1"><rect class="cls-1" x="0.29" y="0.49" width="713.66" height="22.33"/><text class="cls-2" transform="translate(0.78 21.82)"> </text><rect class="cls-3" x="0.29" y="0.49" width="713.37" height="567.17"/><text class="cls-4" transform="translate(16.8 223.2)">粪便样本</text><text class="cls-4" transform="translate(16.8 317.92)">肠道内容物</text><text class="cls-4" transform="translate(16.8 412.64)">皮肤样本</text><text class="cls-4" transform="translate(16.8 491.57)">口腔拭子</text><text class="cls-5" transform="translate(148.93 319.18)">无菌条件下对动物个体进行处<tspan class="cls-6" x="203.38" y="0">理</tspan><tspan x="218.85" y="0">，</tspan><tspan class="cls-7" x="234.49" y="0">用</tspan><tspan class="cls-8" x="253.94" y="0">75</tspan><tspan class="cls-7" x="271.41" y="0">%</tspan><tspan x="290.39" y="0">酒精擦拭体</tspan><tspan class="cls-6" x="368.61" y="0">表</tspan><tspan x="384.08" y="0">，用无菌解剖剪剪开</tspan><tspan class="cls-9" x="524.88" y="0">动</tspan></text><text class="cls-10" transform="translate(148.93 340.89)">物腹<tspan class="cls-6" x="31.73" y="0">部</tspan><tspan x="47.2" y="0">，取出胃肠道等目的器</tspan><tspan class="cls-8" x="205.85" y="0">官</tspan><tspan x="221.32" y="0">，</tspan><tspan class="cls-11" x="237.19" y="0">用</tspan><tspan class="cls-8" x="256.7" y="0">P</tspan><tspan class="cls-12" x="266.52" y="0">B</tspan><tspan class="cls-13" x="276.65" y="0">S</tspan><tspan x="290.36" y="0">进行清</tspan><tspan class="cls-6" x="337.95" y="0">洗</tspan><tspan x="353.42" y="0">，离心收集沉</tspan><tspan class="cls-6" x="448.61" y="0">淀</tspan><tspan x="464.09" y="0">，分装</tspan><tspan class="cls-13" x="511.68" y="0">于</tspan><tspan class="cls-6" x="531.19" y="0">2</tspan><tspan class="cls-14" x="540.35" y="0"> </tspan></text><text class="cls-4" transform="translate(148.93 362.59)"><tspan class="cls-6">m</tspan><tspan class="cls-15" x="13.18" y="0">L</tspan><tspan class="cls-16" x="26.25" y="0">离心管</tspan><tspan class="cls-6" x="74.56" y="0">中</tspan><tspan class="cls-16" x="90.03" y="0">（样本覆盖不超</tspan><tspan class="cls-17" x="202.74" y="0">过</tspan><tspan class="cls-8" x="222.32" y="0">2m</tspan><tspan class="cls-15" x="244.66" y="0">l</tspan><tspan class="cls-16" x="252.15" y="0">无菌离心管底部</tspan><tspan class="cls-17" x="364.87" y="0">起</tspan><tspan class="cls-8" x="384.44" y="0">1/4</tspan><tspan class="cls-18" x="407.19" y="0">-</tspan><tspan class="cls-8" x="416.44" y="0">1/</tspan><tspan class="cls-17" x="430.03" y="0">3</tspan><tspan class="cls-16" x="443.29" y="0">即</tspan><tspan class="cls-8" x="459.4" y="0">可</tspan><tspan class="cls-16" x="474.87" y="0">，</tspan><tspan class="cls-17" x="490.97" y="0">约</tspan><tspan class="cls-8" x="510.54" y="0">100</tspan><tspan x="534.87" y="0">-</tspan></text><text class="cls-4" transform="translate(148.93 384.3)"><tspan class="cls-8">200m</tspan><tspan class="cls-19" x="40.65" y="0">g</tspan><tspan class="cls-6" x="49.68" y="0">）；迅速置于液氮中冷冻 3~4h， </tspan><tspan class="cls-18" x="279.56" y="0">-</tspan><tspan class="cls-8" x="288.81" y="0">80℃长期保存。干冰或冰袋运</tspan><tspan x="491.54" y="0">输</tspan></text><text class="cls-4" transform="translate(148.93 412.54)"><tspan class="cls-20">采用无菌棉签或无菌手术刀片轻轻刮取皮肤表面取</tspan><tspan x="348.34" y="0">样</tspan><tspan class="cls-20" x="364.13" y="0">，取样后将棉签置于无</tspan><tspan class="cls-9" x="522.46" y="0">菌</tspan></text><text class="cls-4" transform="translate(148.93 434.25)"><tspan class="cls-21">的离心</tspan><tspan x="48.5" y="0">管</tspan><tspan class="cls-21" x="64.28" y="0">，液氮速</tspan><tspan class="cls-9" x="128.94" y="0">冻，-8</tspan><tspan class="cls-22" x="179.54" y="0">0℃长期保</tspan><tspan x="252.82" y="0">存</tspan><tspan class="cls-21" x="268.6" y="0">；如果研究正常情况下皮肤微生</tspan><tspan class="cls-9" x="494.92" y="0">物</tspan><tspan class="cls-21" x="510.7" y="0">，</tspan><tspan x="526.87" y="0">取</tspan></text><text class="cls-4" transform="translate(148.93 455.96)">样<tspan class="cls-23" x="15.79" y="0">前</tspan><tspan x="35.52" y="0">24</tspan><tspan class="cls-24" x="54.46" y="0">h</tspan><tspan class="cls-9" x="67.19" y="0">不能洗澡，不能使用润肤乳及抗菌活性的肥皂等。干冰或冰袋运输</tspan></text><text class="cls-4" transform="translate(148.93 491.85)"><tspan class="cls-25">采样</tspan><tspan class="cls-26" x="32.14" y="0">前</tspan><tspan x="51.94" y="0">3</tspan><tspan class="cls-26" x="61.41" y="0">0</tspan><tspan class="cls-25" x="74.89" y="0">分钟勿进</tspan><tspan x="139.17" y="0">食</tspan><tspan class="cls-25" x="154.96" y="0">、饮</tspan><tspan x="187.1" y="0">水</tspan><tspan class="cls-25" x="202.89" y="0">、抽烟及嚼口香</tspan><tspan x="315.38" y="0">糖</tspan><tspan class="cls-27" x="331.16" y="0">；小心将采样拭子放入口</tspan><tspan x="507.94" y="0">中，</tspan></text><text class="cls-4" transform="translate(148.93 513.56)">在两颊内侧各用力旋转刮<tspan class="cls-28" x="173.65" y="0">拭</tspan><tspan x="193.37" y="0">3</tspan><tspan class="cls-29" x="202.84" y="0">0</tspan><tspan class="cls-30" x="216.22" y="0">次；</tspan><tspan class="cls-9" x="247.77" y="0">采样完毕后将拭子伸入采样管的保存液中，</tspan></text><text class="cls-4" transform="translate(148.93 535.26)"><tspan class="cls-31">沿折痕折</tspan><tspan x="63.59" y="0">断</tspan><tspan class="cls-31" x="79.37" y="0">，拧紧采样管</tspan><tspan x="174.75" y="0">盖</tspan><tspan class="cls-31" x="190.54" y="0">，反复颠倒混</tspan><tspan class="cls-32" x="285.92" y="0">匀</tspan><tspan x="305.67" y="0">1mi</tspan><tspan class="cls-33" x="329.54" y="0">n</tspan><tspan class="cls-31" x="342.33" y="0">以</tspan><tspan x="358.22" y="0">上</tspan><tspan class="cls-31" x="374.01" y="0">。拭子样本要</tspan><tspan class="cls-33" x="469.39" y="0">求2</tspan><tspan class="cls-34" x="502.57" y="0">个</tspan><tspan class="cls-9" x="518.47" y="0">以</tspan></text><text class="cls-4" transform="translate(148.93 556.97)">上。建<tspan class="cls-23" x="47.36" y="0">议</tspan><tspan x="67.09" y="0">Bluei</tspan><tspan class="cls-35" x="103.13" y="0">c</tspan><tspan class="cls-24" x="111.4" y="0">e</tspan><tspan class="cls-9" x="124.11" y="0">冰袋储存及运输</tspan></text><line class="cls-36" x1="122.64" x2="122.64" y2="568.15"/><line class="cls-36" x1="0.01" y1="389.87" x2="713.96" y2="389.87"/><line class="cls-36" x1="0.01" y1="298.61" x2="713.96" y2="298.61"/><line class="cls-36" x1="0.01" y1="469.06" x2="713.96" y2="469.06"/><text class="cls-37" transform="translate(138.78 219.88)">• </text><text class="cls-37" transform="translate(138.78 317.44)">• </text><text class="cls-37" transform="translate(138.78 410.81)">• </text><text class="cls-37" transform="translate(138.78 488.85)">• </text><text class="cls-4" transform="translate(149.58 223.02)"><tspan class="cls-38">清晨采集新鲜粪便样</tspan><tspan class="cls-9" x="146.34" y="0">品</tspan><tspan class="cls-38" x="162.13" y="0">，放于无菌离心管</tspan><tspan x="292.2" y="0">中</tspan><tspan class="cls-38" x="307.99" y="0">（样本覆盖不超</tspan><tspan class="cls-39" x="421.81" y="0">过</tspan><tspan x="441.65" y="0">2m</tspan><tspan class="cls-39" x="464.62" y="0">l</tspan><tspan class="cls-40" x="472.39" y="0">无菌离</tspan><tspan class="cls-9" x="521.17" y="0">心</tspan></text><text class="cls-4" transform="translate(149.58 244.72)">管底部<tspan class="cls-41" x="47.36" y="0">起</tspan><tspan x="66.59" y="0">1/4-1/</tspan><tspan class="cls-41" x="114.06" y="0">3</tspan><tspan class="cls-9" x="126.97" y="0">即可</tspan><tspan class="cls-42" x="158.54" y="0">，</tspan><tspan class="cls-43" x="172.32" y="0">约</tspan><tspan x="191.55" y="0">100-200mg</tspan><tspan class="cls-44" x="277.62" y="0">），</tspan><tspan x="305.18" y="0">液氮速</tspan><tspan class="cls-41" x="352.54" y="0">冻</tspan><tspan x="371.77" y="0">3-5min</tspan><tspan class="cls-42" x="426.62" y="0">，</tspan><tspan x="440.4" y="0">-80℃长期保存。</tspan></text><text class="cls-4" transform="translate(149.58 266.43)"><tspan class="cls-45">干冰或冰袋运</tspan><tspan x="96.04" y="0">输</tspan><tspan class="cls-45" x="111.83" y="0">；如无条件液氮速</tspan><tspan x="239.89" y="0">冻</tspan><tspan class="cls-45" x="255.67" y="0">，尽量在完成取样</tspan><tspan class="cls-9" x="383.73" y="0">后</tspan><tspan class="cls-45" x="399.52" y="0">，冻</tspan><tspan class="cls-46" x="431.53" y="0">入</tspan><tspan class="cls-14" x="451.31" y="0">-8</tspan><tspan class="cls-45" x="470.34" y="0">0℃冰箱</tspan><tspan x="526.82" y="0">保</tspan></text><text class="cls-4" transform="translate(149.58 288.14)">存或直接干冰运输</text><text class="cls-37" transform="translate(138.13 39.17)">• </text><text class="cls-37" transform="translate(138.13 92.4)">• </text><text class="cls-37" transform="translate(138.13 141.85)">• </text><text class="cls-4" transform="translate(16.79 42.3)">RN<tspan class="cls-23" x="22.02" y="0">A</tspan><tspan x="36.34" y="0">样本</tspan></text><text class="cls-4" transform="translate(16.79 144.91)">PC<tspan class="cls-23" x="21.63" y="0">R</tspan><tspan x="36.25" y="0">产物</tspan></text><path class="cls-47" d="M160.58,37.63a8.72,8.72,0,0,0,3.55,2.43,4.33,4.33,0,0,0-.77.9,9.66,9.66,0,0,1-4-3.33h-4.94a10.74,10.74,0,0,1-4.12,3.53,4.22,4.22,0,0,0-.75-.89,9.25,9.25,0,0,0,3.56-2.64h-3.41v-1h3.13v-5h-2.4v-1h2.4V29.11H154v1.52h5.73V29.11h1.18v1.52h2.37v1h-2.37v5h3.05v1Zm-3.22,4.45h5.45v1h-11.9v-1h5.28V40.42H153v-1h3.21V38.14h1.17v1.32h3.3v1h-3.3ZM154,31.6v1.06h5.73V31.6Zm0,3h5.73V33.54H154Zm0,2h5.73V35.52H154Zm25.28-6.9V43.5h-1.14v-.77H167.23v.77h-1.09V29.74Zm-1.14,12V30.81H167.23V41.72Zm-5-6.6c0,.29-.09.54-.15.81a28.57,28.57,0,0,1,4.24,4.45l-.84.69a29.61,29.61,0,0,0-3.67-4.1,6.65,6.65,0,0,1-3.77,4.26,3.85,3.85,0,0,0-.73-.93,6.15,6.15,0,0,0,3.77-5.18h-3.78V34.05h3.92c.08-.81.13-1.67.16-2.57h1.15c0,.9-.07,1.75-.15,2.57h3.94v1.07ZM187,37.24a7.82,7.82,0,0,0,0,1c-4.27.87-4.81,1-5.16,1.19a6.8,6.8,0,0,0-.35-1,3.33,3.33,0,0,0,1.25-1.06,22.27,22.27,0,0,0,1.77-2.18,11.4,11.4,0,0,0-2.78.49,8.52,8.52,0,0,0-.35-1.1c.29-.06.57-.43.94-1a23.94,23.94,0,0,0,2.31-4.48l1.06.5a27.28,27.28,0,0,1-2.73,4.76l2.27-.25c.37-.55.73-1.12,1-1.67l.93.55a32.65,32.65,0,0,1-3.65,4.88Zm0,3.88c-1.88.49-3.83,1-5.32,1.35l-.2-1.13c1.34-.25,3.39-.76,5.41-1.22Zm8.73,1v1.07h-9.08V42.1h1.6V29.88h6.12V42.1ZM189.35,31v2.93h3.85V31Zm0,7h3.85V35h-3.85Zm0,4.12h3.85V39h-3.85ZM202,30.74h2.9c3.55,0,5.46,2.06,5.46,5.74s-1.91,5.82-5.4,5.82h-3Zm2.78,10.36c2.72,0,4.07-1.7,4.07-4.62s-1.35-4.56-4.07-4.56h-1.31V41.1Zm8.06-10.36h1.52L218.54,38l1.23,2.38h.08c-.08-1.17-.19-2.46-.19-3.66v-6h1.39V42.3h-1.5L215.34,35l-1.25-2.39H214c.06,1.17.17,2.4.17,3.62V42.3h-1.39Zm16.7,8h-4.23l-1.12,3.53h-1.48l3.93-11.56h1.62l3.93,11.56h-1.54Zm-.36-1.17-.55-1.77c-.43-1.31-.79-2.57-1.17-3.91h-.06c-.37,1.36-.74,2.6-1.16,3.91l-.56,1.77Zm21,4.32c0,.76-.21,1.11-.71,1.31a10.14,10.14,0,0,1-2.94.19,4.6,4.6,0,0,0-.39-1.13c1.1,0,2.18,0,2.46,0s.43-.11.43-.41V38.7h-4.25v4.66h-1.17V38.7h-3.94a9.07,9.07,0,0,1-2,4.89,4.13,4.13,0,0,0-.9-.77c1.73-2,1.89-4.73,1.89-6.92V30.22h11.49Zm-6.57-4.34V35h-3.77v.94c0,.52,0,1.1-.06,1.68Zm-3.77-6.24v2.52h3.77V31.34Zm9.19,0h-4.25v2.52H249Zm0,6.24V35h-4.25v2.62Zm8.53-6.84h6.67V32H259V35.6h4.38v1.24H259v4.21h5.38V42.3h-6.85Zm9.28,0h3.44c2.35,0,4,.78,4,2.82a2.53,2.53,0,0,1-1.71,2.51v.08a2.67,2.67,0,0,1,2.37,2.76c0,2.27-1.8,3.39-4.39,3.39h-3.69ZM270,35.66c2,0,2.79-.74,2.79-1.91,0-1.36-.93-1.86-2.73-1.86h-1.78v3.77Zm.3,5.47c2,0,3.15-.71,3.15-2.27s-1.13-2.08-3.15-2.08h-2v4.35Zm12.78.29h0l-.13.88h-1.15V29.74h1.44v3.44l-.05,1.55a4.29,4.29,0,0,1,2.68-1.22c2.22,0,3.42,1.74,3.42,4.36,0,3-1.75,4.64-3.72,4.64A3.83,3.83,0,0,1,283.06,41.42Zm4.67-3.52c0-1.89-.63-3.17-2.25-3.17a3.53,3.53,0,0,0-2.3,1.18v4.5a3.29,3.29,0,0,0,2.09.9C286.69,41.31,287.73,40,287.73,37.9Zm3.65,1.26V33.73h1.44V39c0,1.59.47,2.27,1.61,2.27.88,0,1.5-.43,2.32-1.45V33.73h1.44V42.3H297L296.88,41h-.05A3.7,3.7,0,0,1,294,42.51C292.19,42.51,291.38,41.34,291.38,39.16Zm18.56-8.25a2.43,2.43,0,0,0-1-.22c-.82,0-1.21.58-1.21,1.69v1.35h1.81V34.9h-1.81v7.4h-1.44V34.9h-3.58v7.4h-1.44V34.9h-1.16V33.81l1.16-.08V32.58c0-1.77.89-2.87,2.65-2.87a4.12,4.12,0,0,1,1.58.3l-.3,1.1a2.65,2.65,0,0,0-1.15-.25c-.85,0-1.34.63-1.34,1.77v1.1h3.58V32.36c0-1.73.79-2.82,2.51-2.82a3.7,3.7,0,0,1,1.42.28Zm.47,7.12c0-2.78,1.88-4.52,3.86-4.52,2.18,0,3.41,1.58,3.41,4a6,6,0,0,1-.06.82h-5.78a2.84,2.84,0,0,0,2.84,3,3.73,3.73,0,0,0,2.15-.67l.52.94a5.1,5.1,0,0,1-2.84.89C312.24,42.51,310.41,40.85,310.41,38Zm6-.7c0-1.73-.79-2.67-2.13-2.67a2.63,2.63,0,0,0-2.46,2.67Zm3.38-3.6H321l.13,1.57h.05a3,3,0,0,1,2.43-1.79,1.83,1.83,0,0,1,.91.19L324.23,35a2,2,0,0,0-.83-.14c-.71,0-1.6.51-2.16,2V42.3H319.8Zm16.7,7.21c-2.41.52-5,1.08-6.82,1.49l-.22-1.19c1.71-.33,4.39-.86,7-1.4Zm6-6.76a18.26,18.26,0,0,1-2.8,5.52c.59,1.62,1.3,2.6,2.07,2.6.44,0,.63-.82.73-2.92a2.71,2.71,0,0,0,1,.66c-.2,2.7-.64,3.48-1.86,3.48s-2.13-1-2.84-2.73a14.49,14.49,0,0,1-3.33,2.71,7.75,7.75,0,0,0-.91-.9,12.49,12.49,0,0,0,3.78-3.09,33.73,33.73,0,0,1-1.1-6.74h-7.75V31.62h7.69c-.05-.82-.07-1.64-.08-2.48h1.23c0,.85,0,1.67,0,2.48h4.74v1.15H338.5a33.44,33.44,0,0,0,.82,5.51,17,17,0,0,0,2-4.39Zm-6.63,0v4.76h-5.44V34.16Zm-1.15,1h-3.2v2.72h3.2ZM342,31.6a11.73,11.73,0,0,0-2.67-1.72l.68-.72a11.92,11.92,0,0,1,2.72,1.62Zm7.78-.86h1.51L355.49,38l1.24,2.38h.07c-.07-1.17-.19-2.46-.19-3.66v-6H358V42.3h-1.5L352.29,35l-1.24-2.39H351c.07,1.17.18,2.4.18,3.62V42.3h-1.39Zm11.4,0h6.67V32h-5.21v3.91h4.42v1.23h-4.42V42.3h-1.46Zm17.53,2.63c-.75,4.1-2.6,7-4.83,8.58a3.91,3.91,0,0,0-.93-.88,11,11,0,0,0,4.36-6.78h-3.85V33.12h4.26l.24,0Zm7.47-.57a37,37,0,0,1-3.52,3.55,13,13,0,0,0,4.94,4.47,5,5,0,0,0-.87,1,15,15,0,0,1-5.92-6.62v6.66c0,.77-.19,1.15-.65,1.35a6.65,6.65,0,0,1-2.46.26,4.23,4.23,0,0,0-.44-1.28c.9,0,1.72,0,2,0s.36-.1.36-.36V29.14h1.23v3.79a18.29,18.29,0,0,0,1.26,2.55,24.21,24.21,0,0,0,3.05-3.43Zm5.5,3.35a21.48,21.48,0,0,0-2.88-1.71l.63-.86a20.8,20.8,0,0,1,2.9,1.57Zm1.08,2.08c-.7,1.66-1.66,3.63-2.45,5.08l-1.06-.69a48.27,48.27,0,0,0,2.58-5.07ZM392.24,32a18.32,18.32,0,0,0-2.74-1.83l.64-.83A17.68,17.68,0,0,1,393,31.07Zm6.52,2.56c-.1.14-.18.3-.27.43a15.39,15.39,0,0,0,4.8,3.26,4.57,4.57,0,0,0-.56,1c-.41-.22-.86-.45-1.31-.74v4.91H400.3v-.59h-4.74v.64h-1.08V38.77c-.34.22-.69.42-1.05.63a5.07,5.07,0,0,0-.76-.78,13.33,13.33,0,0,0,5-4.43Zm-1.63-1.64A13.19,13.19,0,0,1,394,36a8.16,8.16,0,0,0-.85-.77,9.85,9.85,0,0,0,2.9-2.65Zm-2.71.58h-1.07V30.89h4.35a14.67,14.67,0,0,0-.76-1.54L398,29a15.86,15.86,0,0,1,1,1.87h3.87v2.62h-1.11V31.89h-7.3Zm6.82,4.93a19,19,0,0,1-3.35-2.66A15.31,15.31,0,0,1,395,38.44Zm-.94,3.45V39.41h-4.74v2.48Zm-.63-9.37a28.48,28.48,0,0,1,3,2.65l-.87.69a24.06,24.06,0,0,0-2.92-2.77Zm11.74,9.65c0,.51-.09.81-.44,1a3.34,3.34,0,0,1-1.59.2,3.69,3.69,0,0,0-.32-1c.56,0,1,0,1.14,0s.22-.05.22-.22V39.79H409v2.89h-.85V39.79h-1.53a8.76,8.76,0,0,1-1.19,3.77,3.19,3.19,0,0,0-.85-.55c1.06-1.66,1.17-4,1.17-5.76v-2.9l-.35.42a5.47,5.47,0,0,0-.85-.67,12.1,12.1,0,0,0,2.46-5l1.06.22c-.11.39-.24.78-.36,1.18h2.17l.18-.05.71.46a18.29,18.29,0,0,1-1,2.16h1.64Zm-4.05-10.74c-.25.57-.51,1.14-.79,1.64h2.11a10.14,10.14,0,0,0,.71-1.64Zm.79,7.43V36.78h-1.39v.49c0,.49,0,1-.05,1.59Zm-1.39-3h1.39V34h-1.39Zm2.24,0h1.42V34H409Zm1.42,3V36.78H409v2.08Zm4.81-8a5.22,5.22,0,0,1-2.88,4.28,3.41,3.41,0,0,0-.65-.82,4.24,4.24,0,0,0,2.48-3.46H412v-1h6.61s0,.3,0,.46c-.12,2.58-.26,3.59-.59,4a1.12,1.12,0,0,1-.86.4,15.27,15.27,0,0,1-1.62,0,2.64,2.64,0,0,0-.29-1,13,13,0,0,0,1.42.07c.22,0,.35,0,.46-.15a7.52,7.52,0,0,0,.4-2.76Zm3.84,9.6h-2.75v3h-1.1v-3h-3.17v-1h3.17V37.54H413.5a8.74,8.74,0,0,1-.82,1.53,6.46,6.46,0,0,0-.9-.49,8.81,8.81,0,0,0,1.42-3.52l1,.19c-.1.44-.22.85-.35,1.28h1.36V35h1.1v1.5h2.35v1h-2.35v1.92h2.75Zm3,3.53a2.94,2.94,0,0,0,2-2.67.73.73,0,0,1-.29,0,1.09,1.09,0,0,1-1.18-1.14,1.12,1.12,0,0,1,1.2-1.14c.87,0,1.36.75,1.36,1.93a3.94,3.94,0,0,1-2.73,3.8Zm.46-10.55a1.16,1.16,0,0,1,1.18-1.2,1.18,1.18,0,0,1,1.2,1.2,1.16,1.16,0,0,1-1.2,1.16A1.14,1.14,0,0,1,422.53,33.47Zm13.84,8.64a9,9,0,0,0,1.48-3.37l1.09.22a10,10,0,0,1-1.5,3.67Zm12.13-4.86h-9.89v-5h2.71a12,12,0,0,0-1.59-2.65l1-.46a11.21,11.21,0,0,1,1.68,2.64l-1,.47h3.24a18.4,18.4,0,0,0,1.72-3.15l1.2.49c-.51.88-1.09,1.86-1.63,2.66h2.54Zm-1.28-3.86h-7.38v2.76h7.38Zm-1.37,8.88c.78,0,.9-.22,1-1.59a3.45,3.45,0,0,0,1.1.42c-.17,1.78-.55,2.23-2,2.23h-3.52c-1.86,0-2.32-.33-2.32-1.61V38.48h1.2v3.24c0,.47.19.55,1.18.55ZM443,37.39a14,14,0,0,1,2.84,2.48l-.85.76a13.35,13.35,0,0,0-2.81-2.57Zm5.5,1a12.61,12.61,0,0,1,2.22,3.44l-.95.58a13.21,13.21,0,0,0-2.17-3.5Zm18,3.8v.92H452.28v-.92h6.5v-.9h-5.21v-.84h5.21V39.6H454V35.67h10.81V39.6h-4.94v.85h5.24v.84h-5.24v.9ZM466.35,35h-14v-.9h14Zm-1.94-1.51H454.33V29.62h10.08Zm-9.28,3.87h3.65V36.4h-3.65Zm3.65,1.56V38h-3.65v.93Zm4.46-8.55h-7.79v.88h7.79Zm0,1.51h-7.79v.9h7.79Zm.46,4.56h-3.79v.92h3.79Zm0,1.55h-3.79v.93h3.79Zm14.9-3.35v-.05l-9.3-3.75.41-1,11.77,4.76v.05l-11.77,4.77-.41-1Zm-9.26,7.13L481.12,37l.38.94-11.79,4.77Zm19.15-.63h2.57V32.47H489v-.91a7.4,7.4,0,0,0,2.39-.82h1.11V41.1h2.32v1.2h-6.34Zm8.82-7.37h1.44V39c0,1.5.45,2.27,1.57,2.27.78,0,1.47-.25,2.28-1.66V33.73h1.45c0,2.32-.1,4.83-.1,6.9,0,.49.26.68.63.68a1.57,1.57,0,0,0,.51-.1l.19,1.09a2.08,2.08,0,0,1-1,.21c-1,0-1.44-.51-1.55-1.66h0a2.77,2.77,0,0,1-2.4,1.62,1.69,1.69,0,0,1-1.65-.82c0,1.69,0,2.45.12,3.79h-1.45Zm9.25,10.21A2.42,2.42,0,0,1,507.84,42v-.06a1.56,1.56,0,0,1-.79-1.41,2.09,2.09,0,0,1,1-1.59v-.06a3,3,0,0,1,2.1-5.37,3.57,3.57,0,0,1,1.2.22h3v1.11h-1.75a2.44,2.44,0,0,1,.7,1.77,2.94,2.94,0,0,1-3.13,3,3,3,0,0,1-1.28-.3,1.29,1.29,0,0,0-.55,1c0,.56.35.93,1.5.93h1.67c2,0,3,.63,3,2,0,1.59-1.67,3-4.32,3C508,46.25,506.56,45.42,506.56,43.94Zm6.49-.44c0-.79-.62-1.06-1.76-1.06h-1.48a4.54,4.54,0,0,1-1.1-.14,1.81,1.81,0,0,0-.89,1.45c0,.92.93,1.52,2.5,1.52S513.05,44.4,513.05,43.5Zm-1.12-6.93a1.83,1.83,0,1,0-3.65,0,1.84,1.84,0,1,0,3.65,0ZM517,44a2.94,2.94,0,0,0,2-2.67.73.73,0,0,1-.29,0,1.09,1.09,0,0,1-1.18-1.14,1.12,1.12,0,0,1,1.2-1.14c.87,0,1.36.75,1.36,1.93a3.93,3.93,0,0,1-2.73,3.8Zm.46-10.55a1.19,1.19,0,1,1,1.18,1.16A1.14,1.14,0,0,1,517.42,33.47Zm13.94,3c0-3.71,2-6,4.94-6s4.94,2.25,4.94,6-2,6-4.94,6S531.36,40.19,531.36,36.48Zm8.38,0c0-2.9-1.37-4.69-3.44-4.69s-3.44,1.79-3.44,4.69,1.36,4.75,3.44,4.75S539.74,39.37,539.74,36.48Zm4-5.74h2.9c3.55,0,5.46,2.06,5.46,5.74s-1.91,5.82-5.4,5.82h-3Zm2.77,10.36c2.73,0,4.08-1.7,4.08-4.62s-1.35-4.56-4.08-4.56h-1.3V41.1Z"/><text class="cls-48" transform="translate(553.01 45.06)">260/280 </text><text class="cls-4" transform="translate(590.01 42.3)">=1.8-2.0<tspan class="cls-49" x="62.18" y="0">；浓</tspan><tspan class="cls-9" x="93.88" y="0">度</tspan></text><text class="cls-4" transform="translate(148.92 64.01)"><tspan class="cls-23">≥</tspan><tspan x="16.39" y="0">50 n</tspan><tspan class="cls-50" x="49.41" y="0">g</tspan><tspan x="59.58" y="0">/μL。</tspan></text><text class="cls-4" transform="translate(148.92 91.3)">DN<tspan class="cls-33" x="22.5" y="0">A</tspan><tspan class="cls-51" x="36.83" y="0">完整纯</tspan><tspan class="cls-9" x="84.42" y="0">净</tspan><tspan class="cls-51" x="100.21" y="0">，无降</tspan><tspan x="147.81" y="0">解</tspan><tspan class="cls-51" x="163.59" y="0">，无细胞凋</tspan><tspan x="242.92" y="0">亡</tspan><tspan class="cls-51" x="258.71" y="0">，</tspan><tspan class="cls-33" x="274.57" y="0">无</tspan><tspan class="cls-9" x="294.32" y="0">RNA</tspan><tspan class="cls-51" x="326.71" y="0">、蛋白</tspan><tspan x="374.31" y="0">质</tspan><tspan class="cls-51" x="390.09" y="0">、多</tspan><tspan class="cls-9" x="421.83" y="0">糖</tspan><tspan class="cls-51" x="437.61" y="0">、试剂成分等</tspan><tspan x="532.8" y="0">残</tspan></text><text class="cls-4" transform="translate(148.92 113.01)">留或污染。干冰或冰袋运送。</text><path class="cls-47" d="M150.5,133.88h3.3c2.6,0,4.33.87,4.33,3.4s-1.73,3.58-4.26,3.58H152v4.59H150.5Zm3.19,5.79c2,0,3-.74,3-2.39s-1-2.21-3.06-2.21H152v4.6Zm6.12,0c0-3.74,2.2-6,5.13-6a4.28,4.28,0,0,1,3.17,1.44l-.79,1a3.15,3.15,0,0,0-2.36-1.11c-2.2,0-3.65,1.8-3.65,4.69s1.39,4.75,3.6,4.75a3.5,3.5,0,0,0,2.68-1.3l.81.92a4.51,4.51,0,0,1-3.55,1.65C162,145.65,159.81,143.43,159.81,139.67Zm17.1,5.78-2.81-4.91H172v4.91h-1.46V133.88h3.63c2.35,0,4,.84,4,3.25a3.13,3.13,0,0,1-2.61,3.25l3,5.07Zm-4.9-6.09H174c1.82,0,2.81-.73,2.81-2.23s-1-2.06-2.81-2.06H172Zm26-.08H186.65v1c0,1.86-.28,4.59-1.63,6.45a6.72,6.72,0,0,0-1-.82,9.73,9.73,0,0,0,1.39-5.66v-2.15H193a16.58,16.58,0,0,0,1.28-2.65l1.26.41c-.42.76-.91,1.58-1.35,2.24H198Zm-.41-4h-12.4v-1.12h5.9a8.21,8.21,0,0,0-1-1.59l1.15-.33a8.46,8.46,0,0,1,1.19,1.89l-.08,0h5.2Zm-8.67,2.83a11.81,11.81,0,0,0-1.33-2.28l1-.41a11.56,11.56,0,0,1,1.39,2.21Zm16.87,2.82v5.74h-1.09v-5.39l-2.6.8L201.8,141c.81-.22,1.82-.49,2.92-.83V136.6h-1.44a12.72,12.72,0,0,1-.69,2.33,6.6,6.6,0,0,0-.9-.52,18.47,18.47,0,0,0,1.09-5.25l1,.17c-.07.71-.18,1.44-.3,2.13h1.22v-3.2h1.09v3.2h1.62v1.14h-1.62v3.22l1.83-.57.16,1Zm10.32-6s0,.45,0,.59c-.35,7.14-.69,9.59-1.32,10.38a1.37,1.37,0,0,1-1.09.6,9.72,9.72,0,0,1-1.8,0,2.63,2.63,0,0,0-.33-1.15c.71.06,1.34.08,1.65.08a.69.69,0,0,0,.59-.27c.5-.55.85-2.89,1.17-9.14h-.76c-.79,4.14-2.53,8.33-5.15,10.42a3.38,3.38,0,0,0-1-.71c2.58-1.87,4.29-5.75,5.11-9.71h-1.3c-.71,2.7-2.16,5.65-3.88,7.15a3.66,3.66,0,0,0-.93-.68,13.29,13.29,0,0,0,3.8-6.47h-1.35a12.89,12.89,0,0,1-1.8,3,7.85,7.85,0,0,0-.9-.68,13.46,13.46,0,0,0,2.76-6.06l1.07.22a18.5,18.5,0,0,1-.71,2.43h6.16Zm16.76,10.18c0,.76-.21,1.1-.71,1.31a10.56,10.56,0,0,1-2.94.19,5.13,5.13,0,0,0-.39-1.14c1.1,0,2.17,0,2.46,0s.42-.11.42-.41v-3.2h-4.24v4.66h-1.17v-4.66h-3.94a9.07,9.07,0,0,1-2,4.89,4.13,4.13,0,0,0-.9-.77c1.73-2,1.89-4.73,1.89-6.93v-5.68h11.49Zm-6.57-4.34v-2.62h-3.77V139c0,.52,0,1.11-.06,1.69Zm-3.77-6.25V137h3.77v-2.53Zm9.18,0h-4.24V137h4.24Zm0,6.25v-2.62h-4.24v2.62Zm11.43-5.62h-3.51v-1.23h8.48v1.23h-3.51v10.34h-1.46Zm7-1.23h6.67v1.23h-5.2v3.63h4.38V140h-4.38v4.21h5.38v1.25H250.2Zm15.18,10.69h-.05l-.12.88h-1.15V132.89h1.43v3.44l0,1.55a4.29,4.29,0,0,1,2.68-1.22c2.22,0,3.42,1.74,3.42,4.36,0,2.95-1.75,4.63-3.72,4.63A3.82,3.82,0,0,1,265.38,144.57Zm4.67-3.52c0-1.9-.63-3.17-2.25-3.17a3.55,3.55,0,0,0-2.31,1.18v4.5a3.29,3.29,0,0,0,2.1.89C269,144.45,270.05,143.18,270.05,141.05Zm3.65,1.26v-5.43h1.44v5.26c0,1.59.47,2.27,1.61,2.27.88,0,1.5-.43,2.32-1.45v-6.08h1.43v8.57h-1.2l-.11-1.34h0a3.68,3.68,0,0,1-2.84,1.54C274.51,145.65,273.7,144.49,273.7,142.31Zm18.56-8.25a2.43,2.43,0,0,0-1-.22c-.82,0-1.22.58-1.22,1.68v1.36h1.82v1.17h-1.82v7.4h-1.43v-7.4h-3.58v7.4h-1.44v-7.4h-1.17V137l1.17-.08v-1.15c0-1.77.89-2.87,2.65-2.87a4.12,4.12,0,0,1,1.58.3l-.3,1.1a2.68,2.68,0,0,0-1.15-.25c-.85,0-1.34.63-1.34,1.77v1.1h3.58v-1.37c0-1.74.79-2.83,2.51-2.83a3.6,3.6,0,0,1,1.42.29Zm.46,7.11c0-2.77,1.88-4.51,3.87-4.51,2.18,0,3.41,1.58,3.41,4a5.77,5.77,0,0,1-.06.82h-5.78a2.85,2.85,0,0,0,2.84,3,3.67,3.67,0,0,0,2.15-.68l.52,1a5.12,5.12,0,0,1-2.84.88C294.56,145.65,292.72,144,292.72,141.17Zm6-.69c0-1.74-.79-2.67-2.13-2.67a2.65,2.65,0,0,0-2.47,2.67Zm3.38-3.6h1.18l.13,1.56h0a3,3,0,0,1,2.43-1.78,1.87,1.87,0,0,1,.92.19l-.27,1.26a2,2,0,0,0-.84-.14c-.71,0-1.59.5-2.16,2v5.51h-1.43Zm17.17,7.21c-2.41.52-5,1.07-6.82,1.48l-.22-1.18c1.71-.33,4.39-.87,6.95-1.4Zm6-6.77a18.53,18.53,0,0,1-2.79,5.53c.58,1.62,1.29,2.6,2.06,2.6.44,0,.63-.82.73-2.92a2.84,2.84,0,0,0,1,.66c-.2,2.7-.64,3.47-1.86,3.47s-2.13-1-2.84-2.73a14.28,14.28,0,0,1-3.33,2.72,6.46,6.46,0,0,0-.91-.9,12.49,12.49,0,0,0,3.78-3.09,33.85,33.85,0,0,1-1.1-6.74h-7.75v-1.15H320c0-.82-.07-1.64-.08-2.48h1.23c0,.85,0,1.67.05,2.48H326v1.15h-4.66a32.48,32.48,0,0,0,.83,5.51,17,17,0,0,0,2-4.39Zm-6.63,0v4.76h-5.44v-4.76Zm-1.15,1h-3.2v2.73h3.2Zm7.24-3.58a11.54,11.54,0,0,0-2.66-1.72l.67-.72a11.92,11.92,0,0,1,2.72,1.62Zm8.25-.87h6.68v1.23H334.5v3.63h4.39V140H334.5v4.21h5.38v1.25H333Zm9.28,0h3.44c2.35,0,4,.79,4,2.83a2.53,2.53,0,0,1-1.7,2.51v.08a2.66,2.66,0,0,1,2.36,2.76c0,2.27-1.8,3.39-4.38,3.39h-3.7Zm3.19,4.93c2,0,2.79-.75,2.79-1.91,0-1.36-.93-1.86-2.73-1.86h-1.78v3.77Zm.3,5.47c2,0,3.16-.71,3.16-2.27s-1.14-2.08-3.16-2.08h-2v4.35Zm12.79.29h0l-.13.88h-1.15V132.89h1.44v3.44l-.05,1.55a4.32,4.32,0,0,1,2.68-1.22c2.23,0,3.43,1.74,3.43,4.36,0,2.95-1.75,4.63-3.73,4.63A3.77,3.77,0,0,1,358.59,144.57Zm4.67-3.52c0-1.9-.63-3.17-2.26-3.17a3.55,3.55,0,0,0-2.3,1.18v4.5a3.29,3.29,0,0,0,2.1.89C362.22,144.45,363.26,143.18,363.26,141.05Zm3.65,1.26v-5.43h1.43v5.26c0,1.59.48,2.27,1.61,2.27.89,0,1.5-.43,2.32-1.45v-6.08h1.44v8.57h-1.2l-.11-1.34h0a3.67,3.67,0,0,1-2.84,1.54C367.71,145.65,366.91,144.49,366.91,142.31Zm18.56-8.25a2.52,2.52,0,0,0-1-.22c-.82,0-1.21.58-1.21,1.68v1.36h1.81v1.17h-1.81v7.4h-1.44v-7.4h-3.58v7.4h-1.43v-7.4h-1.17V137l1.17-.08v-1.15c0-1.77.88-2.87,2.65-2.87a4.16,4.16,0,0,1,1.58.3l-.3,1.1a2.69,2.69,0,0,0-1.16-.25c-.85,0-1.34.63-1.34,1.77v1.1h3.58v-1.37c0-1.74.79-2.83,2.51-2.83a3.53,3.53,0,0,1,1.42.29Zm.46,7.11c0-2.77,1.88-4.51,3.87-4.51,2.17,0,3.4,1.58,3.4,4a5.77,5.77,0,0,1-.06.82h-5.77a2.84,2.84,0,0,0,2.84,3,3.66,3.66,0,0,0,2.14-.68l.52,1a5.07,5.07,0,0,1-2.84.88C387.76,145.65,385.93,144,385.93,141.17Zm6-.69c0-1.74-.79-2.67-2.13-2.67a2.64,2.64,0,0,0-2.46,2.67Zm3.38-3.6h1.19l.12,1.56h.05a3,3,0,0,1,2.43-1.78,1.8,1.8,0,0,1,.91.19l-.26,1.26a2.06,2.06,0,0,0-.84-.14c-.71,0-1.59.5-2.16,2v5.51h-1.44Zm17.18,7.21c-2.42.52-5,1.07-6.82,1.48l-.22-1.18c1.7-.33,4.39-.87,6.94-1.4Zm6-6.77a18.53,18.53,0,0,1-2.79,5.53c.58,1.62,1.29,2.6,2.07,2.6.44,0,.63-.82.72-2.92a2.87,2.87,0,0,0,1,.66c-.21,2.7-.65,3.47-1.86,3.47s-2.13-1-2.84-2.73a14.49,14.49,0,0,1-3.33,2.72,6.55,6.55,0,0,0-.92-.9,12.41,12.41,0,0,0,3.79-3.09,33.85,33.85,0,0,1-1.1-6.74h-7.75v-1.15h7.68c-.05-.82-.06-1.64-.08-2.48h1.23c0,.85,0,1.67.05,2.48h4.73v1.15H414.5a33.6,33.6,0,0,0,.82,5.51,17.37,17.37,0,0,0,2-4.39Zm-6.62,0v4.76h-5.45v-4.76Zm-1.16,1h-3.2v2.73h3.2Zm7.25-3.58a11.84,11.84,0,0,0-2.67-1.72l.68-.72a11.84,11.84,0,0,1,2.71,1.62Zm8.25-.87h1.51l4.21,7.29,1.24,2.39h.07c-.07-1.17-.19-2.47-.19-3.67v-6h1.39v11.57H433l-4.21-7.31-1.24-2.38h-.07c.07,1.17.18,2.4.18,3.61v6.08h-1.39Zm11.39,0h6.68v1.23H439.1V139h4.42v1.23H439.1v5.19h-1.47Zm18,2.64c-.76,4.1-2.61,7-4.83,8.58a4.33,4.33,0,0,0-.93-.88,11.07,11.07,0,0,0,4.35-6.79h-3.85v-1.16h4.26l.24-.05Zm7.46-.57a35.82,35.82,0,0,1-3.52,3.55,13.09,13.09,0,0,0,4.94,4.47,5.34,5.34,0,0,0-.87,1.05,15.09,15.09,0,0,1-5.92-6.62v6.65c0,.78-.19,1.16-.64,1.36a6.74,6.74,0,0,1-2.46.25,4.61,4.61,0,0,0-.45-1.27c.9,0,1.72,0,2,0s.36-.1.36-.37V132.29h1.23v3.79a18.92,18.92,0,0,0,1.27,2.55,24.82,24.82,0,0,0,3-3.44Zm7.4,3.35a21.48,21.48,0,0,0-2.88-1.71l.63-.87a20.78,20.78,0,0,1,2.9,1.58Zm1.08,2.08c-.7,1.65-1.66,3.63-2.45,5.08l-1.06-.7a48,48,0,0,0,2.58-5.06Zm-.51-6.22a18.32,18.32,0,0,0-2.74-1.83l.64-.83a18.14,18.14,0,0,1,2.81,1.71Zm6.52,2.56c-.1.14-.18.3-.27.42a15.13,15.13,0,0,0,4.8,3.27,4.57,4.57,0,0,0-.56,1c-.41-.22-.86-.46-1.31-.74v4.91h-1.12V146h-4.75v.63h-1.07v-4.75c-.35.23-.69.43-1.06.64a4.23,4.23,0,0,0-.75-.78,13.41,13.41,0,0,0,5-4.43ZM476,136.08a13.19,13.19,0,0,1-3.09,3.06,8.2,8.2,0,0,0-.85-.78,9.71,9.71,0,0,0,2.9-2.65Zm-2.71.58h-1.07V134h4.35a13.76,13.76,0,0,0-.76-1.54l1.06-.34a16,16,0,0,1,1,1.88h3.87v2.62h-1.11V135h-7.3Zm6.81,4.92a18.83,18.83,0,0,1-3.34-2.65,15.26,15.26,0,0,1-2.93,2.65Zm-.93,3.46v-2.48h-4.75V145Zm-.63-9.37a27.32,27.32,0,0,1,3,2.65l-.86.69a24.87,24.87,0,0,0-2.92-2.78Zm13.64,9.65c0,.51-.1.81-.44,1a3.41,3.41,0,0,1-1.6.2,3.66,3.66,0,0,0-.31-1c.55,0,1,0,1.13,0s.22-.05.22-.22v-2.37h-1.42v2.89h-.85v-2.89h-1.53a8.93,8.93,0,0,1-1.18,3.77,3.27,3.27,0,0,0-.85-.55c1.05-1.66,1.16-4,1.16-5.76v-2.9l-.34.42a7,7,0,0,0-.86-.68,12,12,0,0,0,2.47-5l1.05.22c-.11.4-.23.79-.36,1.19h2.18l.17-.05.71.46a20,20,0,0,1-1,2.16h1.64Zm-4.06-10.74a17.8,17.8,0,0,1-.79,1.64h2.12a12.27,12.27,0,0,0,.71-1.64Zm.79,7.43v-2.08h-1.39v.49c0,.48,0,1,0,1.59Zm-1.39-3h1.39v-1.89h-1.39Zm2.24,0h1.42v-1.89h-1.42Zm1.42,3v-2.08h-1.42V142Zm4.82-8a5.26,5.26,0,0,1-2.89,4.28,3.22,3.22,0,0,0-.65-.82,4.23,4.23,0,0,0,2.48-3.46h-2.15v-1h6.61s0,.3,0,.45c-.13,2.59-.27,3.6-.6,4a1.17,1.17,0,0,1-.85.4,15.46,15.46,0,0,1-1.63,0,2.62,2.62,0,0,0-.28-1c.61.06,1.21.06,1.42.06a.46.46,0,0,0,.46-.14,7.94,7.94,0,0,0,.39-2.76Zm3.83,9.59h-2.75v3H496v-3h-3.17v-1H496v-1.93h-1.72a7.08,7.08,0,0,1-.82,1.53,6.94,6.94,0,0,0-.9-.48,8.67,8.67,0,0,0,1.42-3.52l1,.19c-.09.44-.22.85-.35,1.27H496v-1.49h1.1v1.49h2.36v1h-2.36v1.93h2.75Zm3,3.54a3,3,0,0,0,2-2.67.89.89,0,0,1-.28,0,1.09,1.09,0,0,1-1.19-1.13,1.12,1.12,0,0,1,1.2-1.14c.87,0,1.36.74,1.36,1.93a3.93,3.93,0,0,1-2.73,3.8Zm.45-10.56a1.2,1.2,0,1,1,1.19,1.17A1.16,1.16,0,0,1,503.26,136.61ZM519,145.26a8.93,8.93,0,0,0,1.48-3.38l1.09.22a10.06,10.06,0,0,1-1.5,3.68Zm12.13-4.86h-9.89v-5H524a11.75,11.75,0,0,0-1.59-2.65l1-.46A10.65,10.65,0,0,1,525,135l-1,.47h3.24a18.11,18.11,0,0,0,1.72-3.16l1.2.49c-.51.89-1.09,1.87-1.63,2.67h2.54Zm-1.28-3.87h-7.38v2.77h7.38Zm-1.37,8.89c.77,0,.9-.22,1-1.6a3.38,3.38,0,0,0,1.11.43c-.17,1.78-.55,2.22-2,2.22h-3.51c-1.87,0-2.32-.33-2.32-1.61v-3.23h1.2v3.23c0,.48.19.56,1.18.56Zm-2.89-4.88a14.28,14.28,0,0,1,2.84,2.48l-.85.76a13.38,13.38,0,0,0-2.81-2.58Zm5.49,1a12.51,12.51,0,0,1,2.23,3.44l-.95.58a13.54,13.54,0,0,0-2.18-3.5Zm19.94,3.8v.91H536.8v-.91h6.5v-.9h-5.21v-.84h5.21v-.85h-4.73v-3.93h10.8v3.93h-4.93v.85h5.23v.84h-5.23v.9Zm-.15-7.23h-14v-.9h14Zm-1.94-1.51H538.85v-3.84h10.08Zm-9.27,3.86h3.64v-.91h-3.64ZM543.3,142v-.93h-3.64V142Zm4.47-8.55H540v.89h7.8Zm0,1.52H540v.9h7.8Zm.45,4.56h-3.78v.91h3.78Zm0,1.54h-3.78V142h3.78ZM565,137.75v-.05L555.72,134l.41-1,11.77,4.76v.05l-11.77,4.76-.41-1Zm-9.26,7.13,11.79-4.76.38.94-11.79,4.77Zm19-5.25c0-4,1.41-6,3.62-6s3.59,2,3.59,6-1.4,6-3.59,6S574.76,143.65,574.76,139.63Zm5.81,0c0-3.38-.88-4.8-2.19-4.8s-2.21,1.42-2.21,4.8.88,4.87,2.21,4.87S580.57,143,580.57,139.63Zm3.33,4.94a1,1,0,1,1,2.09,0,1,1,0,1,1-2.09,0Zm3.68-.45.71-.94a3.81,3.81,0,0,0,2.84,1.27,2.49,2.49,0,0,0,2.46-2.72,2.34,2.34,0,0,0-2.4-2.64,3.15,3.15,0,0,0-1.92.68l-.77-.47.36-5.42h5.63v1.23h-4.37l-.28,3.35a3.33,3.33,0,0,1,1.72-.46c1.92,0,3.48,1.14,3.48,3.68a3.75,3.75,0,0,1-3.78,4A4.89,4.89,0,0,1,587.58,144.12Zm9.77-7.24h1.44v5.26c0,1.49.46,2.27,1.58,2.27.77,0,1.46-.26,2.27-1.66v-5.87h1.45c0,2.32-.1,4.83-.1,6.9,0,.49.26.67.64.67a1.77,1.77,0,0,0,.5-.09l.19,1.09a2.22,2.22,0,0,1-1,.2c-1,0-1.44-.5-1.55-1.65h0a2.76,2.76,0,0,1-2.4,1.62,1.7,1.7,0,0,1-1.65-.82c0,1.69,0,2.45.12,3.79h-1.45Zm9.25,10.21a2.43,2.43,0,0,1,1.28-1.94v-.06a1.56,1.56,0,0,1-.79-1.41,2.06,2.06,0,0,1,1-1.59V142a3,3,0,0,1-1.12-2.3,3,3,0,0,1,3.21-3.06,3.52,3.52,0,0,1,1.2.22h3V138h-1.75a2.43,2.43,0,0,1,.7,1.76,2.94,2.94,0,0,1-3.13,3,3.07,3.07,0,0,1-1.27-.29,1.25,1.25,0,0,0-.56,1c0,.55.35.93,1.5.93h1.67c2,0,3,.63,3,2,0,1.59-1.68,3-4.33,3C608.06,149.39,606.6,148.57,606.6,147.09Zm6.49-.44c0-.79-.62-1.06-1.75-1.06h-1.49a5.1,5.1,0,0,1-1.1-.14,1.79,1.79,0,0,0-.88,1.45c0,.92.93,1.51,2.49,1.51S613.09,147.55,613.09,146.65ZM612,139.72a1.83,1.83,0,1,0-3.65,0,1.84,1.84,0,1,0,3.65,0Zm5,7.45a3,3,0,0,0,2-2.67.89.89,0,0,1-.28,0,1.09,1.09,0,0,1-1.19-1.13,1.12,1.12,0,0,1,1.2-1.14c.87,0,1.36.74,1.36,1.93a3.93,3.93,0,0,1-2.73,3.8Zm.45-10.56a1.2,1.2,0,1,1,1.19,1.17A1.16,1.16,0,0,1,617.46,136.61Zm13.94,3c0-3.71,2-6,4.94-6s4.94,2.26,4.94,6-2,6-4.94,6S631.4,143.33,631.4,139.63Zm8.38,0c0-2.91-1.37-4.69-3.44-4.69s-3.44,1.78-3.44,4.69,1.36,4.75,3.44,4.75S639.78,142.51,639.78,139.63Zm4-5.75h2.9c3.55,0,5.46,2.07,5.46,5.75s-1.91,5.82-5.39,5.82h-3Zm2.78,10.37c2.73,0,4.07-1.7,4.07-4.62s-1.34-4.56-4.07-4.56h-1.31v9.18Z"/><text class="cls-48" transform="translate(653.05 148.21)">260/280 </text><text class="cls-4" transform="translate(148.92 167.16)">=1.8-2.0；浓度<tspan class="cls-23" x="109.54" y="0">≥</tspan><tspan x="125.93" y="0">20</tspan><tspan class="cls-52" x="144.87" y="0"> </tspan><tspan x="150.9" y="0">n</tspan><tspan class="cls-50" x="159.72" y="0">g</tspan><tspan x="169.89" y="0">/μL，片段大小</tspan><tspan class="cls-52" x="274.84" y="0"> </tspan><tspan x="280.87" y="0">&lt;</tspan><tspan class="cls-52" x="290.42" y="0"> </tspan><tspan x="296.45" y="0">450bp；条带单一，无降解，无引物</tspan></text><text class="cls-4" transform="translate(148.92 188.86)">二聚体。干冰或冰袋运送。</text><line class="cls-36" y1="122.57" x2="713.95" y2="122.57"/><line class="cls-36" y1="200.46" x2="713.95" y2="200.46"/><line class="cls-36" y1="22.83" x2="713.95" y2="22.83"/><text class="cls-53" transform="translate(16.79 18.07)">样本类型</text><text class="cls-53" transform="translate(386.87 18.07)">样本要求</text></g></g></svg>