<svg xmlns="http://www.w3.org/2000/svg" viewBox="0 0 22.61 18.66"><defs><style>.cls-1{fill:#fff;}</style></defs><title>资源 1</title><g id="图层_2" data-name="图层 2"><g id="图层_1-2" data-name="图层 1"><path class="cls-1" d="M10.64,16V8.64a.67.67,0,0,1,1.33,0v7.58l.85-.85a.66.66,0,0,1,.94.94l-2.35,2.35L9.06,16.31a.66.66,0,0,1,.94-.94l.64.64Zm12-5.68a5.5,5.5,0,0,1-5.5,5.5H15.66a.65.65,0,0,1-.66-.66.66.66,0,0,1,.66-.67h1.45a4.17,4.17,0,1,0,0-8.34h-.65l-.09-.55a5.14,5.14,0,0,0-10.13,0l-.1.55H5.5a4.17,4.17,0,0,0,0,8.34H7a.66.66,0,0,1,.66.67.65.65,0,0,1-.66.66H5.5A5.5,5.5,0,0,1,5,4.85a6.47,6.47,0,0,1,12.53,0,5.5,5.5,0,0,1,5,5.48Z"/></g></g></svg>