<?xml version="1.0" standalone="no"?><!DOCTYPE svg PUBLIC "-//W3C//DTD SVG 1.1//EN" "http://www.w3.org/Graphics/SVG/1.1/DTD/svg11.dtd"><svg class="icon" width="200px" height="200.00px" viewBox="0 0 1024 1024" version="1.1" xmlns="http://www.w3.org/2000/svg"><path d="M85.333333 293.091556c36.010667 157.582222 125.326222 297.187556 252.017778 418.417777a1245.582222 1245.582222 0 0 0 248.263111 183.694223c10.922667 6.087111 18.659556 10.069333 22.528 11.946666a28.444444 28.444444 0 1 1-24.860444 51.2c-4.778667-2.389333-13.368889-6.826667-25.258667-13.368889a1301.959111 1301.959111 0 0 1-260.039111-192.341333C162.929778 623.388444 67.356444 473.258667 29.127111 302.250667L28.444444 295.992889c0-122.254222 149.902222-231.310222 228.977778-208.213333 97.507556 28.615111 239.502222 227.157333 162.474667 338.830222-47.160889 68.323556 81.92 207.815111 164.408889 233.130666 6.883556 2.104889 12.401778 0.341333 48.014222-15.473777 49.493333-22.072889 86.698667-28.273778 134.997333-12.856889 127.715556 40.903111 251.448889 137.728 224.369778 220.046222-25.543111 77.368889-109.056 132.152889-205.653333 143.928889a28.444444 28.444444 0 0 1-6.826667-56.490667c76.515556-9.329778 140.686222-51.427556 158.435556-105.244444 12.344889-37.432889-88.462222-116.280889-187.676445-148.024889-32.369778-10.353778-56.547556-6.314667-94.435555 10.581333-52.622222 23.438222-61.155556 26.168889-87.893334 17.92-113.664-34.872889-272.668444-206.620444-194.56-319.829333 26.737778-38.684444 15.132444-92.672-28.273777-153.372445-33.621333-47.047111-86.300444-93.525333-103.367112-98.531555-42.496-12.401778-153.429333 67.811556-156.046222 150.698667z m514.275556 53.475555a28.444444 28.444444 0 1 1 6.087111-56.547555c14.677333 1.592889 35.669333 6.997333 58.140444 18.887111 43.406222 22.983111 73.102222 61.781333 78.961778 117.76a28.444444 28.444444 0 1 1-56.547555 5.916444c-3.754667-35.726222-21.390222-58.766222-49.038223-73.386667a112.981333 112.981333 0 0 0-37.603555-12.629333z m61.895111-165.717333a28.444444 28.444444 0 0 1-0.227556-56.888889c28.501333-0.113778 70.826667 7.168 116.394667 29.297778 76.117333 36.977778 131.640889 104.220444 153.429333 206.848a28.444444 28.444444 0 1 1-55.637333 11.832889c-18.033778-84.935111-61.838222-138.012444-122.652444-167.537778a242.403556 242.403556 0 0 0-64.853334-20.707556 170.211556 170.211556 0 0 0-26.453333-2.844444z" /></svg>