<?xml version="1.0" standalone="no"?><!DOCTYPE svg PUBLIC "-//W3C//DTD SVG 1.1//EN" "http://www.w3.org/Graphics/SVG/1.1/DTD/svg11.dtd"><svg class="icon" width="200px" height="157.18px" viewBox="0 0 1303 1024" version="1.1" xmlns="http://www.w3.org/2000/svg"><path d="M670.013793 277.333333c0-30.013793-19.862069-49.434483-49.581609-49.434482-29.71954 0-59.586207 19.42069-59.586207 49.434482 0 29.71954 29.866667 49.581609 59.586207 49.58161s49.581609-20.009195 49.581609-49.58161zM343.098851 227.898851c-29.71954 0-59.733333 19.42069-59.733334 49.434482 0 29.71954 30.013793 49.581609 59.733334 49.58161 29.572414 0 49.434483-19.862069 49.434482-49.58161 0-30.013793-19.862069-49.434483-49.434482-49.434482z"  /><path d="M1086.234483 998.4c-4.413793 0-8.827586-1.177011-12.947127-3.383908l-99.604597-54.436782c-38.694253 9.563218-76.652874 18.096552-115.2 18.096552-151.687356 0-287.337931-81.655172-340.597702-204.211494-3.825287 1.029885-8.827586 1.912644-15.742528 2.942529-11.475862 1.765517-23.687356 2.942529-30.602299 2.942528-44.285057 0-80.036782-7.356322-121.232184-15.742528l-13.829885-2.795403-130.354023 65.177012c-3.825287 1.912644-7.944828 2.795402-12.064368 2.795402-6.473563 0-12.8-2.354023-17.655172-6.62069-8.23908-7.209195-11.328736-18.537931-7.944828-28.836781l33.397701-100.487357C101.664368 598.363218 48.551724 502.436782 48.551724 396.358621 48.551724 195.678161 238.491954 32.367816 471.834483 32.367816c206.124138 0 389.296552 128.735632 426.078161 299.402299 85.774713 8.386207 165.958621 43.696552 226.427586 100.193103 63.117241 58.850575 97.83908 134.17931 97.83908 212.156322 0 83.567816-47.816092 168.018391-134.620689 238.197701l24.422988 81.36092c3.236782 10.445977-0.294253 21.627586-8.827586 28.689655-4.708046 3.972414-10.74023 6.032184-16.91954 6.032184z m-114.611494-125.057471c4.413793 0 8.68046 1.177011 12.505747 3.236781l47.816092 26.188506-10.004598-33.397701c-3.089655-10.445977 0.588506-21.774713 9.268965-28.248276 78.418391-58.997701 121.526437-128.735632 121.526437-196.266667C1152.735632 510.528736 1018.114943 397.241379 858.629885 397.241379c-162.427586 0-294.694253 111.08046-294.694253 247.466667 0 136.533333 132.11954 247.613793 294.694253 247.613793 35.016092 0 71.503448-9.121839 106.666667-18.096552 2.05977-0.588506 4.266667-0.882759 6.326437-0.882758z m-499.788506-775.356322c-196.413793 0-356.193103 134.17931-356.193104 298.960919 0 91.365517 47.668966 170.96092 141.829885 236.579311 9.563218 6.767816 13.535632 18.685057 9.857472 29.866666l-18.243679 54.878161 77.094253-38.547126c3.531034-1.765517 7.503448-2.795402 11.622989-2.795402 1.765517 0 3.531034 0.147126 5.296552 0.588505l21.774712 4.413793c37.075862 7.650575 69.002299 14.271264 106.96092 14.271265 9.563218 0 19.126437-0.294253 28.542528-1.029885-4.708046-20.009195-6.914943-39.871264-6.914942-58.997701 0-80.478161 36.193103-156.248276 101.811494-213.48046 62.528736-54.583908 145.066667-86.216092 233.195403-89.747127-36.634483-134.767816-187.733333-234.96092-356.634483-234.960919z"  /><path d="M749.314943 515.383908c-19.862069 0-39.724138 20.009195-39.724138 39.724138 0 20.009195 19.862069 39.577011 39.724138 39.577011 29.866667 0 49.434483-19.714943 49.434482-39.577011 0.147126-19.862069-19.567816-39.724138-49.434482-39.724138zM967.209195 515.383908c-19.567816 0-39.429885 20.009195-39.429885 39.724138 0 20.009195 19.862069 39.577011 39.429885 39.577011 29.71954 0 49.728736-19.714943 49.728736-39.577011 0-19.862069-20.009195-39.724138-49.728736-39.724138z"  /></svg>