<?xml version="1.0" standalone="no"?><!DOCTYPE svg PUBLIC "-//W3C//DTD SVG 1.1//EN" "http://www.w3.org/Graphics/SVG/1.1/DTD/svg11.dtd"><svg class="icon" width="200px" height="148.62px" viewBox="0 0 1378 1024" version="1.1" xmlns="http://www.w3.org/2000/svg"><path d="M1312.131832 436.738313v502.032854c0.30269-1.556691 0.475656-3.243106 0.778346-4.799798a28.496094 28.496094 0 0 1-0.778346 3.848487c-0.30269 1.081035-1.989105 4.799797-1.686415 5.707867-0.90807-3.545796 3.372831-6.313247 0.475656-1.686416a38.917275 38.917275 0 0 0-2.464761 4.324142c-3.243106 6.010557 5.232211-5.405177 0.475655-0.30269-1.859381 1.859381-3.718762 3.848486-5.707867 5.707867-4.324142 4.021452 1.383725-1.556691 1.989106-1.383725a42.809003 42.809003 0 0 0-5.232212 3.37283 37.317343 37.317343 0 0 0-5.534901 2.767451c1.383725-0.60538 2.637726-1.254001 4.021451-1.686415l-4.021451 1.383725a41.165829 41.165829 0 0 1-4.324142 1.081036l-2.162071 0.475655c-3.545796 0.60538-2.767451 0.60538 2.335037 0l-6.788903 0.30269H95.188629h-4.324142c-7.394282 0 5.707867 1.383725 1.254001 0-1.081035-0.30269-11.242768-3.243106-11.415734-3.07014 1.383725 0.60538 2.637726 1.254001 4.021452 1.686415l-3.718762-1.859381a59.673156 59.673156 0 0 1-5.232211-3.243106c-6.183523-3.545796 5.232211 5.102487 0.302689 0.302689-1.383725-1.383725-2.940416-2.767451-4.324141-4.324141a14.010219 14.010219 0 0 1-1.383726-1.556691 64.516194 64.516194 0 0 0 1.556691 1.989105c0-0.30269-1.859381-2.767451-2.16207-3.416072a28.150163 28.150163 0 0 0-2.767451-5.232211c0.60538 1.383725 1.254001 2.767451 1.859381 4.324141a34.852582 34.852582 0 0 1-1.254001-3.718762 32.776994 32.776994 0 0 0-1.254001-5.880832c0.60538 5.232211 0.778346 6.486213 0.605379 3.848486V89.336768a33.728305 33.728305 0 0 1 0-4.021452c-0.30269 1.556691-0.475656 3.243106-0.778345 4.799797a23.263882 23.263882 0 0 0 1.254001-5.880832 8.648283 8.648283 0 0 1 0.60538-1.859381c1.254001-3.243106 0.778346-2.464761-1.254001 2.46476a43.241417 43.241417 0 0 0 4.929521-8.648283c-0.90807 1.254001-1.859381 2.335037-2.76745 3.545796 0.778346-1.081035 1.686415-1.989105 2.637726-3.07014s2.940416-2.767451 4.324142-4.324142c4.929522-4.929522-6.313247 3.718762-0.30269 0.30269 1.859381-1.081035 3.545796-2.162071 5.232211-3.243106l1.859381-0.90807c3.243106-1.556691 2.464761-1.254001-2.162071 0.778345l6.010557-1.989105c0.475656-0.129724 6.313247-1.254001 6.313247-1.383725 0 0.60538-8.648283 0.475656-2.335036 0.475655H1283.116841a19.84781 19.84781 0 0 1 7.394283 0.475656l-4.021452-0.475656c1.556691 0.30269 3.070141 0.60538 4.626832 1.081036s3.718762 1.254001 5.707867 1.686415c4.324142 1.254001-6.788902-4.021452-0.475656 0 1.989105 1.254001 4.021452 2.335037 5.880833 3.372831 6.486213 3.545796-4.799797-4.929522 0.475655 0.30269l4.799798 4.626831V30.528441l-63.435159 51.8897q-76.148136 62.483848-152.469237 124.837971l-183.603058 150.436891q-79.607449 65.251299-159.258139 130.372873c-25.94485 20.972087-52.322115 41.338795-77.315654 63.262193l-1.081035 0.90807c13.404839-1.686415 26.85292-3.372831 40.257759-5.232212q-64.343229-47.00342-128.859423-93.963599-102.309193-74.504962-204.445421-149.226131l-46.916937-34.247202a33.25265 33.25265 0 0 0-45.360247 11.891389 34.117478 34.117478 0 0 0 11.89139 45.360247q64.343229 47.00342 128.859423 93.963599 102.309193 74.548203 204.445421 149.226131l46.916937 34.247203a33.685064 33.685064 0 0 0 40.25776-5.232212l63.435159-51.889701q76.148136-62.483848 152.469236-124.837971l183.603058-150.43689q79.607449-65.251299 159.258139-130.372873c25.598919-20.972087 52.451839-41.209071 77.315654-63.262193l1.081036-0.90807a33.598581 33.598581 0 0 0 0-46.916938 99.455259 99.455259 0 0 0-72.515857-30.268992H96.658837a101.747055 101.747055 0 0 0-66.20261 24.215194 87.434146 87.434146 0 0 0-30.268992 66.332334v717.807525c0 41.81445-0.475656 83.628901 0 125.40011a93.790634 93.790634 0 0 0 96.731051 90.115113H1282.554703a97.855327 97.855327 0 0 0 72.688822-31.177062 91.369114 91.369114 0 0 0 23.004434-61.878468V436.738313a33.036443 33.036443 0 1 0-66.029644 0z" /></svg>