<svg xmlns="http://www.w3.org/2000/svg" viewBox="0 0 710.54 299.25"><defs><style>.cls-1,.cls-2{fill:none;stroke:#ff6c2f;stroke-linecap:round;stroke-linejoin:round;stroke-width:1.17px;}.cls-1{stroke-dasharray:0 2.39;}.cls-3{fill:#fff;}.cls-4,.cls-5{fill:#ff6c2f;}.cls-5{font-size:21px;font-family:PingFangSC-Semibold-GBpc-EUC-H, PingFang SC;}.cls-6{font-size:12px;fill:#3e3a39;font-family:PingFangSC-Regular-GBpc-EUC-H, PingFang SC;}</style></defs><title>资源 1</title><g id="图层_2" data-name="图层 2"><g id="图层_1-2" data-name="图层 1"><path class="cls-1" d="M31.51,160.84a27.81,27.81,0,0,0,24.65-26.07"/><path class="cls-1" d="M56,130.1A27.8,27.8,0,0,0,30,105.45"/><path class="cls-1" d="M25.28,105.58A27.81,27.81,0,0,0,.63,131.65"/><path class="cls-1" d="M.76,136.32A27.8,27.8,0,0,0,26.83,161"/><path class="cls-2" d="M28.39,161h0M.59,133.21h0m27.8-27.81h0M56.2,133.21h0"/><path class="cls-3" d="M50.27,128.5a11.07,11.07,0,1,0-11.06-11.06A11.06,11.06,0,0,0,50.27,128.5"/><path class="cls-4" d="M54.61,121.88v1.91H46.85v-1.61c0-4.22,4.71-6.09,4.71-8.7,0-.65-.29-.94-.83-.94s-.82.29-.82.94v1.89H46.85v-1.43c0-3.18,2.25-3.5,4-3.5s3.79.7,3.79,3.46c0,3-2.85,4.36-4.23,6.71a2.4,2.4,0,0,0-.47,1.27Z"/><path class="cls-4" d="M37.94,139.56c0,1.26-1.4,2.39-2.95,2.39H20.9c-1.55,0-2.95-1.13-2.95-2.39v-12.4c0-1.27,1.4-2.39,2.95-2.39h5.78v-2.54H20.9a5.22,5.22,0,0,0-5.49,4.93v12.4a5.22,5.22,0,0,0,5.49,4.93H35a5.22,5.22,0,0,0,5.49-4.93v-6.91H37.94Z"/><path class="cls-4" d="M41.47,122.23,30.76,132.94a9.9,9.9,0,0,1-3.66,2.25l-.84.28.28-1.13a13.22,13.22,0,0,1,2.11-3.52L35,124.49l1.94,1.68.71-.82-1.88-1.64,3.59-3.59h.14c.14,0,.14,0,.14-.14l1.84,1.83a.26.26,0,0,1,0,.42m1.83-2-1.83-1.83a2.74,2.74,0,0,0-3.95,0l-10.7,10.7a12.69,12.69,0,0,0-2.68,4.65l-1.55,5.63L28,137.73a13.5,13.5,0,0,0,4.64-2.82L43.3,124.2a2.73,2.73,0,0,0,0-3.94"/><path class="cls-1" d="M31.51,270.91a27.81,27.81,0,0,0,24.65-26.08"/><path class="cls-1" d="M56,240.16A27.81,27.81,0,0,0,30,215.51"/><path class="cls-1" d="M25.28,215.64A27.81,27.81,0,0,0,.63,241.72"/><path class="cls-1" d="M.76,246.39A27.81,27.81,0,0,0,26.83,271"/><path class="cls-2" d="M28.39,271.08h0M.59,243.27h0m27.8-27.8h0m27.81,27.8h0"/><path class="cls-3" d="M50.27,238.56A11.06,11.06,0,1,0,39.21,227.5a11.06,11.06,0,0,0,11.06,11.06"/><path class="cls-4" d="M50,228.82V231c0,.53.15,1,.78,1s.79-.46.79-1v-1.66c0-1.12-.63-1.17-1.46-1.17h-1v-2.1h1.18c.66,0,1.31-.26,1.31-1.16v-1.52a.77.77,0,0,0-.79-.81c-.79,0-.78.81-.78,1.41v1.46H47V223.6c0-2.52,2.34-3.09,3.79-3.09,1.89,0,3.88.74,3.88,2.92v.83c0,1.86-.66,2.41-1.91,2.83,1.17.22,1.91.72,1.91,2.41V231c0,2.26-1.77,3.16-3.88,3.16-2.43,0-3.79-.92-3.79-3.05v-2.25Z"/><path class="cls-4" d="M43.8,239.05l-5.88-3.92v-2.79A2.91,2.91,0,0,0,35,229.43H16.94A2.91,2.91,0,0,0,14,232.34v20a1,1,0,1,0,2,0v-20a.9.9,0,0,1,.9-.9H35a.89.89,0,0,1,.89.9v3.33a1,1,0,0,0,.45.83l6.34,4.23a1.85,1.85,0,0,1,.82,1.53v10.05a1,1,0,1,0,2,0V242.26a3.86,3.86,0,0,0-1.73-3.21"/><path class="cls-4" d="M36.91,255.11a2.8,2.8,0,1,1,2.8-2.8,2.81,2.81,0,0,1-2.8,2.8m-14.27,0a2.8,2.8,0,1,1,2.8-2.8,2.8,2.8,0,0,1-2.8,2.8m14.27-7.61a4.83,4.83,0,0,0-4.71,3.8H27.35a4.81,4.81,0,1,0,0,2H32.2a4.81,4.81,0,1,0,4.71-5.82"/><path class="cls-4" d="M40.71,243H37.92v-2.8a1,1,0,0,0-2,0V244a1,1,0,0,0,1,1h3.8a1,1,0,1,0,0-2"/><path class="cls-4" d="M25.9,29.25h1.81v1.8a.89.89,0,0,0,.27.65.91.91,0,0,0,.65.27.92.92,0,0,0,.92-.92v-1.8h1.8a.92.92,0,0,0,0-1.84h-1.8V25.6a.92.92,0,1,0-1.84,0v1.81H25.9a.92.92,0,0,0,0,1.84"/><path class="cls-4" d="M28.32,57.18c-6.06,0-13.29-.92-13.29-5.33,0-4.12,6.09-7.6,13.29-7.6v0c7.21,0,13.29,3.49,13.29,7.62,0,4.41-7.22,5.33-13.29,5.33M22,34.69H35.22c-.17,3.51-3.08,6.63-6.3,6.63h-.61c-3.21,0-6.13-3.13-6.3-6.63m0-9.39a1.5,1.5,0,0,1,1.5-1.49H33.77a1.49,1.49,0,0,1,1.49,1.49v3.63h0v3.91H22V29.53h0Zm9.69,17.32a9.06,9.06,0,0,0,5.42-8.24V29.53h0V25.3A3.35,3.35,0,0,0,33.77,22H23.49a3.35,3.35,0,0,0-3.35,3.34v3.63h0V34.4a9,9,0,0,0,5.28,8.16c-7,.83-12.22,4.61-12.22,9.28,0,3.27,2.62,7.17,15.13,7.17s15.14-3.9,15.14-7.17c0-4.58-5-8.29-11.78-9.22"/><path class="cls-1" d="M31.51,69.27A27.81,27.81,0,0,0,56.16,43.19"/><path class="cls-1" d="M56,38.52A27.81,27.81,0,0,0,30,13.87"/><path class="cls-1" d="M25.28,14A27.81,27.81,0,0,0,.63,40.08"/><path class="cls-1" d="M.76,44.75A27.81,27.81,0,0,0,26.83,69.4"/><path class="cls-2" d="M28.39,69.44h0M.59,41.63h0m27.8-27.8h0M56.2,41.63h0"/><path class="cls-3" d="M50.27,36.92A11.06,11.06,0,1,0,39.21,25.86,11.06,11.06,0,0,0,50.27,36.92"/><path class="cls-4" d="M47.37,20.6c1,0,2.41-.31,2.63-1.47h2.57V32.22h-3V22.51H47.37Z"/><path class="cls-1" d="M419.66,56A27.81,27.81,0,0,0,444.31,30"/><path class="cls-1" d="M444.18,25.28A27.81,27.81,0,0,0,418.1.63"/><path class="cls-1" d="M413.43.76a27.81,27.81,0,0,0-24.65,26.07"/><path class="cls-1" d="M388.91,31.51A27.81,27.81,0,0,0,415,56.16"/><path class="cls-2" d="M416.54,56.2h0m-27.8-27.81h0M416.54.59h0m27.81,27.8h0"/><path class="cls-3" d="M438.42,23.68a11.06,11.06,0,1,0-11.06-11.06,11.06,11.06,0,0,0,11.06,11.06"/><path class="cls-4" d="M434.77,13.88l3.56-8H442v8h1V16h-1v3h-2.85V16h-4.41Zm2,0h2.39V8.61h0Z"/><path class="cls-4" d="M426,38.33a1.42,1.42,0,1,0-1.42-1.42A1.43,1.43,0,0,0,426,38.33"/><path class="cls-4" d="M414.6,38h2.84a1.07,1.07,0,0,0,0-2.13H414.6a1.07,1.07,0,1,0,0,2.13"/><path class="cls-4" d="M422.35,23.67a1.05,1.05,0,0,0-.9-.5h0a1.07,1.07,0,0,0-.91.51l-2.16,3.59-2.15-7.13a1.11,1.11,0,0,0-1-.75,1.06,1.06,0,0,0-1,.79l-1.49,5.66h-4.11a1.07,1.07,0,0,0,0,2.13h4.93a1.07,1.07,0,0,0,1-.8l.74-2.8L417,30.19a1,1,0,0,0,1,.75,1.06,1.06,0,0,0,.92-.52l2.49-4.14.68,1.09a1.06,1.06,0,0,0,.9.5h3.28a1.07,1.07,0,0,0,0-2.13h-2.68Z"/><path class="cls-4" d="M407.5,38h2.84a1.07,1.07,0,1,0,0-2.13H407.5a1.07,1.07,0,0,0,0,2.13"/><path class="cls-4" d="M430.57,34.25v2.66a1.78,1.78,0,0,1-1.77,1.78H406.08a1.78,1.78,0,0,1-1.77-1.78V34.25Zm2.13-11.54V19.88A3.91,3.91,0,0,0,428.8,16H406.08a3.91,3.91,0,0,0-3.9,3.91v17a3.9,3.9,0,0,0,3.9,3.9H428.8a3.9,3.9,0,0,0,3.9-3.9V28.39a1.07,1.07,0,0,0-2.13,0v3.73H404.31V19.88a1.78,1.78,0,0,1,1.77-1.78H428.8a1.78,1.78,0,0,1,1.77,1.78v2.83a1.07,1.07,0,1,0,2.13,0"/><path class="cls-1" d="M419.66,159.82a27.81,27.81,0,0,0,24.65-26.08"/><path class="cls-1" d="M444.18,129.07a27.81,27.81,0,0,0-26.08-24.65"/><path class="cls-1" d="M413.43,104.55a27.81,27.81,0,0,0-24.65,26.07"/><path class="cls-1" d="M388.91,135.3A27.81,27.81,0,0,0,415,160"/><path class="cls-2" d="M416.54,160h0m-27.8-27.81h0m27.8-27.8h0m27.81,27.8h0"/><path class="cls-3" d="M438.42,127.47a11.06,11.06,0,1,0-11.06-11.06,11.06,11.06,0,0,0,11.06,11.06"/><path class="cls-4" d="M438.13,117.56v2.36c0,.6.31,1,.83,1s.84-.41.84-1v-3.26c0-.6-.31-1-.82-1a1,1,0,0,0-.85.92h-3.05v-6.89h7.68v1.91H438c0,.83-.09,1.65-.13,2.48h0a3.4,3.4,0,0,1,2.28-.9c1.58,0,2.69,1,2.69,3.09v3c0,2.83-1.92,3.72-3.9,3.72s-3.88-1.07-3.88-3v-2.51Z"/><path class="cls-4" d="M430.3,140.46a3.08,3.08,0,0,1-2.46,2.49H412.49c-1,0-2-1.47-2-2.49V120.41c0-1,.94-2.49,2-2.49h10.87c0,2.31,0,4.52,0,4.52a3.3,3.3,0,0,0,3.49,3.5h3.45Zm-5.43,4.18a2.41,2.41,0,0,1-2,2.32H408a3.08,3.08,0,0,1-2.46-2.49v-20a2.93,2.93,0,0,1,2.36-2.46l1.09,0v18.53a4.16,4.16,0,0,0,4,4h11.9Zm0-26.2h0l5,6h-3c-1.06,0-2-2-2-3Zm0-2-11.89,0a3.93,3.93,0,0,0-4,3.77v.24l-1.15,0a4,4,0,0,0-3.81,4v20a4.16,4.16,0,0,0,4,4h14.86a3.93,3.93,0,0,0,4-3.75v-.27h1a4.15,4.15,0,0,0,4-4v-16Z"/><path class="cls-4" d="M424.86,130.45H416a1,1,0,0,0,0,2h8.91a1,1,0,0,0,0-2"/><path class="cls-4" d="M424.86,135.46H416a1,1,0,0,0,0,2h8.91a1,1,0,0,0,0-2"/><path class="cls-1" d="M419.66,273.07A27.81,27.81,0,0,0,444.31,247"/><path class="cls-1" d="M444.18,242.32a27.81,27.81,0,0,0-26.08-24.65"/><path class="cls-1" d="M413.43,217.8a27.81,27.81,0,0,0-24.65,26.07"/><path class="cls-1" d="M388.91,248.55A27.81,27.81,0,0,0,415,273.2"/><path class="cls-2" d="M416.54,273.24h0m-27.8-27.81h0m27.8-27.8h0m27.81,27.8h0"/><path class="cls-3" d="M438.42,240.72a11.06,11.06,0,1,0-11.06-11.06,11.06,11.06,0,0,0,11.06,11.06"/><path class="cls-4" d="M439.77,227.56v-1.63c0-.63-.11-1.16-.81-1.16s-.79.53-.79,1.16V229a3.1,3.1,0,0,1,2.13-.86,2.37,2.37,0,0,1,2.52,2.54v2.18c0,2.5-2,3.39-3.66,3.39-2.56,0-4.05-1.11-4.05-3.7v-6.75c0-2.2,2-3.16,4-3.16,2.4,0,3.73,1,3.73,3.26v1.63Zm-1.6,3.73v2.32c0,.31.25.57.82.57s.78-.26.78-.61v-2.35c0-.39-.21-.66-.72-.66S438.17,230.87,438.17,231.29Z"/><path class="cls-4" d="M412.16,245.53a5.33,5.33,0,1,1,5.34-5.32,5.33,5.33,0,0,1-5.34,5.32m3.36,1a7.16,7.16,0,1,0-6.69,0,10.16,10.16,0,0,0-6.82,9.6.92.92,0,0,0,1.83,0,8.34,8.34,0,1,1,16.67,0,.92.92,0,0,0,1.83,0,10.2,10.2,0,0,0-6.82-9.6"/><path class="cls-4" d="M424.71,245.63h0a7.15,7.15,0,0,0-3.8-13.2.91.91,0,0,0,0,1.82,5.33,5.33,0,0,1,0,10.66.92.92,0,0,0,0,1.83,8.33,8.33,0,0,1,8.34,8.34.92.92,0,0,0,1.83,0,10.2,10.2,0,0,0-6.37-9.45"/><text class="cls-5" transform="translate(81.5 32.73)">咨询下单</text><text class="cls-6" transform="translate(81.5 58.19)">根据需求为客户推荐合适的基因检测产品</text><text class="cls-5" transform="translate(81.5 126.37)">签署协议和调查表</text><text class="cls-6" transform="translate(81.5 152.21)">签署《送样单及知情同意书》，<tspan x="0" y="18.4">填写《个人信息采集表》</tspan></text><text class="cls-5" transform="translate(469.65 32.73)">实验室检验</text><text class="cls-6" transform="translate(469.65 55.89)">由通过卫计委审批的福瑞医学检验实验室进行</text><text class="cls-6" transform="translate(469.65 73.35)">数据的质量及准确性皆为业内最高标准</text><text class="cls-5" transform="translate(469.65 126.37)">数据分析与解读</text><text class="cls-6" transform="translate(469.65 152.21)">可靠的数据分析流程，权威的数据解读规则，</text><text class="cls-6" transform="translate(469.65 169.35)">同时提供纸质报告及电子版报告</text><text class="cls-5" transform="translate(469.65 235.09)">个性化咨询和解读服务</text><text class="cls-6" transform="translate(469.65 260.55)">专业遗传咨询师对报告进行“一对一”解读服务</text><text class="cls-5" transform="translate(81.5 235.09)">样本采集与寄送</text><text class="cls-6" transform="translate(81.5 260.55)">除口腔黏膜或足跟血根据采样盒规定自主操作</text><text class="cls-6" transform="translate(81.5 278.01)">其他样本类型请由专业人士处理</text><text class="cls-6" transform="translate(81.5 296.46)">样本置于采样盒中按运输要求快递寄送</text></g></g></svg>