<svg xmlns="http://www.w3.org/2000/svg" viewBox="0 0 729 432.48"><defs><style>.cls-1{font-size:50px;letter-spacing:0.18em;}.cls-1,.cls-8{fill:#35517d;}.cls-1,.cls-3,.cls-8,.cls-9{font-family:PingFangSC-Regular-GBpc-EUC-H, PingFang SC;}.cls-10,.cls-2{fill:#35517c;}.cls-2{opacity:0.4;}.cls-3{font-size:16px;fill:#fff;}.cls-4{letter-spacing:-0.06em;}.cls-5{letter-spacing:-0.08em;}.cls-6{letter-spacing:-0.1em;}.cls-7{letter-spacing:-0.04em;}.cls-8,.cls-9{font-size:35.57px;}.cls-10{opacity:0.1;}</style></defs><title>资源 17</title><g id="图层_2" data-name="图层 2"><g id="图层_1-2" data-name="图层 1"><text class="cls-1" transform="translate(23.5 43)">准确</text><text class="cls-1" transform="translate(211.5 43)">快速</text><text class="cls-1" transform="translate(399.5 43)">兼容</text><text class="cls-1" transform="translate(587.5 43)">高效</text><rect class="cls-2" y="34.48" width="165" height="245" rx="19.28"/><rect class="cls-2" x="188" y="34.48" width="165" height="245" rx="19.28"/><rect class="cls-2" x="376" y="34.48" width="165" height="245" rx="19.28"/><rect class="cls-2" x="564" y="34.48" width="165" height="245" rx="19.28"/><text class="cls-3" transform="translate(19.27 100.25)">国家竞赛冠军级<tspan x="0" y="26">别的准确性。获</tspan><tspan class="cls-4"><tspan x="0" y="52">得包括Truth Chal</tspan><tspan x="113.37" y="52">-</tspan><tspan x="0" y="78">lenge 在内的多项</tspan><tspan x="0" y="104">PrecisionFDA竞赛</tspan><tspan x="0" y="130">冠军。</tspan></tspan></text><text class="cls-3" transform="translate(396.27 100.25)"><tspan class="cls-5">和传统<tspan class="cls-6" x="44.16" y="0">BWA-GATK</tspan></tspan><tspan x="0" y="26">流</tspan><tspan class="cls-7" x="16" y="26">程完全兼容。</tspan><tspan class="cls-7"><tspan x="0" y="52">可以嵌入传统流程</tspan></tspan><tspan class="cls-7" x="0" y="78">里。 部署简单，</tspan><tspan x="112.21" y="78"> </tspan><tspan x="0" y="104">支持本地和云端</tspan><tspan x="0" y="130">部署。</tspan></text><text class="cls-3" transform="translate(588.98 100.25)">高可重复性和一<tspan x="0" y="26">致性，不依赖线</tspan><tspan x="0" y="52">程，没有多次运</tspan><tspan x="0" y="78">行差异。同时科</tspan><tspan x="0" y="104">学家和工程师为</tspan><tspan x="0" y="130">软件提供全心全</tspan><tspan x="0" y="156">力的支持。</tspan></text><text class="cls-3" transform="translate(212.98 100.25)">极速周转时间和<tspan x="0" y="26">超低成本。 远</tspan><tspan x="0" y="52">超传统流程的运</tspan><tspan x="0" y="78">算速度，提高10</tspan><tspan x="0" y="104">倍到20倍，大大</tspan><tspan x="0" y="130">减少分析成本。</tspan></text><text class="cls-8" transform="translate(21.75 382.24) scale(0.58)">Sentieon DNAseq</text><text class="cls-9" transform="translate(64.45 420.24) scale(0.58)">胚系突变</text><text class="cls-9" transform="translate(313.15 420.24) scale(0.58)">体细胞突变</text><text class="cls-9" transform="translate(547.65 420.24) scale(0.58)">综合性肿瘤表征</text><text class="cls-8" transform="translate(288.53 382.24) scale(0.58)">Sentieon TNseq</text><text class="cls-8" transform="translate(532.02 382.24) scale(0.58)">Sentieon TNscope</text><rect class="cls-2" x="1" y="356.48" width="728" height="38"/><rect class="cls-10" x="1" y="394.48" width="728" height="38"/></g></g></svg>