<svg xmlns="http://www.w3.org/2000/svg" viewBox="0 0 728.64 207.45"><defs><style>.cls-1{opacity:0.3;}.cls-2{font-size:80px;fill:#35517d;}.cls-2,.cls-6{font-family:PingFangSC-Semibold-GBpc-EUC-H, PingFang SC;}.cls-3{font-size:16px;font-family:PingFangSC-Regular-GBpc-EUC-H, PingFang SC;}.cls-3,.cls-6{fill:#4d4d4d;}.cls-4{letter-spacing:0.1em;}.cls-5{letter-spacing:0.08em;}.cls-6{font-size:20px;}.cls-7{letter-spacing:0.01em;}.cls-8{letter-spacing:0.07em;}</style></defs><title>资源 18</title><g id="图层_2" data-name="图层 2"><g id="图层_1-2" data-name="图层 1"><g class="cls-1"><text class="cls-2" transform="matrix(0.96, 0, -0.28, 0.96, 46.55, 66.08)">1</text></g><g class="cls-1"><text class="cls-2" transform="matrix(0.96, 0, -0.28, 0.96, 241.58, 66.08)">2</text></g><g class="cls-1"><text class="cls-2" transform="matrix(0.96, 0, -0.28, 0.96, 439.58, 66.08)">3</text></g><g class="cls-1"><text class="cls-2" transform="matrix(0.96, 0, -0.28, 0.96, 628.58, 66.08)">4</text></g><text class="cls-3" transform="translate(0 106.21)"><tspan class="cls-4">高效全基因和全</tspan><tspan x="122.73" y="0">外</tspan><tspan x="0" y="24">显子大样本分析</tspan><tspan class="cls-5" x="0" y="48">超过200,000个</tspan><tspan x="122.73" y="48">全</tspan><tspan class="cls-4" x="0" y="72">基因组测序样本</tspan><tspan x="122.73" y="72">联</tspan><tspan x="0" y="96">合变异识别</tspan></text><text class="cls-6" transform="translate(29.36 51.66)">种群测序</text><text class="cls-3" transform="translate(202.27 106.21)"><tspan class="cls-4">临床全基因组、</tspan><tspan x="122.73" y="0">全</tspan><tspan class="cls-4" x="0" y="24">外显子的快速、</tspan><tspan x="122.73" y="24">精</tspan><tspan x="0" y="48">准和可重复的分析</tspan></text><text class="cls-6" transform="translate(231.64 51.66)">遗传疾病</text><text class="cls-3" transform="translate(397.27 106.21)"><tspan class="cls-7">精准鉴别活组织、</tspan><tspan x="128.73" y="0">冷</tspan><tspan class="cls-8" x="0" y="24">冻组织、FFPE组</tspan><tspan x="128.73" y="24">织</tspan><tspan x="0" y="48">和血液样本的变异</tspan></text><text class="cls-6" transform="translate(429.64 51.66)">肿瘤测序</text><text class="cls-3" transform="translate(589.27 106.21)"><tspan class="cls-4">分析复杂和多倍</tspan><tspan x="122.73" y="0">体</tspan><tspan x="0" y="24">植物和动物基因组</tspan></text><text class="cls-6" transform="translate(588.64 51.66)">农业基因组分析</text></g></g></svg>