
<svg xmlns="http://www.w3.org/2000/svg" xmlns:xlink="http://www.w3.org/1999/xlink" viewBox="0 0 761.43 420.13"><defs><style>.cls-1,.cls-13,.cls-3,.cls-4,.cls-5,.cls-6,.cls-7{fill:#e70100;}.cls-1{opacity:0.1;}.cls-2{fill:#ccc;}.cls-2,.cls-7{opacity:0.2;}.cls-4{opacity:0.8;}.cls-12,.cls-5{opacity:0.6;}.cls-6{opacity:0.4;}.cls-11,.cls-8,.cls-9{font-size:16px;}.cls-11,.cls-8{fill:#4d4d4d;}.cls-11,.cls-13,.cls-8{font-family:PingFangSC-Regular-GBpc-EUC-H, PingFang SC;}.cls-8{letter-spacing:-0.02em;}.cls-9{fill:#fff;font-family:PingFangSC-Semibold-GBpc-EUC-H, PingFang SC;}.cls-10{fill:url(#未命名的渐变_10);}.cls-13{font-size:12px;}</style><linearGradient id="未命名的渐变_10" x1="389" y1="415.13" x2="389" y2="38.61" gradientUnits="userSpaceOnUse"><stop offset="0" stop-color="#e70100" stop-opacity="0.2"/><stop offset="1" stop-color="#e70100"/></linearGradient></defs><title>资源 25</title><g id="图层_2" data-name="图层 2"><g id="图层_1-2" data-name="图层 1"><rect class="cls-1" x="434" y="32.13" width="321" height="28"/><rect class="cls-2" x="434" y="94.13" width="321" height="28"/><rect class="cls-2" x="434" y="152.13" width="321" height="28"/><rect class="cls-2" x="434" y="213.13" width="321" height="28"/><rect class="cls-2" x="434" y="274.13" width="321" height="28"/><rect class="cls-2" x="434" y="333.13" width="321" height="28"/><rect class="cls-2" x="434" y="392.13" width="321" height="28"/><circle class="cls-3" cx="24.5" cy="62.63" r="24.5"/><circle class="cls-4" cx="24.5" cy="132.63" r="24.5"/><circle class="cls-5" cx="24.5" cy="211.63" r="24.5"/><circle class="cls-6" cx="24.5" cy="293.63" r="24.5"/><circle class="cls-7" cx="24.5" cy="373.63" r="24.5"/><text class="cls-8" transform="translate(68 54.89)">至少在一篇文献中被报道为导致疾病的<tspan x="0" y="24">病理性疾病突变</tspan><tspan x="0" y="58">在文献中被报道为致病突变，但作者表</tspan><tspan x="0" y="82">示存疑或文献之后的证据显露突变的损</tspan><tspan x="0" y="106">害性存疑</tspan><tspan x="0" y="140">人群中等位基因频率&gt;1%的突变，且同</tspan><tspan x="0" y="164">某类疾病或表型具有重要关联性，并被</tspan><tspan x="0" y="188">证实具有功能型影响</tspan><tspan x="0" y="222">人群中等位基因频率&gt;1%的突变，且同</tspan><tspan x="0" y="246">某类疾病的表型具有重要关联性，但并</tspan><tspan x="0" y="270">未被证实具有功能型影响</tspan><tspan x="0" y="304">在文献中被报道能够影响结构，功能，</tspan><tspan x="0" y="328">基因表达或基因产物，但并未被报道和</tspan><tspan x="0" y="352">疾病具有关联性</tspan></text><text class="cls-9" transform="translate(11.52 68.4)">DM</text><text class="cls-9" transform="translate(7.05 138.4)">DM?</text><text class="cls-9" transform="translate(8.84 217.4)">DFP</text><text class="cls-9" transform="translate(13.5 299.4)">DP</text><text class="cls-9" transform="translate(14.6 380.4)">FP</text><polygon class="cls-10" points="412.15 56.13 389 38.61 365.85 56.13 378 56.13 378 415.13 400 415.13 400 56.13 412.15 56.13"/><text class="cls-9" transform="translate(383.98 165.52) rotate(90)">Pathogenicity</text><text class="cls-11" transform="translate(446.61 52.49)">突变类型<tspan x="0" y="30">Micro Lesions </tspan><tspan x="0" y="60">Missense/Nonsense</tspan><tspan x="0" y="90">Splicing </tspan><tspan x="0" y="120">Regulatory </tspan><tspan x="0" y="150">Small Deletions </tspan><tspan x="0" y="180">Small Insertions</tspan><tspan x="0" y="210">Small Indels </tspan><tspan x="0" y="240" xml:space="preserve">Gross Lesions  </tspan><tspan x="0" y="270">Gross Deletions </tspan><tspan x="0" y="300">Gross Insertions/Duplications </tspan><tspan x="0" y="330">Complex Rearrangements </tspan><tspan x="0" y="360">Repeat Variations </tspan></text><text class="cls-11" transform="translate(696.61 52.49)">条目数<tspan x="0" y="60">147,983 </tspan><tspan x="0" y="90">22,331 </tspan><tspan x="0" y="120">4,310 </tspan><tspan x="0" y="150">37,060 </tspan><tspan x="0" y="180">15,614 </tspan><tspan x="0" y="210">3,405 </tspan><tspan x="0" y="270">18,248 </tspan><tspan x="0" y="300">4,507 </tspan><tspan x="0" y="330">2,083 </tspan><tspan x="0" y="360">5,29 </tspan></text><g class="cls-12"><text class="cls-13" transform="translate(542.39 14.32)">HGMD</text><text class="cls-13" transform="translate(579.06 10.32) scale(0.58)">®</text><text class="cls-13" transform="translate(584.68 14.32)">突变记录统计（截止至2019.9.1）</text></g></g></g></svg>